<?xml version="1.0" encoding="UTF-8" standalone="no"?>
<!-- Created with Inkscape (http://www.inkscape.org/) -->

<svg
   width="60.144478mm"
   height="12.008224mm"
   viewBox="0 0 60.144478 12.008224"
   version="1.1"
   id="svg5"
   xmlns="http://www.w3.org/2000/svg"
   xmlns:svg="http://www.w3.org/2000/svg">
  <defs
     id="defs2">
    <clipPath
       id="clip1">
      <path
         d="m 62,0 h 2 v 34.039062 h -2 z m 0,0"
         id="path9" />
    </clipPath>
    <clipPath
       id="clip2">
      <path
         d="M 0,0 H 170.48828 V 34.039062 H 0 Z m 0,0"
         id="path12" />
    </clipPath>
  </defs>
  <g
     id="layer1"
     transform="translate(-56.673241,-111.7219)">
    <g
       id="surface22855"
       transform="matrix(0.35277778,0,0,0.35277778,56.673241,111.7219)">
      <g
         clip-path="url(#clip1)"
         clip-rule="nonzero"
         id="g19">
        <path
           style="fill:none;stroke:#211e1e;stroke-width:0.993;stroke-linecap:butt;stroke-linejoin:miter;stroke-miterlimit:4;stroke-opacity:1"
           d="M -0.00145,-5e-4 V -33.027844"
           transform="matrix(1,0,0,-1,62.8452,0.4995)"
           id="path17" />
      </g>
      <g
         clip-path="url(#clip2)"
         clip-rule="nonzero"
         id="g23">
        <path
           style="fill:none;stroke:#211e1e;stroke-width:0.933;stroke-linecap:butt;stroke-linejoin:miter;stroke-miterlimit:4;stroke-opacity:1"
           d="M 170.48828,-0.0014625 H 0 V 34.0376 h 170.48828 z m 0,0"
           transform="matrix(1,0,0,-1,0,34.0376)"
           id="path21" />
      </g>
      <path
         style="fill:#211e1e;fill-opacity:1;fill-rule:nonzero;stroke:none"
         d="M 13.3125,11.9375 12.917969,11.464844 C 12.375,10.816406 11.484375,10.820312 10.828125,11.359375 c -0.660156,0.542969 -0.851563,1.441406 -0.308594,2.101563 0,0 0.06641,0.07812 0.179688,0.214843"
         id="path25" />
      <path
         style="fill:#211e1e;fill-opacity:1;fill-rule:nonzero;stroke:none"
         d="m 10.6875,13.664062 c 1.25,1.503907 2.929688,3.523438 2.929688,3.523438 2.097656,2.546875 1.160156,5.679688 -1.683594,7.464844 C 9.429688,26.222656 4.832031,25.664062 3.25,23.082031 c 1.226562,3.625 5.34375,5.992188 9.898438,4.855469 3.949218,-0.988281 8.363281,-6.0625 3.535156,-11.921875 L 13.097656,11.6875"
         id="path27" />
      <path
         style="fill:#211e1e;fill-opacity:1;fill-rule:nonzero;stroke:none"
         d="m 11.074219,19.105469 c -1.214844,-1.464844 -2.703125,-3.25 -2.703125,-3.25 -2.09375,-2.546875 -1.160156,-5.679688 1.683594,-7.464844 2.503906,-1.574219 7.101562,-1.011719 8.6875,1.570313 C 17.511719,6.335938 13.394531,3.96875 8.839844,5.105469 4.890625,6.09375 0.480469,11.167969 5.304688,17.027344 l 3.417968,4.128906"
         id="path29" />
      <path
         style="fill:#211e1e;fill-opacity:1;fill-rule:nonzero;stroke:none"
         d="m 8.179688,20.523438 0.816406,0.984374 c 0.546875,0.648438 1.433594,0.644532 2.089844,0.101563 0.660156,-0.542969 0.855468,-1.441406 0.308593,-2.101563 0,-0.0039 -0.320312,-0.386718 -0.78125,-0.941406"
         id="path31" />
      <path
         style="fill:#211e1e;fill-opacity:1;fill-rule:nonzero;stroke:none"
         d="m 23.492188,18.539062 c 0.08203,2.269532 1.917968,2.984376 3.863281,2.984376 1.472656,0 3.472656,-0.355469 3.472656,-2.296876 0,-1.972656 -2.335937,-2.300781 -4.695313,-2.867187 -2.332031,-0.566406 -4.695312,-1.40625 -4.695312,-4.363281 0,-3.105469 2.863281,-4.390625 5.363281,-4.390625 3.167969,0 5.695313,1.074219 5.886719,4.839843 H 30.328125 C 30.160156,10.472656 28.550781,9.84375 26.992188,9.84375 c -1.414063,0 -3.054688,0.421875 -3.054688,1.976562 0,1.820313 2.5,2.117188 4.695312,2.6875 2.359376,0.566407 4.695313,1.402344 4.695313,4.390626 0,3.675781 -3.195313,4.871093 -6.113281,4.871093 -3.222656,0 -5.945313,-1.40625 -6.082032,-5.230469 z m 0,0"
         id="path33" />
      <path
         style="fill:#211e1e;fill-opacity:1;fill-rule:nonzero;stroke:none"
         d="m 47.273438,21.378906 c -0.304688,0.117188 -0.527344,0.144532 -0.722657,0.144532 -0.75,0 -0.75,-0.535157 -0.75,-1.730469 v -7.945313 c 0,-3.617187 -2.804687,-4.242187 -5.386719,-4.242187 -3.195312,0 -5.949218,1.34375 -6.085937,5.167969 H 36.6875 c 0.113281,-2.269532 1.585938,-2.929688 3.585938,-2.929688 1.5,0 3.195312,0.359375 3.195312,2.570312 0,1.910157 -2.222656,1.734376 -4.835938,2.269532 -2.441406,0.511718 -4.859374,1.253906 -4.859374,4.75 0,3.082031 2.136718,4.332031 4.75,4.332031 2,0 3.75,-0.746094 5.054687,-2.386719 0,1.671875 0.78125,2.386719 2,2.386719 0.75,0 1.28125,-0.148437 1.695313,-0.417969 z M 43.441406,18.03125 c 0,1.402344 -1.277344,3.492188 -4.390625,3.492188 -1.445312,0 -2.777343,-0.59375 -2.777343,-2.265626 0,-1.882812 1.332031,-2.480468 2.886718,-2.78125 1.585938,-0.296874 3.363282,-0.328124 4.28125,-1.042968 z m 0,0"
         id="path35" />
      <path
         style="fill:#211e1e;fill-opacity:1;fill-rule:nonzero;stroke:none"
         d="m 49.46875,18.539062 c 0.08203,2.269532 1.914062,2.984376 3.859375,2.984376 1.472656,0 3.472656,-0.355469 3.472656,-2.296876 0,-1.972656 -2.332031,-2.300781 -4.695312,-2.867187 -2.332031,-0.566406 -4.695313,-1.40625 -4.695313,-4.363281 0,-3.105469 2.863282,-4.390625 5.363282,-4.390625 3.167968,0 5.695312,1.074219 5.890624,4.839843 H 56.304688 C 56.132812,10.472656 54.519531,9.84375 52.964844,9.84375 c -1.414063,0 -3.054688,0.421875 -3.054688,1.976562 0,1.820313 2.503906,2.117188 4.695313,2.6875 2.363281,0.566407 4.699219,1.402344 4.699219,4.390626 0,3.675781 -3.199219,4.871093 -6.113282,4.871093 -3.222656,0 -5.949218,-1.40625 -6.089844,-5.230469 z m 0,0"
         id="path37" />
      <path
         style="fill:#211e1e;fill-opacity:1;fill-rule:nonzero;stroke:none"
         d="M 19.851562,23.042969 V 22.71875 h 0.21875 c 0.105469,0 0.226563,0.02344 0.226563,0.15625 0,0.15625 -0.121094,0.167969 -0.253906,0.167969 z m 0,0.132812 h 0.183594 l 0.277344,0.457031 h 0.175781 l -0.296875,-0.464843 c 0.152344,-0.01563 0.273438,-0.09766 0.273438,-0.285157 0,-0.207031 -0.125,-0.296874 -0.371094,-0.296874 h -0.398438 v 1.046874 h 0.15625 z m 0.195313,0.839844 c 0.492187,0 0.917969,-0.382813 0.917969,-0.910156 0,-0.519531 -0.425782,-0.902344 -0.917969,-0.902344 -0.5,0 -0.921875,0.382813 -0.921875,0.902344 0,0.527343 0.421875,0.910156 0.921875,0.910156 m -0.742187,-0.910156 c 0,-0.429688 0.324218,-0.753907 0.742187,-0.753907 0.40625,0 0.734375,0.324219 0.734375,0.753907 0,0.4375 -0.328125,0.761719 -0.734375,0.761719 -0.417969,0 -0.742187,-0.324219 -0.742187,-0.761719"
         id="path39" />
      <path
         style="fill:#211e1e;fill-opacity:1;fill-rule:nonzero;stroke:none"
         d="m 49.496094,18.535156 c 0.08203,2.257813 1.90625,2.96875 3.839844,2.96875 1.464843,0 3.453124,-0.355468 3.453124,-2.285156 0,-1.960938 -2.320312,-2.289062 -4.667968,-2.851562 -2.320313,-0.566407 -4.671875,-1.398438 -4.671875,-4.339844 0,-3.085938 2.847656,-4.367188 5.335937,-4.367188 3.148438,0 5.664063,1.070313 5.855469,4.816406 H 56.292969 C 56.125,10.515625 54.523438,9.890625 52.976562,9.890625 c -1.410156,0 -3.039062,0.414063 -3.039062,1.960937 0,1.8125 2.488281,2.109376 4.667969,2.671876 2.351562,0.566406 4.671875,1.398437 4.671875,4.367187 0,3.65625 -3.179688,4.84375 -6.078125,4.84375 -3.207031,0 -5.914063,-1.398437 -6.054688,-5.199219 z m 0,0"
         id="path41" />
      <path
         style="fill:#211e1e;fill-opacity:1;fill-rule:nonzero;stroke:none"
         d="M 59.085938,23.042969 V 22.71875 h 0.214843 c 0.113281,0 0.230469,0.02344 0.230469,0.15625 0,0.15625 -0.121094,0.167969 -0.253906,0.167969 z m 0,0.132812 h 0.183593 l 0.273438,0.457031 h 0.179687 l -0.296875,-0.464843 c 0.152344,-0.01563 0.273438,-0.09766 0.273438,-0.285157 0,-0.207031 -0.125,-0.296874 -0.371094,-0.296874 h -0.398437 v 1.046874 h 0.15625 z m 0.191406,0.839844 c 0.496094,0 0.917968,-0.382813 0.917968,-0.910156 0,-0.519531 -0.421874,-0.902344 -0.917968,-0.902344 -0.5,0 -0.921875,0.382813 -0.921875,0.902344 0,0.527343 0.421875,0.910156 0.921875,0.910156 m -0.738282,-0.910156 c 0,-0.429688 0.324219,-0.753907 0.738282,-0.753907 0.410156,0 0.734375,0.324219 0.734375,0.753907 0,0.4375 -0.324219,0.757812 -0.734375,0.757812 -0.414063,0 -0.738282,-0.320312 -0.738282,-0.757812"
         id="path43" />
      <path
         style="fill:#211e1e;fill-opacity:1;fill-rule:nonzero;stroke:none"
         d="M 70.011719,4.59375 C 69.75,4.28125 69.421875,4.125 69.03125,4.125 c -0.113281,0 -0.226562,0.015625 -0.332031,0.054688 -0.105469,0.035156 -0.203125,0.09375 -0.289063,0.175781 -0.08594,0.078125 -0.15625,0.183593 -0.203125,0.308593 -0.05078,0.128907 -0.07813,0.277344 -0.07813,0.449219 0,0.300781 0.08984,0.53125 0.269532,0.695313 0.183593,0.164062 0.417968,0.320312 0.710937,0.464844 0.175781,0.085937 0.351563,0.1875 0.53125,0.300781 0.179687,0.113281 0.34375,0.25 0.488281,0.410156 0.148438,0.160156 0.269532,0.351563 0.363282,0.570313 0.08984,0.21875 0.136718,0.480468 0.136718,0.78125 0,0.34375 -0.05469,0.652343 -0.164062,0.917968 -0.109375,0.265625 -0.257813,0.492188 -0.441406,0.675782 -0.179688,0.183593 -0.394532,0.320312 -0.644532,0.414062 -0.246094,0.09375 -0.503906,0.140625 -0.777344,0.140625 -0.394531,0 -0.757812,-0.07813 -1.089843,-0.230469 C 67.175781,10.101562 66.910156,9.90625 66.710938,9.675781 l 0.648437,-0.882812 c 0.152344,0.1875 0.339844,0.335937 0.554687,0.441406 0.21875,0.105469 0.4375,0.160156 0.667969,0.160156 0.25,0 0.460938,-0.085937 0.628907,-0.261719 0.167968,-0.171874 0.25,-0.414062 0.25,-0.730468 0,-0.304688 -0.101563,-0.546875 -0.300782,-0.726563 -0.199218,-0.179687 -0.453125,-0.347656 -0.761718,-0.5 -0.191407,-0.09375 -0.375,-0.199219 -0.542969,-0.3125 C 67.683594,6.75 67.535156,6.613281 67.40625,6.460938 67.273438,6.300781 67.171875,6.121094 67.09375,5.910156 67.019531,5.699219 66.980469,5.449219 66.980469,5.152344 c 0,-0.363282 0.05859,-0.679688 0.175781,-0.941406 0.117188,-0.265626 0.269531,-0.484376 0.460938,-0.65625 0.1875,-0.171876 0.402343,-0.300782 0.644531,-0.386719 0.238281,-0.082031 0.480469,-0.125 0.730469,-0.125 0.359374,0 0.679687,0.058593 0.964843,0.175781 0.28125,0.117188 0.519531,0.289062 0.714844,0.515625 z m 0,0"
         id="path45" />
      <path
         style="fill:#211e1e;fill-opacity:1;fill-rule:nonzero;stroke:none"
         d="M 73.539062,4.355469 H 73.5 l -0.769531,3.507812 h 1.558593 z m 1.25,5.949219 -0.347656,-1.5 h -1.863281 l -0.359375,1.5 H 71.019531 L 72.78125,3.222656 h 1.527344 l 1.730468,7.082032 z m 0,0"
         id="path47" />
      <path
         style="fill:#211e1e;fill-opacity:1;fill-rule:nonzero;stroke:none"
         d="M 79.558594,4.59375 C 79.300781,4.28125 78.972656,4.125 78.582031,4.125 78.46875,4.125 78.355469,4.140625 78.25,4.179688 c -0.105469,0.035156 -0.203125,0.09375 -0.289062,0.175781 -0.08594,0.078125 -0.15625,0.183593 -0.207032,0.308593 -0.04687,0.128907 -0.07422,0.277344 -0.07422,0.449219 0,0.300781 0.08984,0.53125 0.269531,0.695313 0.179687,0.164062 0.417969,0.320312 0.710937,0.464844 0.171875,0.085937 0.351563,0.1875 0.53125,0.300781 0.179688,0.113281 0.339844,0.25 0.488282,0.410156 0.148437,0.160156 0.265624,0.351563 0.359374,0.570313 0.09375,0.21875 0.140626,0.480468 0.140626,0.78125 0,0.34375 -0.05469,0.652343 -0.164063,0.917968 -0.109375,0.265625 -0.257813,0.492188 -0.441406,0.675782 -0.183594,0.183593 -0.398438,0.320312 -0.644531,0.414062 -0.246094,0.09375 -0.507813,0.140625 -0.78125,0.140625 -0.390626,0 -0.753907,-0.07813 -1.089844,-0.230469 -0.33203,-0.152344 -0.597654,-0.347656 -0.796873,-0.578125 l 0.648437,-0.882812 c 0.152344,0.1875 0.339844,0.335937 0.554688,0.441406 0.21875,0.105469 0.4375,0.160156 0.664062,0.160156 0.253906,0 0.464844,-0.085937 0.632813,-0.261719 0.164062,-0.171874 0.25,-0.414062 0.25,-0.730468 0,-0.304688 -0.101563,-0.546875 -0.300781,-0.726563 -0.199219,-0.179687 -0.453126,-0.347656 -0.761719,-0.5 -0.191407,-0.09375 -0.375,-0.199219 -0.542969,-0.3125 C 77.234375,6.75 77.085938,6.613281 76.957031,6.460938 76.824219,6.300781 76.722656,6.121094 76.644531,5.910156 76.566406,5.699219 76.53125,5.449219 76.53125,5.152344 c 0,-0.363282 0.05859,-0.679688 0.175781,-0.941406 0.113281,-0.265626 0.269531,-0.484376 0.457031,-0.65625 0.191407,-0.171876 0.40625,-0.300782 0.644532,-0.386719 0.242187,-0.082031 0.484375,-0.125 0.730468,-0.125 0.359376,0 0.683594,0.058593 0.964844,0.175781 0.285156,0.117188 0.523438,0.289062 0.714844,0.515625 z m 0,0"
         id="path49" />
      <path
         style="fill:#211e1e;fill-opacity:1;fill-rule:nonzero;stroke:none"
         d="m 82.550781,3.796875 c 0,-0.050781 -0.02344,-0.085937 -0.07031,-0.109375 C 82.4375,3.664062 82.390625,3.652344 82.34375,3.652344 H 82.125 v 0.3125 h 0.21875 c 0.05469,0 0.105469,-0.015625 0.144531,-0.046875 0.04297,-0.03125 0.0625,-0.070313 0.0625,-0.121094 m 0.03516,1.03125 -0.292969,-0.558594 H 82.125 V 4.828125 H 81.710938 V 3.3125 h 0.652343 c 0.07422,0 0.148438,0.00781 0.222657,0.023438 0.07422,0.015624 0.140624,0.042968 0.199218,0.078124 0.05859,0.039063 0.109375,0.085938 0.144532,0.148438 0.03906,0.0625 0.05469,0.140625 0.05469,0.226562 0,0.101563 -0.02734,0.191407 -0.08203,0.261719 -0.05859,0.070313 -0.128906,0.125 -0.21875,0.152344 l 0.382812,0.625 z m 0.832031,-0.726563 c 0,-0.15625 -0.02734,-0.300781 -0.08594,-0.4375 C 83.273438,3.527344 83.191406,3.40625 83.089844,3.304688 82.992188,3.199219 82.875,3.121094 82.738281,3.0625 82.605469,3.003906 82.460938,2.976562 82.304688,2.976562 c -0.15625,0 -0.300782,0.027344 -0.4375,0.085938 -0.136719,0.058594 -0.253907,0.136719 -0.359376,0.242188 -0.101562,0.101562 -0.183593,0.222656 -0.242187,0.359374 -0.05859,0.136719 -0.08594,0.28125 -0.08594,0.4375 0,0.148438 0.02734,0.292969 0.08594,0.429688 0.05859,0.136719 0.140625,0.253906 0.242187,0.355469 0.105469,0.101562 0.222657,0.179687 0.359376,0.238281 0.136718,0.058594 0.28125,0.089844 0.4375,0.089844 0.15625,0 0.300781,-0.03125 0.433593,-0.089844 C 82.875,5.066406 82.992188,4.988281 83.089844,4.886719 83.191406,4.785156 83.273438,4.667969 83.332031,4.53125 83.390625,4.394531 83.417969,4.25 83.417969,4.101562 m 0.210937,0 c 0,0.179688 -0.03516,0.351563 -0.105468,0.511719 -0.07031,0.160157 -0.164063,0.296875 -0.28125,0.414063 -0.121094,0.117187 -0.261719,0.207031 -0.421876,0.277344 -0.160156,0.066406 -0.332031,0.101562 -0.515624,0.101562 -0.183594,0 -0.355469,-0.035156 -0.519532,-0.101562 C 81.621094,5.234375 81.480469,5.144531 81.359375,5.027344 81.238281,4.910156 81.144531,4.773438 81.074219,4.613281 81.003906,4.453125 80.96875,4.28125 80.96875,4.101562 c 0,-0.183593 0.03516,-0.355468 0.105469,-0.519531 0.07031,-0.160156 0.164062,-0.300781 0.285156,-0.417969 0.121094,-0.117187 0.261719,-0.210937 0.425781,-0.28125 0.164063,-0.070312 0.335938,-0.105468 0.519532,-0.105468 0.183593,0 0.355468,0.035156 0.515624,0.105468 0.160157,0.070313 0.300782,0.164063 0.421876,0.28125 0.117187,0.117188 0.210937,0.257813 0.28125,0.417969 0.07031,0.164063 0.105468,0.335938 0.105468,0.519531"
         id="path51" />
      <path
         style="fill:#211e1e;fill-opacity:1;fill-rule:nonzero;stroke:none"
         d="m 90.113281,10.222656 c -0.289062,0.175782 -0.65625,0.261719 -1.09375,0.261719 -0.402343,0 -0.765625,-0.09375 -1.085937,-0.28125 -0.324219,-0.1875 -0.597656,-0.445313 -0.820313,-0.773437 -0.222656,-0.332032 -0.398437,-0.722657 -0.519531,-1.175782 -0.125,-0.453125 -0.1875,-0.949218 -0.1875,-1.488281 0,-0.542969 0.0625,-1.039063 0.1875,-1.496094 0.121094,-0.457031 0.296875,-0.851562 0.523438,-1.179687 0.226562,-0.332032 0.5,-0.585938 0.824218,-0.769532 0.324219,-0.183593 0.683594,-0.277343 1.078125,-0.277343 0.40625,0 0.761719,0.074219 1.066407,0.226562 0.308593,0.148438 0.558593,0.363281 0.75,0.644531 l -0.6875,0.839844 C 89.875,4.359375 89.519531,4.164062 89.085938,4.164062 c -0.238282,0 -0.449219,0.066407 -0.628907,0.203126 C 88.277344,4.507812 88.128906,4.691406 88.007812,4.925781 87.886719,5.15625 87.796875,5.433594 87.738281,5.75 c -0.05859,0.316406 -0.08984,0.652344 -0.08984,1.015625 0,0.351563 0.03125,0.6875 0.08984,1.003906 0.05859,0.316407 0.148438,0.589844 0.269531,0.824219 0.121094,0.234375 0.273438,0.417969 0.453126,0.554688 0.183593,0.136718 0.398437,0.207031 0.648437,0.207031 0.230469,0 0.433594,-0.0625 0.601563,-0.179688 0.171874,-0.121093 0.3125,-0.269531 0.425781,-0.441406 l 0.691406,0.808594 c -0.1875,0.28125 -0.425781,0.507812 -0.714844,0.679687"
         id="path53" />
      <path
         style="fill:#211e1e;fill-opacity:1;fill-rule:nonzero;stroke:none"
         d="m 93.898438,7.222656 c 0,-0.378906 -0.0625,-0.6875 -0.179688,-0.921875 -0.121094,-0.238281 -0.308594,-0.355469 -0.5625,-0.355469 -0.144531,0 -0.269531,0.042969 -0.375,0.128907 -0.101562,0.085937 -0.1875,0.195312 -0.25,0.324219 -0.0625,0.128906 -0.109375,0.269531 -0.144531,0.421874 -0.03125,0.148438 -0.05078,0.285157 -0.05078,0.402344 z m -1.570313,0.820313 c 0,0.199219 0.01953,0.390625 0.05859,0.566406 0.03906,0.175781 0.09766,0.328125 0.175781,0.460937 0.07813,0.128907 0.171875,0.234376 0.28125,0.308594 0.109375,0.078125 0.238281,0.113282 0.382812,0.113282 0.207032,0 0.371094,-0.0625 0.496094,-0.199219 0.121094,-0.132813 0.222656,-0.285157 0.292969,-0.457031 L 94.847656,9.3125 c -0.148437,0.355469 -0.355468,0.636719 -0.625,0.847656 -0.269531,0.207032 -0.613281,0.3125 -1.035156,0.3125 -0.59375,0 -1.070312,-0.230468 -1.429688,-0.699218 C 91.398438,9.308594 91.21875,8.636719 91.21875,7.765625 c 0,-0.410156 0.04687,-0.78125 0.140625,-1.117187 0.08984,-0.335938 0.226563,-0.625 0.398437,-0.863282 0.171876,-0.242187 0.378907,-0.425781 0.613282,-0.554687 0.238281,-0.132813 0.503906,-0.195313 0.796875,-0.195313 0.328125,0 0.605469,0.066406 0.835937,0.199219 0.230469,0.132813 0.414063,0.316406 0.558594,0.542969 0.144531,0.230468 0.246094,0.503906 0.316406,0.816406 0.06641,0.3125 0.09766,0.652344 0.09766,1.019531 v 0.429688 z m 0,0"
         id="path55" />
      <path
         style="fill:#211e1e;fill-opacity:1;fill-rule:nonzero;stroke:none"
         d="m 97.558594,5.324219 c 0.1875,-0.191407 0.40625,-0.289063 0.660156,-0.289063 h 0.08203 c 0.02344,0 0.05469,0.00781 0.08594,0.019532 l -0.05859,1.160156 c -0.07422,-0.019532 -0.15625,-0.03125 -0.242187,-0.03125 -0.144532,0 -0.273438,0.046875 -0.386719,0.136718 -0.117188,0.089844 -0.210938,0.207032 -0.292969,0.355469 -0.07813,0.144531 -0.136719,0.3125 -0.179688,0.5 -0.03906,0.183594 -0.05859,0.375 -0.05859,0.570313 v 2.558594 H 96.019531 V 5.203125 h 1.109375 v 0.980469 h 0.01953 c 0.08594,-0.378906 0.222656,-0.667969 0.410156,-0.859375"
         id="path57" />
      <path
         style="fill:#211e1e;fill-opacity:1;fill-rule:nonzero;stroke:none"
         d="m 100.20703,6.074219 v 2.621093 c 0,0.277344 0.043,0.484376 0.125,0.609376 0.082,0.125 0.21094,0.191406 0.38672,0.191406 0.0586,0 0.12109,-0.00781 0.18359,-0.023438 0.0625,-0.011718 0.11719,-0.03125 0.16407,-0.058594 l 0.0195,0.878907 c -0.0781,0.04297 -0.1875,0.07422 -0.32031,0.101562 -0.13282,0.02734 -0.26563,0.03906 -0.39844,0.03906 -0.433596,0 -0.746096,-0.128906 -0.933596,-0.382813 -0.191406,-0.257812 -0.285156,-0.625 -0.285156,-1.105469 V 6.074219 H 98.507812 V 5.203125 h 0.640626 V 3.902344 h 1.058592 v 1.300781 h 0.89063 v 0.871094 z m 0,0"
         id="path59" />
      <path
         style="fill:#211e1e;fill-opacity:1;fill-rule:nonzero;stroke:none"
         d="m 101.90625,5.203125 h 1.12891 v 5.101563 h -1.12891 z m 1.22266,-1.480469 c 0,0.203125 -0.0664,0.367188 -0.19141,0.5 -0.125,0.136719 -0.28516,0.203125 -0.46875,0.203125 -0.19531,0 -0.35547,-0.066406 -0.47656,-0.203125 -0.125,-0.132812 -0.1836,-0.296875 -0.1836,-0.5 0,-0.191406 0.0586,-0.359375 0.1836,-0.5 0.12109,-0.140625 0.28125,-0.207031 0.47656,-0.207031 0.19141,0 0.35156,0.066406 0.47266,0.207031 0.125,0.140625 0.1875,0.308594 0.1875,0.5"
         id="path61" />
      <path
         style="fill:#211e1e;fill-opacity:1;fill-rule:nonzero;stroke:none"
         d="m 107.09766,5.203125 h 1.1289 v 5.101563 h -1.1289 z m 1.21875,-1.480469 c 0,0.203125 -0.0625,0.367188 -0.1875,0.5 -0.12891,0.136719 -0.28516,0.203125 -0.47266,0.203125 -0.19141,0 -0.35156,-0.066406 -0.47266,-0.203125 -0.125,-0.132812 -0.1875,-0.296875 -0.1875,-0.5 0,-0.191406 0.0625,-0.359375 0.1875,-0.5 0.1211,-0.140625 0.28125,-0.207031 0.47266,-0.207031 0.19531,0 0.35156,0.066406 0.47656,0.207031 0.1211,0.140625 0.1836,0.308594 0.1836,0.5 m -1.82813,-0.1875 C 106.39844,3.5 106.30078,3.484375 106.1875,3.484375 c -0.125,0 -0.23047,0.027344 -0.30859,0.085937 -0.082,0.054688 -0.14453,0.128907 -0.19141,0.222657 -0.0469,0.09375 -0.082,0.203125 -0.10156,0.320312 -0.0195,0.121094 -0.0273,0.246094 -0.0273,0.371094 v 0.71875 h 0.8086 v 0.902344 h -0.80078 v 4.199219 h -1.10938 V 6.105469 h -0.64062 V 5.203125 h 0.64062 V 4.472656 c 0,-0.265625 0.0273,-0.515625 0.0859,-0.753906 0.0547,-0.234375 0.14453,-0.441406 0.26953,-0.621094 0.125,-0.175781 0.28125,-0.3125 0.48047,-0.414062 0.19531,-0.101563 0.4375,-0.148438 0.72266,-0.148438 0.1875,0 0.36718,0.027344 0.54296,0.078125 z m 0,0"
         id="path63" />
      <path
         style="fill:#211e1e;fill-opacity:1;fill-rule:nonzero;stroke:none"
         d="m 111.95703,7.222656 c 0,-0.378906 -0.0625,-0.6875 -0.17969,-0.921875 -0.12109,-0.238281 -0.30859,-0.355469 -0.55859,-0.355469 -0.14844,0 -0.27344,0.042969 -0.375,0.128907 -0.10547,0.085937 -0.1875,0.195312 -0.25,0.324219 -0.0664,0.128906 -0.11328,0.269531 -0.14844,0.421874 -0.0312,0.148438 -0.0508,0.285157 -0.0508,0.402344 z m -1.57031,0.820313 c 0,0.199219 0.0195,0.390625 0.0586,0.566406 0.0391,0.175781 0.10157,0.328125 0.17578,0.460937 0.0781,0.128907 0.17188,0.234376 0.28125,0.308594 0.10938,0.078125 0.23829,0.113282 0.38282,0.113282 0.20703,0 0.37109,-0.0625 0.49609,-0.199219 0.125,-0.132813 0.22266,-0.285157 0.29688,-0.457031 l 0.82812,0.476562 c -0.14453,0.355469 -0.35547,0.636719 -0.625,0.847656 -0.26953,0.207032 -0.61328,0.3125 -1.03516,0.3125 -0.59375,0 -1.07031,-0.230468 -1.42968,-0.699218 -0.35938,-0.464844 -0.53907,-1.136719 -0.53907,-2.007813 0,-0.410156 0.0469,-0.78125 0.14063,-1.117187 0.0937,-0.335938 0.22656,-0.625 0.39844,-0.863282 0.17187,-0.242187 0.3789,-0.425781 0.61718,-0.554687 0.23438,-0.132813 0.5,-0.195313 0.79297,-0.195313 0.32813,0 0.60547,0.066406 0.83594,0.199219 0.23047,0.132813 0.41406,0.316406 0.55859,0.542969 0.14454,0.230468 0.25,0.503906 0.31641,0.816406 0.0664,0.3125 0.0977,0.652344 0.0977,1.019531 v 0.429688 z m 0,0"
         id="path65" />
      <path
         style="fill:#211e1e;fill-opacity:1;fill-rule:nonzero;stroke:none"
         d="m 116.58594,7.753906 c 0,-0.246094 -0.0195,-0.472656 -0.0547,-0.683594 -0.0352,-0.210937 -0.0898,-0.394531 -0.16016,-0.550781 -0.0703,-0.15625 -0.16015,-0.28125 -0.26953,-0.371093 -0.10937,-0.089844 -0.23437,-0.132813 -0.375,-0.132813 -0.14843,0 -0.27343,0.042969 -0.3789,0.132813 -0.10938,0.089843 -0.19532,0.214843 -0.26172,0.371093 -0.0664,0.15625 -0.11719,0.339844 -0.14844,0.550781 -0.0352,0.210938 -0.0508,0.4375 -0.0508,0.683594 0,0.242188 0.0156,0.464844 0.0508,0.675782 0.0312,0.210937 0.082,0.394531 0.14844,0.550781 0.0664,0.15625 0.15234,0.277343 0.26172,0.367187 0.10547,0.089844 0.23047,0.136719 0.3789,0.136719 0.14453,0 0.27344,-0.046875 0.37891,-0.136719 0.10937,-0.089844 0.19531,-0.210937 0.26562,-0.367187 0.0703,-0.15625 0.125,-0.339844 0.16016,-0.550781 0.0352,-0.210938 0.0547,-0.433594 0.0547,-0.675782 m -0.0195,2.550782 V 9.574219 h -0.0195 c -0.0742,0.253906 -0.19922,0.46875 -0.375,0.640625 -0.17579,0.171875 -0.4336,0.257812 -0.76563,0.257812 -0.25781,0 -0.49219,-0.06641 -0.69922,-0.207031 C 114.5,10.125 114.32813,9.929688 114.1875,9.679688 c -0.14062,-0.25 -0.24609,-0.542969 -0.32031,-0.878907 -0.0742,-0.339843 -0.10938,-0.703125 -0.10938,-1.097656 0,-0.386719 0.0352,-0.742187 0.10157,-1.070313 0.0742,-0.324218 0.17578,-0.605468 0.3164,-0.84375 0.14063,-0.238281 0.3125,-0.421874 0.51563,-0.554687 0.20312,-0.132813 0.4414,-0.199219 0.71484,-0.199219 0.28125,0 0.51563,0.078125 0.71094,0.234375 0.1914,0.15625 0.32422,0.351563 0.39844,0.585938 h 0.0312 V 2.746094 h 1.10937 v 7.558594 z m 0,0"
         id="path67" />
      <path
         style="fill:#211e1e;fill-opacity:1;fill-rule:nonzero;stroke:none"
         d="m 123.82813,5.328125 c 0,-0.375 -0.0937,-0.652344 -0.27344,-0.824219 -0.17969,-0.171875 -0.41016,-0.257812 -0.6875,-0.257812 h -0.67969 v 2.238281 h 0.67969 c 0.27734,0 0.50781,-0.097656 0.6875,-0.292969 0.17969,-0.195312 0.27344,-0.484375 0.27344,-0.863281 m 1.1289,-0.015625 c 0,0.363281 -0.0547,0.675781 -0.16406,0.945312 -0.10938,0.273438 -0.25391,0.496094 -0.43359,0.675782 -0.17969,0.179687 -0.38672,0.3125 -0.61719,0.398437 -0.23438,0.089844 -0.47266,0.132813 -0.71875,0.132813 h -0.83594 v 2.839844 h -1.17969 V 3.222656 h 1.95313 c 0.22656,0 0.46094,0.035156 0.69922,0.101563 0.23828,0.066406 0.45312,0.179687 0.64453,0.34375 0.1875,0.164062 0.34375,0.378906 0.46484,0.644531 0.125,0.269531 0.1875,0.601562 0.1875,1"
         id="path69" />
      <path
         style="fill:#211e1e;fill-opacity:1;fill-rule:nonzero;stroke:none"
         d="m 127.23828,5.324219 c 0.1875,-0.191407 0.40625,-0.289063 0.65625,-0.289063 h 0.0859 c 0.0234,0 0.0547,0.00781 0.0859,0.019532 l -0.0586,1.160156 c -0.0742,-0.019532 -0.15625,-0.03125 -0.24218,-0.03125 -0.14454,0 -0.27344,0.046875 -0.38672,0.136718 -0.11719,0.089844 -0.21094,0.207032 -0.29297,0.355469 -0.0781,0.144531 -0.13672,0.3125 -0.17969,0.5 -0.0391,0.183594 -0.0586,0.375 -0.0586,0.570313 v 2.558594 h -1.14844 V 5.203125 h 1.10547 v 0.980469 h 0.0234 c 0.0859,-0.378906 0.22265,-0.667969 0.41015,-0.859375"
         id="path71" />
      <path
         style="fill:#211e1e;fill-opacity:1;fill-rule:nonzero;stroke:none"
         d="m 131.1875,7.753906 c 0,-0.246094 -0.0195,-0.472656 -0.0508,-0.683594 -0.0352,-0.210937 -0.0859,-0.394531 -0.15625,-0.550781 -0.0703,-0.15625 -0.15625,-0.28125 -0.25781,-0.371093 -0.10547,-0.089844 -0.23047,-0.132813 -0.375,-0.132813 -0.14844,0 -0.27344,0.042969 -0.375,0.132813 -0.10547,0.089843 -0.1875,0.214843 -0.25782,0.371093 -0.0664,0.15625 -0.11718,0.339844 -0.14843,0.550781 -0.0312,0.210938 -0.0508,0.4375 -0.0508,0.683594 0,0.242188 0.0195,0.464844 0.0508,0.679688 0.0312,0.214844 0.082,0.398437 0.14843,0.550781 0.0703,0.152344 0.15235,0.273437 0.25782,0.363281 0.10156,0.089844 0.22656,0.136719 0.375,0.136719 0.14453,0 0.27343,-0.046875 0.3789,-0.136719 0.10547,-0.089844 0.19141,-0.210937 0.26172,-0.363281 0.0625,-0.152344 0.11328,-0.335937 0.14844,-0.550781 0.0312,-0.214844 0.0508,-0.4375 0.0508,-0.679688 m 1.12891,0.011719 c 0,0.398437 -0.043,0.765625 -0.13672,1.097656 -0.0898,0.335938 -0.21875,0.617188 -0.39063,0.855469 -0.16797,0.238281 -0.375,0.421875 -0.61719,0.554688 -0.23828,0.132812 -0.51171,0.199218 -0.82031,0.199218 -0.30859,0 -0.58203,-0.06641 -0.82031,-0.199218 -0.24219,-0.132813 -0.44922,-0.316407 -0.61719,-0.554688 -0.17187,-0.238281 -0.30078,-0.519531 -0.39062,-0.855469 -0.0937,-0.332031 -0.13672,-0.699219 -0.13672,-1.097656 0,-0.410156 0.043,-0.78125 0.13672,-1.117187 0.0898,-0.335938 0.21875,-0.625 0.38672,-0.863282 0.16406,-0.242187 0.37109,-0.425781 0.61328,-0.554687 0.24609,-0.132813 0.51953,-0.195313 0.82812,-0.195313 0.3086,0 0.58203,0.0625 0.82031,0.195313 0.24219,0.128906 0.44922,0.3125 0.61719,0.554687 0.17188,0.238282 0.30078,0.527344 0.39063,0.863282 0.0937,0.335937 0.13672,0.707031 0.13672,1.117187"
         id="path73" />
      <path
         style="fill:#211e1e;fill-opacity:1;fill-rule:nonzero;stroke:none"
         d="M 135.45703,3.535156 C 135.36719,3.5 135.26953,3.484375 135.15625,3.484375 c -0.12891,0 -0.23047,0.027344 -0.30859,0.085937 -0.082,0.054688 -0.14454,0.132813 -0.19141,0.222657 -0.0469,0.09375 -0.082,0.203125 -0.0977,0.320312 -0.0234,0.121094 -0.0312,0.242188 -0.0312,0.371094 v 0.71875 h 0.82032 v 0.902344 h -0.8125 v 4.199219 H 133.4375 V 6.105469 h -0.64063 V 5.203125 h 0.64063 V 4.464844 c 0,-0.265625 0.0273,-0.519532 0.082,-0.753906 0.0586,-0.238282 0.14844,-0.445313 0.27344,-0.617188 0.12109,-0.171875 0.28125,-0.308594 0.48437,-0.410156 0.19922,-0.097656 0.4375,-0.148438 0.71875,-0.148438 0.0781,0 0.17188,0.00781 0.26953,0.019532 0.10157,0.011718 0.1875,0.03125 0.26172,0.058593 z m 0,0"
         id="path75" />
      <path
         style="fill:#211e1e;fill-opacity:1;fill-rule:nonzero;stroke:none"
         d="m 138.4375,7.222656 c 0,-0.378906 -0.0625,-0.6875 -0.18359,-0.921875 -0.11719,-0.238281 -0.30469,-0.355469 -0.5586,-0.355469 -0.14453,0 -0.26953,0.042969 -0.375,0.128907 -0.10156,0.085937 -0.1875,0.195312 -0.25,0.324219 -0.0625,0.128906 -0.10937,0.269531 -0.14453,0.421874 -0.0352,0.148438 -0.0508,0.285157 -0.0508,0.402344 z m -1.57031,0.820313 c 0,0.199219 0.0195,0.390625 0.0586,0.566406 0.0391,0.175781 0.0977,0.328125 0.17578,0.460937 0.0742,0.128907 0.17188,0.234376 0.27735,0.308594 0.11328,0.078125 0.24218,0.113282 0.38671,0.113282 0.20704,0 0.3711,-0.0625 0.4961,-0.199219 0.12109,-0.132813 0.22265,-0.285157 0.29297,-0.457031 l 0.83203,0.476562 c -0.14844,0.355469 -0.35547,0.636719 -0.625,0.847656 -0.26953,0.207032 -0.61328,0.3125 -1.03516,0.3125 -0.59375,0 -1.07031,-0.230468 -1.42969,-0.699218 -0.35937,-0.464844 -0.54296,-1.136719 -0.54296,-2.007813 0,-0.410156 0.0469,-0.78125 0.14453,-1.117187 0.0898,-0.335938 0.22656,-0.625 0.39843,-0.863282 0.17188,-0.242187 0.37891,-0.425781 0.61329,-0.554687 0.23828,-0.132813 0.5039,-0.195313 0.79687,-0.195313 0.32813,0 0.60547,0.066406 0.83203,0.199219 0.23438,0.132813 0.41797,0.316406 0.5625,0.542969 0.14453,0.230468 0.2461,0.503906 0.3125,0.816406 0.0703,0.3125 0.10156,0.652344 0.10156,1.019531 v 0.429688 z m 0,0"
         id="path77" />
      <path
         style="fill:#211e1e;fill-opacity:1;fill-rule:nonzero;stroke:none"
         d="m 142.70703,6.355469 c -0.0937,-0.128907 -0.21094,-0.230469 -0.35156,-0.3125 -0.14063,-0.078125 -0.29688,-0.117188 -0.48047,-0.117188 -0.16406,0 -0.30469,0.054688 -0.41797,0.171875 -0.11328,0.117188 -0.17187,0.273438 -0.17187,0.464844 0,0.203125 0.0625,0.347656 0.17968,0.4375 0.1211,0.089844 0.3125,0.179688 0.57032,0.273438 0.14843,0.054687 0.29296,0.121093 0.4375,0.195312 0.14062,0.078125 0.26953,0.175781 0.38671,0.296875 0.11719,0.117187 0.21094,0.261719 0.28125,0.433594 0.0703,0.167969 0.10547,0.371093 0.10547,0.605469 0,0.28125 -0.0469,0.523437 -0.13672,0.734374 -0.0898,0.210938 -0.21093,0.386719 -0.36328,0.523438 -0.15234,0.140625 -0.32812,0.246094 -0.52343,0.3125 -0.19922,0.06641 -0.40235,0.09766 -0.61719,0.09766 -0.32031,0 -0.61719,-0.0625 -0.89453,-0.1875 -0.27735,-0.128906 -0.51172,-0.296875 -0.70313,-0.511718 l 0.60938,-0.71875 c 0.11718,0.140624 0.25781,0.257812 0.41797,0.359374 0.16015,0.101563 0.34765,0.148438 0.5625,0.148438 0.18359,0 0.33203,-0.0625 0.4375,-0.1875 0.10937,-0.128906 0.16015,-0.292969 0.16015,-0.5 0,-0.242188 -0.0781,-0.414062 -0.23437,-0.519531 -0.15625,-0.109375 -0.36328,-0.207031 -0.625,-0.300781 -0.13282,-0.046876 -0.26172,-0.105469 -0.39063,-0.171876 -0.125,-0.066406 -0.24219,-0.15625 -0.34765,-0.269531 -0.10938,-0.113281 -0.19532,-0.25 -0.25782,-0.414062 -0.0625,-0.164063 -0.0937,-0.363281 -0.0937,-0.59375 0,-0.25 0.0469,-0.46875 0.13672,-0.660157 0.0898,-0.195312 0.20703,-0.359374 0.35156,-0.496093 0.14844,-0.136719 0.32032,-0.238281 0.51172,-0.308594 0.19141,-0.070313 0.39453,-0.105469 0.60157,-0.105469 0.30468,0 0.58203,0.054688 0.82812,0.164063 0.24609,0.109375 0.45703,0.25 0.63281,0.425781 z m 0,0"
         id="path79" />
      <path
         style="fill:#211e1e;fill-opacity:1;fill-rule:nonzero;stroke:none"
         d="m 146.35547,6.355469 c -0.0937,-0.128907 -0.21094,-0.230469 -0.35156,-0.3125 -0.13672,-0.078125 -0.29688,-0.117188 -0.47657,-0.117188 -0.16797,0 -0.30859,0.054688 -0.42187,0.171875 -0.11328,0.117188 -0.16797,0.273438 -0.16797,0.464844 0,0.203125 0.0586,0.347656 0.17969,0.4375 0.12109,0.089844 0.30859,0.179688 0.57031,0.273438 0.14453,0.054687 0.28906,0.121093 0.43359,0.195312 0.14453,0.078125 0.27344,0.175781 0.39063,0.296875 0.11719,0.117187 0.20703,0.261719 0.28125,0.433594 0.0703,0.167969 0.10156,0.371093 0.10156,0.605469 0,0.28125 -0.043,0.523437 -0.13281,0.734374 -0.0898,0.210938 -0.21094,0.386719 -0.36719,0.523438 -0.15234,0.140625 -0.32812,0.246094 -0.52344,0.3125 -0.19531,0.06641 -0.40234,0.09766 -0.61718,0.09766 -0.31641,0 -0.61719,-0.0625 -0.89063,-0.1875 -0.27734,-0.128906 -0.51562,-0.296875 -0.70703,-0.511718 l 0.60937,-0.71875 c 0.1211,0.140624 0.26172,0.257812 0.42188,0.359374 0.15625,0.101563 0.34375,0.148438 0.55859,0.148438 0.1875,0 0.33203,-0.0625 0.44141,-0.1875 0.10547,-0.128906 0.15625,-0.292969 0.15625,-0.5 0,-0.242188 -0.0781,-0.414062 -0.23047,-0.519531 -0.16016,-0.109375 -0.36719,-0.207031 -0.625,-0.300781 -0.13672,-0.046876 -0.26562,-0.105469 -0.39453,-0.171876 -0.125,-0.066406 -0.24219,-0.15625 -0.34766,-0.269531 -0.10547,-0.113281 -0.1914,-0.25 -0.2539,-0.414062 -0.0664,-0.164063 -0.0977,-0.363281 -0.0977,-0.59375 0,-0.25 0.0469,-0.46875 0.13672,-0.660157 0.0898,-0.195312 0.20703,-0.359374 0.35547,-0.496093 0.14453,-0.136719 0.3164,-0.238281 0.50781,-0.308594 0.19531,-0.070313 0.39453,-0.105469 0.60156,-0.105469 0.30469,0 0.58203,0.054688 0.83203,0.164063 0.2461,0.109375 0.45313,0.25 0.62891,0.425781 z m 0,0"
         id="path81" />
      <path
         style="fill:#211e1e;fill-opacity:1;fill-rule:nonzero;stroke:none"
         d="m 147.89453,5.203125 h 1.13281 v 5.101563 h -1.13281 z m 1.22266,-1.480469 c 0,0.203125 -0.0625,0.367188 -0.19141,0.5 -0.125,0.136719 -0.28125,0.203125 -0.46875,0.203125 -0.19531,0 -0.35156,-0.066406 -0.47656,-0.203125 -0.125,-0.132812 -0.1836,-0.296875 -0.1836,-0.5 0,-0.191406 0.0586,-0.359375 0.1836,-0.5 0.125,-0.140625 0.28125,-0.207031 0.47656,-0.207031 0.19141,0 0.35156,0.066406 0.47266,0.207031 0.125,0.140625 0.1875,0.308594 0.1875,0.5"
         id="path83" />
      <path
         style="fill:#211e1e;fill-opacity:1;fill-rule:nonzero;stroke:none"
         d="m 152.87891,7.753906 c 0,-0.246094 -0.0195,-0.472656 -0.0547,-0.683594 -0.0312,-0.210937 -0.082,-0.394531 -0.15235,-0.550781 -0.0703,-0.15625 -0.15625,-0.28125 -0.26171,-0.371093 -0.10157,-0.089844 -0.22657,-0.132813 -0.375,-0.132813 -0.14454,0 -0.26954,0.042969 -0.375,0.132813 -0.10157,0.089843 -0.1875,0.214843 -0.25391,0.371093 -0.0664,0.15625 -0.11719,0.339844 -0.14844,0.550781 -0.0352,0.210938 -0.0508,0.4375 -0.0508,0.683594 0,0.242188 0.0156,0.464844 0.0508,0.679688 0.0312,0.214844 0.082,0.398437 0.14844,0.550781 0.0664,0.152344 0.15234,0.273437 0.25391,0.363281 0.10546,0.089844 0.23046,0.136719 0.375,0.136719 0.14843,0 0.27343,-0.046875 0.38281,-0.136719 0.10547,-0.089844 0.1914,-0.210937 0.25781,-0.363281 0.0664,-0.152344 0.11719,-0.335937 0.14844,-0.550781 0.0352,-0.214844 0.0547,-0.4375 0.0547,-0.679688 m 1.1289,0.011719 c 0,0.398437 -0.0469,0.765625 -0.13672,1.097656 -0.0898,0.335938 -0.22265,0.617188 -0.39062,0.855469 -0.17188,0.238281 -0.375,0.421875 -0.61719,0.554688 -0.24219,0.132812 -0.51562,0.199218 -0.82031,0.199218 -0.3086,0 -0.58203,-0.06641 -0.82422,-0.199218 -0.23828,-0.132813 -0.44531,-0.316407 -0.61719,-0.554688 -0.16797,-0.238281 -0.30078,-0.519531 -0.39062,-0.855469 -0.0898,-0.332031 -0.13672,-0.699219 -0.13672,-1.097656 0,-0.410156 0.0469,-0.78125 0.13672,-1.117187 0.0898,-0.335938 0.21875,-0.625 0.38672,-0.863282 0.16796,-0.242187 0.375,-0.425781 0.61718,-0.554687 0.24219,-0.132813 0.51953,-0.195313 0.82813,-0.195313 0.30469,0 0.57812,0.0625 0.82031,0.195313 0.24219,0.128906 0.44531,0.3125 0.61719,0.554687 0.16797,0.238282 0.30078,0.527344 0.39062,0.863282 0.0898,0.335937 0.13672,0.707031 0.13672,1.117187"
         id="path85" />
      <path
         style="fill:#211e1e;fill-opacity:1;fill-rule:nonzero;stroke:none"
         d="m 156.1875,5.203125 v 0.8125 h 0.0195 c 0.0937,-0.273437 0.24609,-0.507813 0.46484,-0.695313 0.21485,-0.191406 0.48438,-0.285156 0.80469,-0.285156 0.27735,0 0.50391,0.058594 0.67578,0.175782 0.16797,0.113281 0.30078,0.269531 0.39453,0.464843 0.0937,0.191407 0.15625,0.414063 0.19141,0.664063 0.0312,0.25 0.0469,0.503906 0.0469,0.765625 v 3.199219 h -1.12891 V 7.105469 c 0,-0.128907 -0.008,-0.257813 -0.0195,-0.386719 -0.0117,-0.128906 -0.043,-0.246094 -0.0859,-0.355469 -0.043,-0.105469 -0.10547,-0.191406 -0.1875,-0.253906 -0.0859,-0.0625 -0.19531,-0.09375 -0.32812,-0.09375 -0.25,0 -0.45313,0.125 -0.60547,0.378906 -0.14844,0.253907 -0.22266,0.574219 -0.22266,0.960938 v 2.949219 h -1.12891 V 5.203125 Z m 0,0"
         id="path87" />
      <path
         style="fill:#211e1e;fill-opacity:1;fill-rule:nonzero;stroke:none"
         d="m 162.17578,7.914062 h -0.32812 c -0.14063,0 -0.27735,0.011719 -0.40625,0.035157 -0.12891,0.023437 -0.2461,0.070312 -0.34375,0.136719 -0.10157,0.066406 -0.1836,0.15625 -0.24219,0.273437 -0.0586,0.117187 -0.0898,0.265625 -0.0898,0.445313 0,0.265624 0.0586,0.464843 0.17579,0.589843 0.11718,0.125 0.25,0.191407 0.40625,0.191407 0.15234,0 0.28125,-0.042969 0.39062,-0.132813 0.10547,-0.085937 0.19141,-0.195313 0.25391,-0.328125 0.0625,-0.132812 0.10937,-0.28125 0.13672,-0.445312 0.0312,-0.164063 0.0469,-0.324219 0.0469,-0.476563 z m 0.0391,1.628907 c -0.0703,0.28125 -0.20312,0.5 -0.39843,0.65625 -0.19532,0.15625 -0.44922,0.234375 -0.76954,0.234375 -0.14843,0 -0.29687,-0.02734 -0.44921,-0.07813 -0.15625,-0.05469 -0.29297,-0.144531 -0.41797,-0.265625 -0.1211,-0.125 -0.22266,-0.285156 -0.30469,-0.480469 -0.0781,-0.195313 -0.12109,-0.433594 -0.12109,-0.714844 0,-0.359375 0.0664,-0.65625 0.19531,-0.886719 0.13281,-0.230468 0.29687,-0.410156 0.5,-0.542968 0.20703,-0.132813 0.42969,-0.226563 0.67969,-0.277344 0.25,-0.046875 0.49609,-0.074219 0.73828,-0.074219 h 0.28125 V 6.953125 c 0,-0.339844 -0.0703,-0.585937 -0.20703,-0.734375 -0.13672,-0.148438 -0.32032,-0.226562 -0.54297,-0.226562 -0.19532,0 -0.3711,0.046874 -0.52735,0.136718 -0.15625,0.089844 -0.29297,0.207032 -0.40625,0.355469 l -0.53906,-0.710937 c 0.1875,-0.230469 0.42578,-0.414063 0.71094,-0.542969 0.28515,-0.132813 0.57031,-0.195313 0.85156,-0.195313 0.30859,0 0.57813,0.050782 0.79297,0.148438 0.21484,0.101562 0.39062,0.246094 0.52344,0.433594 0.13672,0.191406 0.23047,0.425781 0.28515,0.707031 0.0586,0.28125 0.0859,0.597656 0.0859,0.949219 v 3.03125 h -0.9375 V 9.542969 Z m 0,0"
         id="path89" />
      <path
         style="fill:#211e1e;fill-opacity:1;fill-rule:nonzero;stroke:none"
         d="m 164.45703,2.746094 h 1.12891 v 7.558594 h -1.12891 z m 0,0"
         id="path91" />
      <path
         style="fill:#211e1e;fill-opacity:1;fill-rule:nonzero;stroke:none"
         d="m 168.31641,9.632812 c 0,0.195313 -0.0625,0.359376 -0.1836,0.492188 -0.125,0.132812 -0.27734,0.199219 -0.45703,0.199219 -0.19141,0 -0.34766,-0.06641 -0.46484,-0.199219 -0.11719,-0.132812 -0.17578,-0.296875 -0.17578,-0.492188 0,-0.183593 0.0586,-0.347656 0.17578,-0.484374 0.11718,-0.136719 0.27343,-0.203126 0.46484,-0.203126 0.1875,0 0.33984,0.066407 0.46094,0.203126 0.12109,0.136718 0.17969,0.300781 0.17969,0.484374 m 0,-3.75 c 0,0.203126 -0.0625,0.367188 -0.1836,0.496094 -0.125,0.128906 -0.27734,0.195313 -0.45703,0.195313 -0.19141,0 -0.34766,-0.066407 -0.46484,-0.195313 -0.11719,-0.128906 -0.17578,-0.292968 -0.17578,-0.496094 0,-0.183593 0.0586,-0.34375 0.17578,-0.476562 0.11718,-0.136719 0.27343,-0.203125 0.46484,-0.203125 0.1875,0 0.33984,0.066406 0.46094,0.203125 0.12109,0.132812 0.17969,0.292969 0.17969,0.476562"
         id="path93" />
      <path
         style="fill:#211e1e;fill-opacity:1;fill-rule:nonzero;stroke:none"
         d="m 69.050781,14.355469 h -0.03906 l -0.769531,3.507812 h 1.558593 z m 1.25,5.949219 -0.351562,-1.5 h -1.859375 l -0.359375,1.5 H 66.53125 l 1.757812,-7.082032 h 1.53125 l 1.730469,7.082032 z m 0,0"
         id="path95" />
      <path
         style="fill:#211e1e;fill-opacity:1;fill-rule:nonzero;stroke:none"
         d="m 74.78125,17.753906 c 0,-0.246094 -0.01953,-0.472656 -0.05469,-0.683594 -0.03906,-0.210937 -0.08984,-0.394531 -0.160156,-0.550781 -0.07031,-0.15625 -0.160156,-0.28125 -0.269531,-0.371093 -0.113281,-0.08984 -0.238281,-0.132813 -0.375,-0.132813 -0.148437,0 -0.273437,0.04297 -0.382813,0.132813 -0.105468,0.08984 -0.191406,0.214843 -0.257812,0.371093 -0.06641,0.15625 -0.117188,0.339844 -0.152344,0.550781 -0.03125,0.210938 -0.04687,0.4375 -0.04687,0.683594 0,0.242188 0.01563,0.464844 0.04687,0.675782 0.03516,0.210937 0.08594,0.394531 0.152344,0.550781 0.06641,0.15625 0.152344,0.277343 0.257812,0.367187 0.109376,0.08984 0.234376,0.136719 0.382813,0.136719 0.144531,0 0.269531,-0.04687 0.378906,-0.136719 0.105469,-0.08984 0.195313,-0.210937 0.265625,-0.367187 0.07031,-0.15625 0.121094,-0.339844 0.160156,-0.550781 0.03516,-0.210938 0.05469,-0.433594 0.05469,-0.675782 m -0.01953,2.550782 v -0.730469 h -0.01953 c -0.07422,0.253906 -0.199219,0.46875 -0.375,0.640625 -0.179688,0.171875 -0.433594,0.257812 -0.765626,0.257812 -0.261718,0 -0.496093,-0.06641 -0.703124,-0.207031 -0.207032,-0.140625 -0.378907,-0.335937 -0.519532,-0.585937 -0.136718,-0.25 -0.246094,-0.542969 -0.320312,-0.878907 -0.07031,-0.339843 -0.109375,-0.703125 -0.109375,-1.097656 0,-0.386719 0.03516,-0.742187 0.105469,-1.070313 0.07031,-0.324218 0.175781,-0.605468 0.316406,-0.84375 0.140625,-0.238281 0.308594,-0.421874 0.515625,-0.554687 0.203125,-0.132813 0.441406,-0.199219 0.714843,-0.199219 0.277344,0 0.515626,0.07813 0.707032,0.234375 0.195312,0.15625 0.328125,0.351563 0.402344,0.585938 h 0.03125 v -3.109375 h 1.109374 v 7.558594 z m 0,0"
         id="path97" />
      <path
         style="fill:#211e1e;fill-opacity:1;fill-rule:nonzero;stroke:none"
         d="m 79.332031,20.304688 h -1.351562 l -1.351563,-5.101563 h 1.191406 l 0.859376,3.910156 h 0.01953 l 0.832031,-3.910156 h 1.148438 z m 0,0"
         id="path99" />
      <path
         style="fill:#211e1e;fill-opacity:1;fill-rule:nonzero;stroke:none"
         d="m 83.53125,17.914062 h -0.332031 c -0.140625,0 -0.273438,0.01172 -0.402344,0.03516 -0.132813,0.02344 -0.246094,0.07031 -0.347656,0.136719 -0.09766,0.06641 -0.179688,0.15625 -0.238281,0.273437 -0.0625,0.117187 -0.08984,0.265625 -0.08984,0.445313 0,0.265624 0.05859,0.464843 0.175781,0.589843 0.113281,0.125 0.25,0.191407 0.402344,0.191407 0.152343,0 0.285156,-0.04297 0.390625,-0.132813 0.109375,-0.08594 0.191406,-0.195313 0.253906,-0.328125 0.06641,-0.132812 0.113281,-0.28125 0.140625,-0.445312 0.03125,-0.164063 0.04687,-0.324219 0.04687,-0.476563 z m 0.03906,1.628907 c -0.07422,0.28125 -0.207031,0.5 -0.398437,0.65625 -0.195313,0.15625 -0.453125,0.234375 -0.773437,0.234375 -0.144532,0 -0.296876,-0.02734 -0.449219,-0.07813 -0.152344,-0.05469 -0.289063,-0.144531 -0.414063,-0.265625 -0.125,-0.125 -0.226562,-0.285156 -0.304687,-0.480469 -0.08203,-0.195313 -0.121094,-0.433594 -0.121094,-0.714844 0,-0.359375 0.06641,-0.65625 0.195313,-0.886719 0.128906,-0.230468 0.296874,-0.410156 0.5,-0.542968 0.203124,-0.132813 0.429687,-0.226563 0.679687,-0.277344 0.25,-0.04687 0.496094,-0.07422 0.734375,-0.07422 H 83.5 v -0.160156 c 0,-0.339844 -0.07031,-0.585937 -0.203125,-0.734375 -0.136719,-0.148438 -0.320313,-0.226562 -0.546875,-0.226562 -0.195312,0 -0.367188,0.04687 -0.523438,0.136718 -0.160156,0.08984 -0.292968,0.207032 -0.40625,0.355469 L 81.28125,15.773438 c 0.1875,-0.230469 0.421875,-0.414063 0.710938,-0.542969 0.285156,-0.132813 0.566406,-0.195313 0.847656,-0.195313 0.3125,0 0.578125,0.05078 0.796875,0.148438 0.214843,0.101562 0.390625,0.246094 0.523437,0.433594 0.132813,0.191406 0.226563,0.425781 0.285156,0.707031 0.05859,0.28125 0.08594,0.597656 0.08594,0.949219 v 3.03125 h -0.941406 v -0.761719 z m 0,0"
         id="path101" />
      <path
         style="fill:#211e1e;fill-opacity:1;fill-rule:nonzero;stroke:none"
         d="m 86.941406,15.203125 v 0.8125 h 0.01953 c 0.09375,-0.273437 0.246093,-0.507813 0.464843,-0.695313 0.214844,-0.191406 0.484375,-0.285156 0.804688,-0.285156 0.28125,0 0.503906,0.05859 0.675781,0.175782 0.167969,0.113281 0.300781,0.269531 0.394531,0.464843 0.09375,0.191407 0.15625,0.414063 0.191407,0.664063 0.03125,0.25 0.04687,0.503906 0.04687,0.765625 v 3.199219 H 88.41015 v -3.199219 c 0,-0.128907 -0.0078,-0.257813 -0.01953,-0.386719 -0.01172,-0.128906 -0.04297,-0.246094 -0.08594,-0.355469 -0.04297,-0.105469 -0.105469,-0.191406 -0.1875,-0.253906 -0.08594,-0.0625 -0.195313,-0.09375 -0.328126,-0.09375 -0.25,0 -0.453124,0.125 -0.605468,0.378906 -0.148438,0.253907 -0.222656,0.574219 -0.222656,0.960938 v 2.949219 h -1.128907 v -5.101563 z m 0,0"
         id="path103" />
      <path
         style="fill:#211e1e;fill-opacity:1;fill-rule:nonzero;stroke:none"
         d="m 93.160156,20.347656 c -0.199218,0.08594 -0.425781,0.125 -0.679687,0.125 -0.3125,0 -0.589844,-0.06641 -0.832031,-0.199218 -0.242188,-0.132813 -0.441407,-0.320313 -0.605469,-0.5625 -0.160157,-0.246094 -0.28125,-0.53125 -0.363281,-0.867188 -0.07813,-0.332031 -0.121094,-0.699219 -0.121094,-1.101562 0,-0.398438 0.04297,-0.765626 0.128906,-1.097657 0.08203,-0.332031 0.207031,-0.621093 0.371094,-0.859375 0.164062,-0.242187 0.367187,-0.425781 0.605468,-0.554687 0.238282,-0.132813 0.511719,-0.195313 0.824219,-0.195313 0.277344,0 0.511719,0.04687 0.707031,0.140625 0.195313,0.08984 0.351563,0.195313 0.464844,0.308594 l -0.511718,0.851563 c -0.07031,-0.08203 -0.15625,-0.148438 -0.253907,-0.203126 -0.09766,-0.05078 -0.214843,-0.07812 -0.355469,-0.07812 -0.277343,0 -0.492187,0.15625 -0.632812,0.464843 -0.144531,0.308594 -0.214844,0.71875 -0.214844,1.222657 0,0.507812 0.07422,0.914062 0.21875,1.222656 0.144532,0.304687 0.371094,0.460937 0.671875,0.460937 0.136719,0 0.257813,-0.02734 0.359375,-0.08203 0.09766,-0.05078 0.1875,-0.125 0.257813,-0.21875 l 0.472656,0.878906 c -0.140625,0.148438 -0.3125,0.261719 -0.511719,0.34375"
         id="path105" />
      <path
         style="fill:#211e1e;fill-opacity:1;fill-rule:nonzero;stroke:none"
         d="m 96.75,17.222656 c 0,-0.378906 -0.05859,-0.6875 -0.179688,-0.921875 -0.121093,-0.238281 -0.308593,-0.355469 -0.558593,-0.355469 -0.148438,0 -0.273438,0.04297 -0.375,0.128907 -0.105469,0.08594 -0.1875,0.195312 -0.25,0.324219 -0.06641,0.128906 -0.113281,0.269531 -0.148438,0.421874 -0.03125,0.148438 -0.04687,0.285157 -0.04687,0.402344 z m -1.570312,0.820313 c 0,0.199219 0.01953,0.390625 0.05859,0.566406 0.04297,0.175781 0.101563,0.328125 0.175781,0.460937 0.07813,0.128907 0.171876,0.234376 0.28125,0.308594 0.109376,0.07813 0.238282,0.113282 0.382813,0.113282 0.207031,0 0.375,-0.0625 0.496094,-0.199219 0.125,-0.132813 0.222656,-0.285157 0.296875,-0.457031 l 0.828125,0.476562 c -0.144531,0.355469 -0.355469,0.636719 -0.625,0.847656 -0.269531,0.207032 -0.613281,0.3125 -1.035157,0.3125 -0.59375,0 -1.070312,-0.230468 -1.429687,-0.699218 -0.359375,-0.464844 -0.539063,-1.136719 -0.539063,-2.007813 0,-0.410156 0.04688,-0.78125 0.140626,-1.117187 0.09375,-0.335938 0.226562,-0.625 0.398437,-0.863282 0.171875,-0.242187 0.378906,-0.425781 0.617187,-0.554687 0.234376,-0.132813 0.5,-0.195313 0.792969,-0.195313 0.328125,0 0.605469,0.06641 0.835938,0.199219 0.230469,0.132813 0.414062,0.316406 0.558593,0.542969 0.144532,0.230468 0.25,0.503906 0.316407,0.816406 0.06641,0.3125 0.09766,0.652344 0.09766,1.019531 v 0.429688 z m 0,0"
         id="path107" />
      <path
         style="fill:#211e1e;fill-opacity:1;fill-rule:nonzero;stroke:none"
         d="m 101.37891,17.753906 c 0,-0.246094 -0.0195,-0.472656 -0.0547,-0.683594 -0.0352,-0.210937 -0.0898,-0.394531 -0.16016,-0.550781 -0.0703,-0.15625 -0.16015,-0.28125 -0.26953,-0.371093 -0.10937,-0.08984 -0.23437,-0.132813 -0.375,-0.132813 -0.14844,0 -0.27344,0.04297 -0.3789,0.132813 -0.10938,0.08984 -0.195318,0.214843 -0.261724,0.371093 -0.06641,0.15625 -0.117187,0.339844 -0.148437,0.550781 -0.03516,0.210938 -0.05078,0.4375 -0.05078,0.683594 0,0.242188 0.01562,0.464844 0.05078,0.675782 0.03125,0.210937 0.08203,0.394531 0.148437,0.550781 0.06641,0.15625 0.152344,0.277343 0.261724,0.367187 0.10546,0.08984 0.23046,0.136719 0.3789,0.136719 0.14844,0 0.27344,-0.04687 0.37891,-0.136719 0.10937,-0.08984 0.19531,-0.210937 0.26562,-0.367187 0.0703,-0.15625 0.125,-0.339844 0.16016,-0.550781 0.0352,-0.210938 0.0547,-0.433594 0.0547,-0.675782 m -0.0195,2.550782 v -0.730469 h -0.0195 c -0.0742,0.253906 -0.19921,0.46875 -0.375,0.640625 -0.17578,0.171875 -0.43359,0.257812 -0.76562,0.257812 -0.257814,0 -0.492189,-0.06641 -0.69922,-0.207031 -0.207031,-0.140625 -0.378906,-0.335937 -0.519531,-0.585937 -0.140625,-0.25 -0.246094,-0.542969 -0.320313,-0.878907 -0.07422,-0.339843 -0.109375,-0.703125 -0.109375,-1.097656 0,-0.386719 0.03516,-0.742187 0.105469,-1.070313 0.07031,-0.324218 0.171875,-0.605468 0.3125,-0.84375 0.140625,-0.238281 0.3125,-0.421874 0.515625,-0.554687 0.203125,-0.132813 0.441406,-0.199219 0.714845,-0.199219 0.28125,0 0.51562,0.07813 0.71094,0.234375 0.1914,0.15625 0.32422,0.351563 0.39843,0.585938 h 0.0312 v -3.109375 h 1.10938 v 7.558594 z m 0,0"
         id="path109" />
      <path
         style="fill:#211e1e;fill-opacity:1;fill-rule:nonzero;stroke:none"
         d="m 108.62109,15.328125 c 0,-0.375 -0.0898,-0.652344 -0.27343,-0.824219 -0.17969,-0.171875 -0.40625,-0.257812 -0.6875,-0.257812 h -0.67969 v 2.238281 h 0.67969 c 0.28125,0 0.50781,-0.09766 0.6875,-0.292969 0.18359,-0.195312 0.27343,-0.484375 0.27343,-0.863281 M 109.75,15.3125 c 0,0.363281 -0.0547,0.675781 -0.16406,0.945312 -0.10938,0.273438 -0.25391,0.496094 -0.4336,0.675782 -0.17968,0.179687 -0.38671,0.3125 -0.61718,0.398437 -0.23438,0.08984 -0.47266,0.132813 -0.71875,0.132813 h -0.83594 v 2.839844 h -1.17969 v -7.082032 h 1.95313 c 0.22656,0 0.46093,0.03516 0.69922,0.101563 0.23828,0.06641 0.45312,0.179687 0.64062,0.34375 0.19141,0.164062 0.34766,0.378906 0.47266,0.644531 0.12109,0.269531 0.18359,0.601562 0.18359,1"
         id="path111" />
      <path
         style="fill:#211e1e;fill-opacity:1;fill-rule:nonzero;stroke:none"
         d="m 112.03125,15.324219 c 0.1875,-0.191407 0.40625,-0.289063 0.65625,-0.289063 h 0.0859 c 0.0234,0 0.0547,0.0078 0.0859,0.01953 l -0.0586,1.160156 c -0.0742,-0.01953 -0.15625,-0.03125 -0.24219,-0.03125 -0.14453,0 -0.27343,0.04687 -0.38671,0.136718 -0.11719,0.08984 -0.21094,0.207032 -0.29297,0.355469 -0.0781,0.144531 -0.13672,0.3125 -0.17969,0.5 -0.0391,0.183594 -0.0586,0.375 -0.0586,0.570313 v 2.558594 h -1.14844 v -5.101563 h 1.10547 v 0.980469 h 0.0234 c 0.0859,-0.378906 0.22266,-0.667969 0.41016,-0.859375"
         id="path113" />
      <path
         style="fill:#211e1e;fill-opacity:1;fill-rule:nonzero;stroke:none"
         d="m 115.98047,17.753906 c 0,-0.246094 -0.0195,-0.472656 -0.0508,-0.683594 -0.0312,-0.210937 -0.0859,-0.394531 -0.15625,-0.550781 -0.0703,-0.15625 -0.15625,-0.28125 -0.25781,-0.371093 -0.10547,-0.08984 -0.23047,-0.132813 -0.375,-0.132813 -0.14844,0 -0.27344,0.04297 -0.375,0.132813 -0.10547,0.08984 -0.1875,0.214843 -0.25782,0.371093 -0.0664,0.15625 -0.11718,0.339844 -0.14843,0.550781 -0.0312,0.210938 -0.0508,0.4375 -0.0508,0.683594 0,0.242188 0.0195,0.464844 0.0508,0.679688 0.0312,0.214844 0.082,0.398437 0.14843,0.550781 0.0703,0.152344 0.15235,0.273437 0.25782,0.363281 0.10156,0.08984 0.22656,0.136719 0.375,0.136719 0.14453,0 0.27343,-0.04687 0.3789,-0.136719 0.10547,-0.08984 0.19141,-0.210937 0.26172,-0.363281 0.0625,-0.152344 0.11719,-0.335937 0.14844,-0.550781 0.0312,-0.214844 0.0508,-0.4375 0.0508,-0.679688 m 1.12891,0.01172 c 0,0.398437 -0.043,0.765625 -0.13672,1.097656 -0.0898,0.335938 -0.21875,0.617188 -0.39063,0.855469 -0.16797,0.238281 -0.375,0.421875 -0.61719,0.554688 -0.23828,0.132812 -0.51171,0.199218 -0.82031,0.199218 -0.30859,0 -0.58203,-0.06641 -0.82031,-0.199218 -0.24219,-0.132813 -0.44922,-0.316407 -0.61719,-0.554688 -0.17187,-0.238281 -0.30078,-0.519531 -0.39062,-0.855469 -0.0937,-0.332031 -0.13672,-0.699219 -0.13672,-1.097656 0,-0.410156 0.043,-0.78125 0.13672,-1.117187 0.0898,-0.335938 0.21875,-0.625 0.38672,-0.863282 0.16406,-0.242187 0.37109,-0.425781 0.61328,-0.554687 0.24609,-0.132813 0.51953,-0.195313 0.82812,-0.195313 0.3086,0 0.58203,0.0625 0.82031,0.195313 0.24219,0.128906 0.44922,0.3125 0.61719,0.554687 0.17188,0.238282 0.30078,0.527344 0.39063,0.863282 0.0937,0.335937 0.13672,0.707031 0.13672,1.117187"
         id="path115" />
      <path
         style="fill:#211e1e;fill-opacity:1;fill-rule:nonzero;stroke:none"
         d="m 120.66797,17.742188 c 0,-0.238282 -0.0195,-0.464844 -0.0547,-0.679688 -0.0352,-0.210938 -0.0898,-0.394531 -0.16015,-0.546875 -0.0703,-0.15625 -0.15625,-0.277344 -0.26172,-0.367187 -0.10938,-0.08984 -0.23438,-0.132813 -0.3711,-0.132813 -0.14843,0 -0.27343,0.04297 -0.3789,0.132813 -0.10938,0.08984 -0.19532,0.210937 -0.26172,0.367187 -0.0664,0.152344 -0.11719,0.335937 -0.15235,0.546875 -0.0312,0.214844 -0.0469,0.441406 -0.0469,0.679688 0,0.242187 0.0156,0.46875 0.0469,0.683593 0.0352,0.210938 0.0859,0.398438 0.15235,0.554688 0.0664,0.15625 0.15234,0.277343 0.26172,0.367187 0.10547,0.08984 0.23047,0.136719 0.3789,0.136719 0.13672,0 0.26172,-0.04687 0.3711,-0.136719 0.10547,-0.08984 0.1914,-0.210937 0.26172,-0.367187 0.0703,-0.15625 0.125,-0.34375 0.16015,-0.554688 0.0352,-0.214843 0.0547,-0.441406 0.0547,-0.683593 m 1.07031,2.421874 c 0,0.378907 -0.0352,0.726563 -0.10937,1.035157 -0.0742,0.308593 -0.19141,0.578125 -0.35938,0.800781 -0.16797,0.222656 -0.3789,0.394531 -0.64062,0.519531 -0.26172,0.121094 -0.57422,0.183594 -0.94922,0.183594 -0.35547,0 -0.69141,-0.06641 -1.01172,-0.203125 -0.31641,-0.136719 -0.58203,-0.320312 -0.78906,-0.546875 l 0.60937,-0.808594 c 0.14844,0.160157 0.32031,0.292969 0.51563,0.398438 0.19531,0.109375 0.41015,0.160156 0.64453,0.160156 0.1875,0 0.34375,-0.03906 0.46875,-0.113281 0.1289,-0.07813 0.23047,-0.179688 0.30859,-0.3125 0.0742,-0.128906 0.12891,-0.28125 0.16406,-0.457032 0.0312,-0.179687 0.0508,-0.371093 0.0508,-0.578124 V 19.625 h -0.0234 c -0.0703,0.226562 -0.20703,0.417969 -0.40235,0.574219 -0.19531,0.15625 -0.4375,0.234375 -0.71484,0.234375 -0.27344,0 -0.51562,-0.06641 -0.72266,-0.199219 -0.20703,-0.132813 -0.3789,-0.320313 -0.51171,-0.558594 -0.13672,-0.242187 -0.24219,-0.523437 -0.3125,-0.851562 -0.0703,-0.328125 -0.10157,-0.683594 -0.10157,-1.070313 0,-0.394531 0.0352,-0.757812 0.10547,-1.089844 0.0742,-0.332031 0.1836,-0.621093 0.32031,-0.859374 0.14063,-0.242188 0.3125,-0.429688 0.51563,-0.566407 0.20312,-0.136719 0.4375,-0.203125 0.70703,-0.203125 0.32422,0 0.57422,0.08203 0.75,0.253906 0.17188,0.171876 0.30078,0.382813 0.37891,0.636719 h 0.0312 v -0.722656 h 1.07812 z m 0,0"
         id="path117" />
      <path
         style="fill:#211e1e;fill-opacity:1;fill-rule:nonzero;stroke:none"
         d="m 124.64844,15.324219 c 0.1875,-0.191407 0.40625,-0.289063 0.66015,-0.289063 h 0.0859 c 0.0234,0 0.0508,0.0078 0.0859,0.01953 l -0.0625,1.160156 c -0.0742,-0.01953 -0.15234,-0.03125 -0.23828,-0.03125 -0.14844,0 -0.27735,0.04687 -0.39063,0.136718 -0.11328,0.08984 -0.21093,0.207032 -0.28906,0.355469 -0.082,0.144531 -0.14062,0.3125 -0.17969,0.5 -0.0391,0.183594 -0.0625,0.375 -0.0625,0.570313 v 2.558594 h -1.14843 v -5.101563 h 1.10937 v 0.980469 h 0.0195 c 0.0898,-0.378906 0.22266,-0.667969 0.41016,-0.859375"
         id="path119" />
      <path
         style="fill:#211e1e;fill-opacity:1;fill-rule:nonzero;stroke:none"
         d="m 128.16797,17.914062 h -0.32813 c -0.14062,0 -0.27343,0.01172 -0.40625,0.03516 -0.1289,0.02344 -0.24218,0.07031 -0.34375,0.136719 -0.10156,0.06641 -0.17968,0.15625 -0.23828,0.273437 -0.0625,0.117187 -0.0937,0.265625 -0.0937,0.445313 0,0.265624 0.0586,0.464843 0.17578,0.589843 0.11719,0.125 0.25391,0.191407 0.40625,0.191407 0.15235,0 0.28125,-0.04297 0.39063,-0.132813 0.10547,-0.08594 0.19141,-0.195313 0.25391,-0.328125 0.0625,-0.132812 0.10937,-0.28125 0.14062,-0.445312 0.0273,-0.164063 0.043,-0.324219 0.043,-0.476563 z m 0.0391,1.628907 c -0.0703,0.28125 -0.20312,0.5 -0.39844,0.65625 -0.1914,0.15625 -0.44921,0.234375 -0.76953,0.234375 -0.14453,0 -0.29687,-0.02734 -0.44922,-0.07813 -0.15234,-0.05469 -0.29296,-0.144531 -0.41406,-0.265625 -0.125,-0.125 -0.22656,-0.285156 -0.30859,-0.480469 -0.0781,-0.195313 -0.11719,-0.433594 -0.11719,-0.714844 0,-0.359375 0.0664,-0.65625 0.19531,-0.886719 0.12891,-0.230468 0.29688,-0.410156 0.5,-0.542968 0.20313,-0.132813 0.42969,-0.226563 0.67969,-0.277344 0.25,-0.04687 0.49219,-0.07422 0.73438,-0.07422 h 0.28124 v -0.160156 c 0,-0.339844 -0.0703,-0.585937 -0.20703,-0.734375 -0.13671,-0.148438 -0.3164,-0.226562 -0.54296,-0.226562 -0.19532,0 -0.3711,0.04687 -0.52735,0.136718 -0.15625,0.08984 -0.29297,0.207032 -0.40625,0.355469 l -0.53906,-0.710937 c 0.1875,-0.230469 0.42578,-0.414063 0.71094,-0.542969 0.28515,-0.132813 0.57031,-0.195313 0.85156,-0.195313 0.3125,0 0.57812,0.05078 0.79297,0.148438 0.21875,0.101562 0.39062,0.246094 0.52734,0.433594 0.13281,0.191406 0.22656,0.425781 0.28125,0.707031 0.0586,0.28125 0.0859,0.597656 0.0859,0.949219 v 3.03125 h -0.9375 v -0.761719 z m 0,0"
         id="path121" />
      <path
         style="fill:#211e1e;fill-opacity:1;fill-rule:nonzero;stroke:none"
         d="m 132.03125,15.320312 c 0.21094,-0.191406 0.48047,-0.285156 0.8125,-0.285156 0.17969,0 0.33594,0.02734 0.46875,0.07813 0.13281,0.05469 0.24609,0.125 0.33594,0.214844 0.0977,0.08984 0.17187,0.195313 0.23828,0.316406 0.0625,0.121094 0.10937,0.242188 0.14062,0.371094 h 0.0234 c 0.0391,-0.121094 0.0977,-0.238281 0.17188,-0.355469 0.0781,-0.117187 0.17187,-0.222656 0.28125,-0.316406 0.10937,-0.09375 0.23828,-0.167969 0.38671,-0.222656 0.14454,-0.05859 0.3125,-0.08594 0.5,-0.08594 0.27735,0 0.50391,0.05859 0.67188,0.175782 0.17187,0.113281 0.30469,0.269531 0.39844,0.464843 0.0937,0.191407 0.15625,0.414063 0.1875,0.664063 0.0352,0.25 0.0508,0.503906 0.0508,0.765625 v 3.199219 h -1.12891 v -3.199219 c 0,-0.128907 -0.008,-0.257813 -0.0195,-0.386719 -0.0156,-0.128906 -0.043,-0.25 -0.0859,-0.355469 -0.043,-0.105469 -0.10937,-0.191406 -0.1914,-0.253906 -0.082,-0.0625 -0.19141,-0.09375 -0.32422,-0.09375 -0.25391,0 -0.45313,0.125 -0.60547,0.378906 -0.14844,0.253907 -0.22266,0.574219 -0.22266,0.960938 v 2.949219 h -1.10937 v -3.199219 c 0,-0.128907 -0.008,-0.257813 -0.0234,-0.386719 -0.0117,-0.128906 -0.0391,-0.25 -0.082,-0.355469 -0.043,-0.105469 -0.10547,-0.191406 -0.18359,-0.253906 -0.082,-0.0625 -0.1875,-0.09375 -0.32032,-0.09375 -0.25,0 -0.44531,0.125 -0.58984,0.378906 -0.14063,0.253907 -0.21484,0.570313 -0.21484,0.949219 v 2.960938 h -1.12891 v -5.101563 h 1.12109 v 0.8125 h 0.0195 c 0.0742,-0.273437 0.21485,-0.507813 0.42188,-0.695313"
         id="path123" />
      <path
         style="fill:#211e1e;fill-opacity:1;fill-rule:nonzero;stroke:none"
         d="m 139.60156,15.320312 c 0.21094,-0.191406 0.48047,-0.285156 0.8125,-0.285156 0.17969,0 0.33594,0.02734 0.46875,0.07813 0.13281,0.05469 0.2461,0.125 0.33594,0.214844 0.0937,0.08984 0.17187,0.195313 0.23828,0.316406 0.0586,0.121094 0.10938,0.242188 0.14063,0.371094 h 0.0234 c 0.0391,-0.121094 0.0977,-0.238281 0.17188,-0.355469 0.0781,-0.117187 0.17187,-0.222656 0.28125,-0.316406 0.10937,-0.09375 0.23828,-0.167969 0.38281,-0.222656 0.14844,-0.05859 0.31641,-0.08594 0.5,-0.08594 0.28125,0 0.50781,0.05859 0.67578,0.175782 0.17188,0.113281 0.30078,0.269531 0.39844,0.464843 0.0898,0.191407 0.15234,0.414063 0.1875,0.664063 0.0312,0.25 0.0508,0.503906 0.0508,0.765625 v 3.199219 h -1.13281 v -3.199219 c 0,-0.128907 -0.004,-0.257813 -0.0156,-0.386719 -0.0156,-0.128906 -0.043,-0.25 -0.0859,-0.355469 -0.043,-0.105469 -0.10938,-0.191406 -0.19141,-0.253906 -0.082,-0.0625 -0.19141,-0.09375 -0.32422,-0.09375 -0.25391,0 -0.45312,0.125 -0.60547,0.378906 -0.15234,0.253907 -0.22265,0.574219 -0.22265,0.960938 v 2.949219 h -1.11329 v -3.199219 c 0,-0.128907 -0.004,-0.257813 -0.0195,-0.386719 -0.0117,-0.128906 -0.043,-0.25 -0.0859,-0.355469 -0.043,-0.105469 -0.10157,-0.191406 -0.1836,-0.253906 -0.0781,-0.0625 -0.18359,-0.09375 -0.3164,-0.09375 -0.25,0 -0.44922,0.125 -0.58985,0.378906 -0.14062,0.253907 -0.21484,0.570313 -0.21484,0.949219 v 2.960938 h -1.12891 v -5.101563 h 1.1211 v 0.8125 h 0.0195 c 0.0703,-0.273437 0.21484,-0.507813 0.42187,-0.695313"
         id="path125" />
      <path
         style="fill:#211e1e;fill-opacity:1;fill-rule:nonzero;stroke:none"
         d="m 145.58984,15.203125 h 1.12891 v 5.101563 h -1.12891 z m 1.21875,-1.480469 c 0,0.203125 -0.0625,0.367188 -0.1914,0.5 -0.125,0.136719 -0.28125,0.203125 -0.46875,0.203125 -0.19532,0 -0.35157,-0.06641 -0.47266,-0.203125 -0.125,-0.132812 -0.1875,-0.296875 -0.1875,-0.5 0,-0.191406 0.0625,-0.359375 0.1875,-0.5 0.12109,-0.140625 0.27734,-0.207031 0.47266,-0.207031 0.19531,0 0.35156,0.06641 0.47656,0.207031 0.12109,0.140625 0.18359,0.308594 0.18359,0.5"
         id="path127" />
      <path
         style="fill:#211e1e;fill-opacity:1;fill-rule:nonzero;stroke:none"
         d="m 149.19922,15.203125 v 0.8125 h 0.0195 c 0.0937,-0.273437 0.25,-0.507813 0.46484,-0.695313 0.21485,-0.191406 0.48438,-0.285156 0.80469,-0.285156 0.28125,0 0.50781,0.05859 0.67578,0.175782 0.17188,0.113281 0.30078,0.269531 0.39453,0.464843 0.0937,0.191407 0.15625,0.414063 0.19141,0.664063 0.0312,0.25 0.0508,0.503906 0.0508,0.765625 v 3.199219 h -1.13281 v -3.199219 c 0,-0.128907 -0.004,-0.257813 -0.0195,-0.386719 -0.0117,-0.128906 -0.043,-0.246094 -0.0859,-0.355469 -0.043,-0.105469 -0.10547,-0.191406 -0.1875,-0.253906 -0.0859,-0.0625 -0.19141,-0.09375 -0.32422,-0.09375 -0.25391,0 -0.45703,0.125 -0.60547,0.378906 -0.15234,0.253907 -0.22656,0.574219 -0.22656,0.960938 v 2.949219 h -1.12891 v -5.101563 z m 0,0"
         id="path129" />
      <path
         style="fill:#211e1e;fill-opacity:1;fill-rule:nonzero;stroke:none"
         d="m 155.62891,17.742188 c 0,-0.238282 -0.0195,-0.464844 -0.0547,-0.679688 -0.0391,-0.210938 -0.0898,-0.394531 -0.16016,-0.546875 -0.0703,-0.15625 -0.16015,-0.277344 -0.26562,-0.367187 -0.10547,-0.08984 -0.23047,-0.132813 -0.3711,-0.132813 -0.14453,0 -0.27343,0.04297 -0.3789,0.132813 -0.10547,0.08984 -0.19532,0.210937 -0.25782,0.367187 -0.0703,0.152344 -0.11718,0.335937 -0.15234,0.546875 -0.0352,0.214844 -0.0508,0.441406 -0.0508,0.679688 0,0.242187 0.0156,0.46875 0.0508,0.683593 0.0352,0.210938 0.082,0.398438 0.15234,0.554688 0.0625,0.15625 0.15235,0.277343 0.25782,0.367187 0.10547,0.08984 0.23437,0.136719 0.3789,0.136719 0.14063,0 0.26563,-0.04687 0.3711,-0.136719 0.10547,-0.08984 0.19531,-0.210937 0.26562,-0.367187 0.0703,-0.15625 0.1211,-0.34375 0.16016,-0.554688 0.0352,-0.214843 0.0547,-0.441406 0.0547,-0.683593 m 1.07031,2.421874 c 0,0.378907 -0.0391,0.726563 -0.10938,1.035157 -0.0742,0.308593 -0.19531,0.578125 -0.35937,0.800781 -0.16797,0.222656 -0.38281,0.394531 -0.64063,0.519531 -0.26172,0.121094 -0.57812,0.183594 -0.94922,0.183594 -0.35546,0 -0.6914,-0.06641 -1.01171,-0.203125 -0.32032,-0.136719 -0.58594,-0.320312 -0.78907,-0.546875 l 0.60938,-0.808594 c 0.14844,0.160157 0.3164,0.292969 0.51562,0.398438 0.19532,0.109375 0.41016,0.160156 0.64453,0.160156 0.1836,0 0.34375,-0.03906 0.46875,-0.113281 0.125,-0.07813 0.23047,-0.179688 0.30469,-0.3125 0.0781,-0.128906 0.13281,-0.28125 0.16797,-0.457032 0.0312,-0.179687 0.0469,-0.371093 0.0469,-0.578124 V 19.625 h -0.0195 c -0.0742,0.226562 -0.20703,0.417969 -0.40234,0.574219 -0.19922,0.15625 -0.4375,0.234375 -0.71875,0.234375 -0.26953,0 -0.51172,-0.06641 -0.71875,-0.199219 -0.20703,-0.132813 -0.37891,-0.320313 -0.51562,-0.558594 -0.13672,-0.242187 -0.23829,-0.523437 -0.3086,-0.851562 -0.0703,-0.328125 -0.10547,-0.683594 -0.10547,-1.070313 0,-0.394531 0.0391,-0.757812 0.10938,-1.089844 0.0742,-0.332031 0.17969,-0.621093 0.32031,-0.859374 0.14063,-0.242188 0.3125,-0.429688 0.51563,-0.566407 0.20312,-0.136719 0.4375,-0.203125 0.70312,-0.203125 0.32813,0 0.57813,0.08203 0.75,0.253906 0.17578,0.171876 0.30078,0.382813 0.38281,0.636719 h 0.0273 v -0.722656 h 1.08203 z m 0,0"
         id="path131" />
      <path
         style="fill:#211e1e;fill-opacity:1;fill-rule:nonzero;stroke:none"
         d="m 71.449219,28.84375 c -0.07813,0.328125 -0.210938,0.613281 -0.390625,0.855469 -0.179688,0.242187 -0.410156,0.433593 -0.695313,0.574219 -0.28125,0.140624 -0.625,0.210937 -1.03125,0.210937 -0.410156,0 -0.75,-0.07031 -1.03125,-0.210937 -0.28125,-0.140626 -0.507812,-0.332032 -0.6875,-0.574219 C 67.4375,29.457031 67.3125,29.171875 67.234375,28.84375 67.15625,28.515625 67.121094,28.167969 67.121094,27.792969 v -4.570313 h 1.199218 v 4.460938 c 0,0.21875 0.01563,0.429687 0.04297,0.636718 0.03125,0.203126 0.08594,0.378907 0.160157,0.535157 0.07812,0.152343 0.183593,0.273437 0.316406,0.363281 0.132812,0.08984 0.304687,0.136719 0.511718,0.136719 0.203126,0 0.375,-0.04687 0.507813,-0.136719 0.132813,-0.08984 0.238281,-0.210938 0.316406,-0.363281 0.07813,-0.15625 0.128907,-0.332031 0.160157,-0.535157 0.02734,-0.207031 0.04297,-0.417968 0.04297,-0.636718 v -4.460938 h 1.191406 v 4.570313 c 0,0.375 -0.03906,0.722656 -0.121093,1.050781"
         id="path133" />
      <path
         style="fill:#211e1e;fill-opacity:1;fill-rule:nonzero;stroke:none"
         d="m 75.03125,26.355469 c -0.09375,-0.128907 -0.210938,-0.230469 -0.351562,-0.3125 -0.140626,-0.07813 -0.300782,-0.117188 -0.480469,-0.117188 -0.164063,0 -0.304688,0.05469 -0.417969,0.171875 -0.113281,0.117188 -0.171875,0.273438 -0.171875,0.464844 0,0.203125 0.0625,0.347656 0.179687,0.4375 0.121094,0.08984 0.3125,0.179688 0.570313,0.273438 0.148437,0.05469 0.292969,0.121093 0.4375,0.195312 0.140625,0.07813 0.269531,0.175781 0.386719,0.296875 0.117187,0.117187 0.210937,0.261719 0.28125,0.433594 0.07031,0.167969 0.105468,0.371093 0.105468,0.605469 0,0.28125 -0.04687,0.523437 -0.136718,0.734374 -0.08984,0.210938 -0.210938,0.386719 -0.363282,0.523438 -0.152343,0.140625 -0.328124,0.246094 -0.523437,0.3125 -0.199219,0.06641 -0.402344,0.09766 -0.617187,0.09766 -0.320313,0 -0.617188,-0.0625 -0.894532,-0.1875 -0.277344,-0.128906 -0.511718,-0.296875 -0.703125,-0.511718 l 0.609375,-0.71875 c 0.117188,0.140624 0.257813,0.257812 0.417969,0.359374 0.160156,0.101563 0.347656,0.148438 0.5625,0.148438 0.183594,0 0.332031,-0.0625 0.4375,-0.1875 0.109375,-0.128906 0.160156,-0.292969 0.160156,-0.5 0,-0.242188 -0.07813,-0.414062 -0.234375,-0.519531 -0.15625,-0.109375 -0.363281,-0.207031 -0.625,-0.300781 -0.132812,-0.04688 -0.261718,-0.105469 -0.390625,-0.171876 -0.125,-0.06641 -0.242187,-0.15625 -0.347656,-0.269531 -0.109375,-0.113281 -0.195313,-0.25 -0.257813,-0.414062 -0.0625,-0.164063 -0.09375,-0.363281 -0.09375,-0.59375 0,-0.25 0.04688,-0.46875 0.136719,-0.660157 0.08984,-0.195312 0.207031,-0.359374 0.351563,-0.496093 0.148437,-0.136719 0.320312,-0.238281 0.511718,-0.308594 0.191407,-0.07031 0.394532,-0.105469 0.601563,-0.105469 0.304687,0 0.582031,0.05469 0.828125,0.164063 0.246094,0.109375 0.457031,0.25 0.628906,0.425781 z m 0,0"
         id="path135" />
      <path
         style="fill:#211e1e;fill-opacity:1;fill-rule:nonzero;stroke:none"
         d="m 76.570312,25.203125 h 1.128907 v 5.101563 h -1.128907 z m 1.21875,-1.480469 c 0,0.203125 -0.0625,0.367188 -0.1875,0.5 -0.128906,0.136719 -0.285156,0.203125 -0.472656,0.203125 -0.191406,0 -0.351562,-0.06641 -0.472656,-0.203125 -0.125,-0.132812 -0.1875,-0.296875 -0.1875,-0.5 0,-0.191406 0.0625,-0.359375 0.1875,-0.5 0.121094,-0.140625 0.28125,-0.207031 0.472656,-0.207031 0.195313,0 0.351563,0.06641 0.476563,0.207031 0.125,0.140625 0.183593,0.308594 0.183593,0.5"
         id="path137" />
      <path
         style="fill:#211e1e;fill-opacity:1;fill-rule:nonzero;stroke:none"
         d="m 80.179688,25.203125 v 0.8125 h 0.01953 c 0.09375,-0.273437 0.25,-0.507813 0.464843,-0.695313 0.21875,-0.191406 0.484376,-0.285156 0.804688,-0.285156 0.28125,0 0.507812,0.05859 0.675781,0.175782 0.171875,0.113281 0.300781,0.269531 0.394531,0.464843 0.09375,0.191407 0.15625,0.414063 0.191407,0.664063 0.03125,0.25 0.05078,0.503906 0.05078,0.765625 v 3.199219 h -1.132812 v -3.199219 c 0,-0.128907 -0.0039,-0.257813 -0.01953,-0.386719 -0.01172,-0.128906 -0.03906,-0.246094 -0.08203,-0.355469 C 81.5,26.257812 81.4375,26.171875 81.355469,26.109375 c -0.08594,-0.0625 -0.191407,-0.09375 -0.324219,-0.09375 -0.253906,0 -0.457031,0.125 -0.605469,0.378906 -0.152343,0.253907 -0.226562,0.574219 -0.226562,0.960938 v 2.949219 h -1.128907 v -5.101563 z m 0,0"
         id="path139" />
      <path
         style="fill:#211e1e;fill-opacity:1;fill-rule:nonzero;stroke:none"
         d="m 86.609375,27.742188 c 0,-0.238282 -0.01953,-0.464844 -0.05469,-0.679688 -0.03516,-0.210938 -0.08984,-0.394531 -0.160157,-0.546875 -0.07031,-0.15625 -0.160156,-0.277344 -0.265625,-0.367187 -0.105468,-0.08984 -0.230468,-0.132813 -0.367187,-0.132813 -0.148438,0 -0.277344,0.04297 -0.382813,0.132813 -0.105468,0.08984 -0.191406,0.210937 -0.257812,0.367187 -0.06641,0.152344 -0.117188,0.335937 -0.152344,0.546875 -0.03125,0.214844 -0.05078,0.441406 -0.05078,0.679688 0,0.242187 0.01953,0.46875 0.05078,0.683593 0.03516,0.210938 0.08594,0.398438 0.152344,0.554688 0.06641,0.15625 0.152344,0.277343 0.257812,0.367187 0.105469,0.08984 0.234375,0.136719 0.382813,0.136719 0.136719,0 0.261719,-0.04687 0.367187,-0.136719 0.105469,-0.08984 0.195313,-0.210937 0.265625,-0.367187 0.07031,-0.15625 0.125,-0.34375 0.160157,-0.554688 0.03516,-0.214843 0.05469,-0.441406 0.05469,-0.683593 m 1.070313,2.421874 c 0,0.378907 -0.03516,0.726563 -0.109376,1.035157 C 87.496094,31.507812 87.375,31.777344 87.210938,32 c -0.167969,0.222656 -0.382813,0.394531 -0.640626,0.519531 -0.261718,0.121094 -0.578124,0.183594 -0.949218,0.183594 -0.355469,0 -0.691406,-0.06641 -1.011719,-0.203125 -0.320313,-0.136719 -0.582031,-0.320312 -0.789063,-0.546875 l 0.609376,-0.808594 c 0.148437,0.160157 0.316406,0.292969 0.515624,0.398438 0.195313,0.109375 0.410157,0.160156 0.644532,0.160156 0.1875,0 0.34375,-0.03906 0.46875,-0.113281 0.128906,-0.07813 0.230468,-0.179688 0.304687,-0.3125 0.07813,-0.128906 0.132813,-0.28125 0.167969,-0.457032 0.03125,-0.179687 0.04687,-0.371093 0.04687,-0.578124 V 29.625 h -0.01953 c -0.07422,0.226562 -0.207032,0.417969 -0.402344,0.574219 -0.199219,0.15625 -0.4375,0.234375 -0.714844,0.234375 -0.273437,0 -0.515625,-0.06641 -0.722656,-0.199219 -0.207031,-0.132813 -0.378906,-0.320313 -0.515625,-0.558594 -0.136719,-0.242187 -0.238281,-0.523437 -0.308594,-0.851562 -0.07031,-0.328125 -0.105469,-0.683594 -0.105469,-1.070313 0,-0.394531 0.03906,-0.757812 0.109376,-1.089844 0.07422,-0.332031 0.179687,-0.621093 0.320312,-0.859374 0.140625,-0.242188 0.3125,-0.429688 0.515625,-0.566407 0.203125,-0.136719 0.4375,-0.203125 0.707031,-0.203125 0.324219,0 0.574219,0.08203 0.75,0.253906 0.171875,0.171876 0.296875,0.382813 0.378906,0.636719 h 0.03125 v -0.722656 h 1.078126 z m 0,0"
         id="path141" />
      <path
         style="fill:#211e1e;fill-opacity:1;fill-rule:nonzero;stroke:none"
         d="M 93.800781,24.59375 C 93.539062,24.28125 93.210938,24.125 92.820312,24.125 c -0.113281,0 -0.222656,0.01563 -0.332031,0.05469 -0.105469,0.03516 -0.203125,0.09375 -0.289062,0.175781 -0.08594,0.07813 -0.15625,0.183593 -0.203125,0.308593 -0.05078,0.128907 -0.07813,0.277344 -0.07813,0.449219 0,0.300781 0.09375,0.53125 0.273437,0.695313 0.179688,0.164062 0.414063,0.320312 0.707032,0.464844 0.175781,0.08594 0.351562,0.1875 0.53125,0.300781 0.179687,0.113281 0.34375,0.25 0.488281,0.410156 0.148437,0.160156 0.269531,0.351563 0.363281,0.570313 0.08984,0.21875 0.136719,0.480468 0.136719,0.78125 0,0.34375 -0.05469,0.652343 -0.164063,0.917968 -0.109375,0.265625 -0.257812,0.492188 -0.4375,0.675782 -0.183594,0.183593 -0.398437,0.320312 -0.648437,0.414062 -0.246094,0.09375 -0.503907,0.140625 -0.777344,0.140625 -0.394531,0 -0.757813,-0.07813 -1.089844,-0.230469 C 90.96875,30.101562 90.699219,29.90625 90.5,29.675781 l 0.648438,-0.882812 c 0.15625,0.1875 0.339843,0.335937 0.554687,0.441406 0.21875,0.105469 0.441406,0.160156 0.667969,0.160156 0.25,0 0.460937,-0.08594 0.628906,-0.261719 0.167969,-0.171874 0.25,-0.414062 0.25,-0.730468 0,-0.304688 -0.101562,-0.546875 -0.300781,-0.726563 -0.199219,-0.179687 -0.453125,-0.347656 -0.757813,-0.5 -0.195312,-0.09375 -0.375,-0.199219 -0.546875,-0.3125 -0.167969,-0.113281 -0.320312,-0.25 -0.449219,-0.402343 -0.128906,-0.160157 -0.234374,-0.339844 -0.308593,-0.550782 -0.07813,-0.210937 -0.117188,-0.460937 -0.117188,-0.757812 0,-0.363282 0.05859,-0.679688 0.175781,-0.941406 0.117188,-0.265626 0.269532,-0.484376 0.460938,-0.65625 0.1875,-0.171876 0.402344,-0.300782 0.644531,-0.386719 0.238281,-0.08203 0.480469,-0.125 0.730469,-0.125 0.359375,0 0.679688,0.05859 0.964844,0.175781 0.28125,0.117188 0.519531,0.289062 0.714844,0.515625 z m 0,0"
         id="path143" />
      <path
         style="fill:#211e1e;fill-opacity:1;fill-rule:nonzero;stroke:none"
         d="m 97.328125,24.355469 h -0.03906 l -0.769531,3.507812 h 1.558594 z m 1.25,5.949219 -0.347656,-1.5 h -1.859375 l -0.363282,1.5 h -1.199218 l 1.761718,-7.082032 h 1.527344 l 1.730469,7.082032 z m 0,0"
         id="path145" />
      <path
         style="fill:#211e1e;fill-opacity:1;fill-rule:nonzero;stroke:none"
         d="m 103.34766,24.59375 c -0.25782,-0.3125 -0.58594,-0.46875 -0.97657,-0.46875 -0.11328,0 -0.22656,0.01563 -0.33203,0.05469 -0.10547,0.03516 -0.20312,0.09375 -0.28906,0.175781 -0.0859,0.07813 -0.15625,0.183593 -0.20703,0.308593 -0.0469,0.128907 -0.0742,0.277344 -0.0742,0.449219 0,0.300781 0.0898,0.53125 0.26953,0.695313 0.17969,0.164062 0.41797,0.320312 0.71094,0.464844 0.17187,0.08594 0.35156,0.1875 0.53125,0.300781 0.17969,0.113281 0.34375,0.25 0.48828,0.410156 0.14844,0.160156 0.26953,0.351563 0.35938,0.570313 0.0937,0.21875 0.14062,0.480468 0.14062,0.78125 0,0.34375 -0.0547,0.652343 -0.16406,0.917968 -0.10938,0.265625 -0.25781,0.492188 -0.44141,0.675782 -0.18359,0.183593 -0.39844,0.320312 -0.64453,0.414062 -0.24609,0.09375 -0.50781,0.140625 -0.77734,0.140625 -0.39453,0 -0.75782,-0.07813 -1.09375,-0.230469 -0.33203,-0.152344 -0.59766,-0.347656 -0.79688,-0.578125 l 0.64844,-0.882812 c 0.15234,0.1875 0.33984,0.335937 0.55469,0.441406 0.21875,0.105469 0.4375,0.160156 0.66406,0.160156 0.25391,0 0.46484,-0.08594 0.63281,-0.261719 0.16406,-0.171874 0.25,-0.414062 0.25,-0.730468 0,-0.304688 -0.10156,-0.546875 -0.30078,-0.726563 -0.19922,-0.179687 -0.45312,-0.347656 -0.76172,-0.5 -0.1914,-0.09375 -0.375,-0.199219 -0.54297,-0.3125 -0.17187,-0.113281 -0.32031,-0.25 -0.44922,-0.402343 -0.13281,-0.160157 -0.23437,-0.339844 -0.3125,-0.550782 -0.0742,-0.210937 -0.11328,-0.460937 -0.11328,-0.757812 0,-0.363282 0.0586,-0.679688 0.17578,-0.941406 0.11719,-0.265626 0.26954,-0.484376 0.45704,-0.65625 0.1914,-0.171876 0.40625,-0.300782 0.64453,-0.386719 0.24218,-0.08203 0.48437,-0.125 0.73047,-0.125 0.36328,0 0.68359,0.05859 0.96484,0.175781 0.28516,0.117188 0.52344,0.289062 0.71484,0.515625 z m 0,0"
         id="path147" />
      <path
         style="fill:#211e1e;fill-opacity:1;fill-rule:nonzero;stroke:none"
         d="m 106.33984,23.796875 c 0,-0.05078 -0.0234,-0.08594 -0.0664,-0.109375 -0.0469,-0.02344 -0.0898,-0.03516 -0.13672,-0.03516 h -0.22266 v 0.3125 h 0.22266 c 0.0547,0 0.10156,-0.01563 0.14062,-0.04687 0.043,-0.03125 0.0625,-0.07031 0.0625,-0.121094 m 0.0352,1.03125 -0.29297,-0.558594 h -0.16797 v 0.558594 H 105.5 V 23.3125 h 0.65234 c 0.0742,0 0.14844,0.0078 0.22266,0.02344 0.0742,0.01562 0.14063,0.04297 0.19922,0.07812 0.0625,0.03906 0.10937,0.08594 0.14844,0.148438 0.0352,0.0625 0.0547,0.140625 0.0547,0.226562 0,0.101563 -0.0312,0.191407 -0.0859,0.261719 -0.0547,0.07031 -0.12891,0.125 -0.21875,0.152344 l 0.38672,0.625 z m 0.83203,-0.726563 c 0,-0.15625 -0.0273,-0.300781 -0.0859,-0.4375 -0.0586,-0.136718 -0.13671,-0.257812 -0.23828,-0.359374 -0.10156,-0.105469 -0.21875,-0.183594 -0.35547,-0.242188 -0.13281,-0.05859 -0.27734,-0.08594 -0.43359,-0.08594 -0.15625,0 -0.30078,0.02734 -0.4375,0.08594 -0.13672,0.05859 -0.25391,0.136719 -0.35937,0.242188 -0.10157,0.101562 -0.1836,0.222656 -0.23829,0.359374 -0.0625,0.136719 -0.0898,0.28125 -0.0898,0.4375 0,0.148438 0.0273,0.292969 0.0898,0.429688 0.0547,0.136719 0.13672,0.253906 0.23829,0.355469 0.10546,0.101562 0.22265,0.179687 0.35937,0.238281 0.13672,0.05859 0.28125,0.08984 0.4375,0.08984 0.15625,0 0.30078,-0.03125 0.43359,-0.08984 0.13672,-0.05859 0.25391,-0.136719 0.35547,-0.238281 0.10157,-0.101563 0.17969,-0.21875 0.23828,-0.355469 0.0586,-0.136719 0.0859,-0.28125 0.0859,-0.429688 m 0.21094,0 c 0,0.179688 -0.0352,0.351563 -0.10547,0.511719 -0.0703,0.160157 -0.16406,0.296875 -0.28125,0.414063 -0.12109,0.117187 -0.25781,0.207031 -0.42187,0.277344 -0.16016,0.06641 -0.33204,0.101562 -0.51563,0.101562 -0.18359,0 -0.35547,-0.03516 -0.51953,-0.101562 -0.16406,-0.07031 -0.30469,-0.160157 -0.42578,-0.277344 -0.1211,-0.117188 -0.21485,-0.253906 -0.28516,-0.414063 -0.0703,-0.160156 -0.10547,-0.332031 -0.10547,-0.511719 0,-0.183593 0.0352,-0.355468 0.10547,-0.519531 0.0703,-0.160156 0.16406,-0.300781 0.28516,-0.417969 0.12109,-0.117187 0.26172,-0.210937 0.42578,-0.28125 0.16406,-0.07031 0.33594,-0.105468 0.51953,-0.105468 0.18359,0 0.35547,0.03516 0.51563,0.105468 0.16406,0.07031 0.30078,0.164063 0.42187,0.28125 0.11719,0.117188 0.21094,0.257813 0.28125,0.417969 0.0703,0.164063 0.10547,0.335938 0.10547,0.519531"
         id="path149" />
      <path
         style="fill:#211e1e;fill-opacity:1;fill-rule:nonzero;stroke:none"
         d="m 111.30469,25.453125 c 0,0.40625 0.082,0.742187 0.24219,1 0.16015,0.261719 0.40234,0.390625 0.72656,0.390625 0.30078,0 0.54297,-0.132812 0.72265,-0.398438 0.17969,-0.265624 0.26954,-0.601562 0.26954,-1 0,-0.421874 -0.0859,-0.757812 -0.26172,-1.011718 -0.17188,-0.253906 -0.41407,-0.378906 -0.72266,-0.378906 -0.30859,0 -0.54687,0.128906 -0.71875,0.390624 -0.16797,0.257813 -0.25781,0.597657 -0.25781,1.007813 m -1.12891,0.01953 c 0,-0.371094 0.0547,-0.707031 0.16016,-1.003906 0.10937,-0.296875 0.2539,-0.546875 0.4414,-0.75 0.1875,-0.203125 0.41016,-0.359375 0.67188,-0.46875 0.25781,-0.109375 0.54297,-0.164062 0.84766,-0.164062 0.3125,0 0.60156,0.05078 0.85937,0.15625 0.26172,0.109374 0.48438,0.265624 0.67188,0.46875 0.18359,0.199218 0.33203,0.449218 0.43359,0.75 0.10547,0.296874 0.15625,0.628906 0.15625,1.003906 0,0.386718 -0.0508,0.75 -0.15625,1.089844 -0.10156,0.339843 -0.23828,0.667968 -0.40625,0.988281 l -1.40234,2.761719 h -1.31641 l 1.51172,-2.789063 -0.0117,-0.01172 c -0.0937,0.07422 -0.19531,0.125 -0.30859,0.15625 -0.11329,0.02734 -0.23438,0.04297 -0.36329,0.04297 -0.23046,0 -0.45703,-0.04297 -0.67187,-0.132813 -0.21875,-0.08984 -0.41016,-0.226562 -0.57813,-0.410156 -0.16406,-0.183594 -0.29687,-0.417968 -0.39062,-0.695312 -0.0977,-0.28125 -0.14844,-0.609375 -0.14844,-0.992188"
         id="path151" />
      <path
         style="fill:#211e1e;fill-opacity:1;fill-rule:nonzero;stroke:none"
         d="m 116.69922,29.65625 c 0,0.203125 -0.0664,0.378906 -0.19531,0.519531 -0.13282,0.136719 -0.29688,0.207031 -0.4961,0.207031 -0.20312,0 -0.36328,-0.07031 -0.49218,-0.207031 -0.125,-0.140625 -0.1875,-0.316406 -0.1875,-0.519531 0,-0.203125 0.0625,-0.375 0.1875,-0.523438 0.1289,-0.144531 0.28906,-0.21875 0.49218,-0.21875 0.19922,0 0.36328,0.07422 0.4961,0.21875 0.1289,0.148438 0.19531,0.320313 0.19531,0.523438"
         id="path153" />
      <path
         style="fill:#211e1e;fill-opacity:1;fill-rule:nonzero;stroke:none"
         d="m 120.09766,24.394531 h -0.0234 l -1.50781,3.371094 h 1.53125 z m 1.05078,4.371094 v 1.539063 h -1.08203 v -1.539063 h -2.5586 v -1.050781 l 2.14063,-4.492188 h 1.5 v 4.542969 h 0.77734 v 1 z m 0,0"
         id="path155" />
    </g>
  </g>
</svg>
