<?xml version="1.0" encoding="UTF-8" standalone="no"?>
<!-- Created with Inkscape (http://www.inkscape.org/) -->

<svg
   width="60.474331mm"
   height="12.336708mm"
   viewBox="0 0 60.474331 12.336708"
   version="1.1"
   id="svg5"
   xmlns="http://www.w3.org/2000/svg"
   xmlns:svg="http://www.w3.org/2000/svg">
  <defs
     id="defs2" />
  <g
     id="layer1"
     transform="translate(-73.234248,-7.0793341)">
    <g
       id="g728"
       transform="matrix(0.03527778,0,0,-0.03527778,73.234228,19.416062)">
      <path
         d="M 633.117,340.043 V 9.76172"
         style="fill:none;stroke:#231f20;stroke-width:9.928;stroke-linecap:butt;stroke-linejoin:miter;stroke-miterlimit:4;stroke-dasharray:none;stroke-opacity:1"
         id="path730" />
      <path
         d="M 1709.57,4.66406 H 4.66406 V 345.039 H 1709.57 Z"
         style="fill:none;stroke:#231f20;stroke-width:9.327;stroke-linecap:butt;stroke-linejoin:miter;stroke-miterlimit:4;stroke-dasharray:none;stroke-opacity:1"
         id="path732" />
      <path
         d="m 137.785,225.648 -3.926,4.747 c -5.461,6.484 -14.347,6.457 -20.91,1.046 -6.59,-5.429 -8.515,-14.425 -3.086,-21.007 0,-0.02 0.664,-0.801 1.778,-2.168"
         style="fill:#231f20;fill-opacity:1;fill-rule:nonzero;stroke:none"
         id="path734" />
      <path
         d="M 111.535,208.414 C 124.023,193.363 140.84,173.148 140.84,173.148 161.816,147.711 152.434,116.371 124.004,98.5195 98.9766,82.8086 52.9883,88.3828 37.1484,114.203 49.4258,77.9844 90.6055,54.293 136.145,65.668 c 39.492,9.8828 83.621,60.637 35.359,119.199 l -35.848,43.293"
         style="fill:#231f20;fill-opacity:1;fill-rule:nonzero;stroke:none"
         id="path736" />
      <path
         d="m 115.41,153.98 c -12.156,14.668 -27.0311,32.52 -27.0311,32.52 -20.957,25.449 -11.5898,56.785 16.8361,74.629 25.031,15.742 71.015,10.137 86.855,-15.684 -12.273,36.258 -53.465,59.903 -99.0036,48.524 C 53.5859,284.105 9.45313,233.363 57.707,174.781 L 91.8945,133.48"
         style="fill:#231f20;fill-opacity:1;fill-rule:nonzero;stroke:none"
         id="path738" />
      <path
         d="m 86.4648,139.82 8.1446,-9.843 c 5.4686,-6.497 14.3556,-6.457 20.9176,-1.047 6.594,5.449 8.536,14.425 3.094,21.035 -0.016,0.031 -3.211,3.867 -7.84,9.426"
         style="fill:#231f20;fill-opacity:1;fill-rule:nonzero;stroke:none"
         id="path740" />
      <path
         d="m 239.59,159.645 c 0.832,-22.696 19.172,-29.856 38.613,-29.856 14.738,0 34.727,3.574 34.727,22.988 0,19.707 -23.328,23.008 -46.942,28.684 -23.332,5.652 -46.945,14.043 -46.945,43.613 0,31.074 28.613,43.926 53.621,43.926 31.672,0 56.945,-10.762 58.891,-48.418 h -23.614 c -1.671,19.727 -17.785,26.004 -33.351,26.004 -14.16,0 -30.567,-4.188 -30.567,-19.734 0,-18.204 25.032,-21.204 46.965,-26.875 23.602,-5.664 46.953,-14.036 46.953,-43.918 0,-36.758 -31.945,-48.692 -61.125,-48.692 -32.226,0 -59.453,14.035 -60.82,52.278 h 23.594"
         style="fill:#231f20;fill-opacity:1;fill-rule:nonzero;stroke:none"
         id="path742" />
      <path
         d="m 477.402,131.266 c -3.047,-1.203 -5.273,-1.477 -7.214,-1.477 -7.512,0 -7.512,5.363 -7.512,17.305 v 79.465 c 0,36.152 -28.035,42.441 -53.875,42.441 -31.965,0 -59.485,-13.449 -60.871,-51.699 h 23.625 c 1.121,22.695 15.828,29.285 35.847,29.285 15.012,0 31.946,-3.582 31.946,-25.703 0,-19.102 -22.219,-17.324 -48.34,-22.695 -24.434,-5.086 -48.606,-12.54 -48.606,-47.5 0,-30.79 21.379,-43.321 47.5,-43.321 19.993,0 37.5,7.473 50.547,23.899 0,-16.719 7.793,-23.899 20.012,-23.899 7.488,0 12.781,1.485 16.941,4.18 z m -38.339,33.457 c 0,-14.035 -12.774,-34.934 -43.895,-34.934 -14.445,0 -27.773,5.969 -27.773,22.688 0,18.828 13.328,24.793 28.886,27.781 15.84,2.988 33.633,3.281 42.782,10.449 v -25.984"
         style="fill:#231f20;fill-opacity:1;fill-rule:nonzero;stroke:none"
         id="path744" />
      <path
         d="m 499.336,159.645 c 0.82,-22.696 19.152,-29.856 38.594,-29.856 14.738,0 34.726,3.574 34.726,22.988 0,19.707 -23.32,23.008 -46.941,28.684 -23.332,5.652 -46.953,14.043 -46.953,43.613 0,31.074 28.621,43.926 53.621,43.926 31.68,0 56.972,-10.762 58.906,-48.418 h -23.594 c -1.699,19.727 -17.824,26.004 -33.367,26.004 -14.172,0 -30.558,-4.188 -30.558,-19.734 0,-18.204 25.019,-21.204 46.953,-26.875 23.613,-5.664 46.972,-14.036 46.972,-43.918 0,-36.758 -31.972,-48.692 -61.132,-48.692 -32.227,0 -59.473,14.035 -60.868,52.278 h 23.641"
         style="fill:#231f20;fill-opacity:1;fill-rule:nonzero;stroke:none"
         id="path746" />
      <path
         d="m 203.195,114.594 v 3.254 h 2.176 c 1.067,0 2.266,-0.246 2.266,-1.543 0,-1.594 -1.199,-1.711 -2.539,-1.711 z m 0,-1.328 h 1.817 l 2.773,-4.539 h 1.766 l -2.977,4.617 c 1.543,0.168 2.742,0.988 2.742,2.871 0,2.062 -1.238,2.98 -3.718,2.98 h -3.985 v -10.468 h 1.582 z m 1.934,-8.368 c 4.922,0 9.18,3.829 9.18,9.071 0,5.226 -4.258,9.054 -9.18,9.054 -4.992,0 -9.231,-3.828 -9.231,-9.054 0,-5.242 4.239,-9.071 9.231,-9.071 z m -7.414,9.071 c 0,4.308 3.234,7.539 7.414,7.539 4.082,0 7.344,-3.231 7.344,-7.539 0,-4.356 -3.262,-7.586 -7.344,-7.586 -4.18,0 -7.414,3.23 -7.414,7.586"
         style="fill:#231f20;fill-opacity:1;fill-rule:nonzero;stroke:none"
         id="path748" />
      <path
         d="m 499.629,159.691 c 0.812,-22.578 19.055,-29.707 38.379,-29.707 14.648,0 34.551,3.555 34.551,22.871 0,19.61 -23.211,22.872 -46.7,28.508 -23.203,5.653 -46.687,13.992 -46.687,43.387 0,30.891 28.457,43.684 53.328,43.684 31.504,0 56.641,-10.704 58.555,-48.145 h -23.457 c -1.68,19.617 -17.703,25.859 -33.172,25.859 -14.082,0 -30.391,-4.171 -30.391,-19.628 0,-18.106 24.883,-21.086 46.699,-26.719 23.485,-5.656 46.688,-13.965 46.688,-43.664 0,-36.563 -31.777,-48.438 -60.781,-48.438 -32.051,0 -59.141,13.965 -60.52,51.992 h 23.508"
         style="fill:#231f20;fill-opacity:1;fill-rule:nonzero;stroke:none"
         id="path750" />
      <path
         d="m 595.527,114.594 v 3.254 h 2.149 c 1.113,0 2.285,-0.235 2.285,-1.543 0,-1.594 -1.191,-1.711 -2.539,-1.711 z m 0,-1.328 h 1.817 l 2.754,-4.539 h 1.797 l -2.989,4.628 c 1.543,0.157 2.735,0.977 2.735,2.86 0,2.062 -1.25,2.98 -3.711,2.98 h -3.985 v -10.468 h 1.582 z m 1.914,-8.368 c 4.961,0 9.18,3.829 9.18,9.082 0,5.215 -4.219,9.043 -9.18,9.043 -5,0 -9.238,-3.828 -9.238,-9.043 0,-5.253 4.238,-9.082 9.238,-9.082 z m -7.382,9.082 c 0,4.297 3.222,7.528 7.382,7.528 4.102,0 7.344,-3.231 7.344,-7.528 0,-4.367 -3.242,-7.589 -7.344,-7.589 -4.16,0 -7.382,3.222 -7.382,7.589"
         style="fill:#231f20;fill-opacity:1;fill-rule:nonzero;stroke:none"
         id="path752" />
      <path
         d="m 686.359,260.992 v -2.101 c 0,-6.7 1.899,-10.996 9.493,-10.996 4.398,0 8.597,2.8 8.597,8.796 0,6.497 -3.301,8.895 -12.793,12.196 -12.793,4.394 -18.691,9.691 -18.691,21.586 0,13.894 8.496,20.988 22.09,20.988 12.793,0 22.086,-5.5 22.086,-19.191 v -1.997 h -13.789 c 0,6.696 -2.301,10.598 -7.801,10.598 -6.496,0 -8.196,-4.101 -8.196,-8.297 0,-4.398 1.301,-7.101 7.395,-9.699 l 11.094,-4.793 c 10.797,-4.699 13.594,-10.195 13.594,-18.891 0,-15.093 -9.192,-21.89 -24.786,-21.89 -16.293,0 -22.687,7.597 -22.687,20.789 v 2.902 h 14.394"
         style="fill:#231f20;fill-opacity:1;fill-rule:nonzero;stroke:none"
         id="path754" />
      <path
         d="m 742.453,265.586 h 13.992 l -6.894,32.086 h -0.199 z m -1.894,44.477 h 17.785 l 18.894,-71.36 h -14.996 l -3.297,15.09 h -18.988 l -3.301,-15.09 h -14.992 l 18.895,71.36"
         style="fill:#231f20;fill-opacity:1;fill-rule:nonzero;stroke:none"
         id="path756" />
      <path
         d="m 793.859,260.992 v -2.101 c 0,-6.7 1.899,-10.996 9.493,-10.996 4.398,0 8.597,2.8 8.597,8.796 0,6.497 -3.301,8.895 -12.793,12.196 -12.793,4.394 -18.691,9.691 -18.691,21.586 0,13.894 8.496,20.988 22.09,20.988 12.793,0 22.086,-5.5 22.086,-19.191 v -1.997 h -13.789 c 0,6.696 -2.301,10.598 -7.801,10.598 -6.496,0 -8.196,-4.101 -8.196,-8.297 0,-4.398 1.301,-7.101 7.395,-9.699 l 11.094,-4.793 c 10.797,-4.699 13.594,-10.195 13.594,-18.891 0,-15.093 -9.192,-21.89 -24.786,-21.89 -16.293,0 -22.687,7.597 -22.687,20.789 v 2.902 h 14.394"
         style="fill:#231f20;fill-opacity:1;fill-rule:nonzero;stroke:none"
         id="path758" />
      <path
         d="m 838.473,301.074 h 1.562 c 0.914,0 1.567,0.168 1.567,1.168 0,1.031 -1.004,1.141 -1.778,1.141 h -1.351 z m -2.055,3.946 h 3.641 c 2.425,0 3.593,-1.051 3.593,-2.895 0,-1.539 -1.023,-2.426 -2.308,-2.59 l 2.308,-3.851 h -2.242 l -2.191,3.754 h -0.746 v -3.754 h -2.055 z m 3.387,-10.856 c 3.476,0 6.047,2.805 6.047,6.188 0,3.382 -2.571,6.187 -6.047,6.187 -3.481,0 -6.051,-2.805 -6.051,-6.187 0,-3.383 2.57,-6.188 6.051,-6.188 z m 0,14.852 c 4.785,0 8.656,-3.879 8.656,-8.664 0,-4.786 -3.871,-8.661 -8.656,-8.661 -4.789,0 -8.66,3.875 -8.66,8.661 0,4.785 3.871,8.664 8.66,8.664"
         style="fill:#231f20;fill-opacity:1;fill-rule:nonzero;stroke:none"
         id="path760" />
      <path
         d="m 908.598,285.977 c 0,10.39 -2.094,14.894 -8.594,14.894 -7.293,0 -8.992,-7.301 -8.992,-27.488 0,-21.59 2.996,-25.488 9.191,-25.488 5.199,0 8.996,2.703 8.996,18.093 h 14.395 c 0,-15.39 -3.797,-28.687 -22.692,-28.687 -21.586,0 -24.285,15.394 -24.285,37.078 0,21.691 2.699,37.082 24.285,37.082 20.594,0 22.09,-15.094 22.09,-25.484 h -14.394"
         style="fill:#231f20;fill-opacity:1;fill-rule:nonzero;stroke:none"
         id="path762" />
      <path
         d="m 957.301,271.684 c -0.297,8.195 -1.301,12.793 -6.996,12.793 -5.5,0 -7.098,-5.696 -7.098,-10.692 v -2.101 z m -14.094,-8.196 v -4.297 c 0,-6.296 1.699,-12.492 6.797,-12.492 4.598,0 6.496,3.496 7.297,10.094 h 12.39 c -0.496,-12.496 -6.492,-19.492 -19.488,-19.492 -19.988,0 -20.789,15.394 -20.789,28.785 0,14.394 2.797,27.785 21.387,27.785 16.094,0 19.691,-10.793 19.691,-27.285 v -3.098 h -27.285"
         style="fill:#231f20;fill-opacity:1;fill-rule:nonzero;stroke:none"
         id="path764" />
      <path
         d="m 977.715,292.473 h 13.187 v -7.2 h 0.203 c 2.801,5.2 6.7,8.598 12.395,8.598 0.8,0 1.7,-0.101 2.5,-0.199 V 280.48 c -1.4,0.098 -2.9,0.2 -4.3,0.2 -4.794,0 -10.196,-2.5 -10.196,-9.7 v -32.277 h -13.789 v 53.77"
         style="fill:#231f20;fill-opacity:1;fill-rule:nonzero;stroke:none"
         id="path766" />
      <path
         d="m 1014.01,307.863 h 13.79 v -15.39 h 8 v -9.395 h -8 v -29.082 c 0,-4.199 0.91,-5.898 4.9,-5.898 1.1,0 2.2,0.101 3.1,0.199 v -9.594 c -3,-0.301 -5.79,-0.601 -8.99,-0.601 -10.8,0 -12.8,3.3 -12.8,14.195 v 30.781 h -6.99 v 9.395 h 6.99 v 15.39"
         style="fill:#231f20;fill-opacity:1;fill-rule:nonzero;stroke:none"
         id="path768" />
      <path
         d="m 1041.11,292.473 h 13.8 v -53.77 h -13.8 z m 0,18.386 h 13.8 v -11.793 h -13.8 v 11.793"
         style="fill:#231f20;fill-opacity:1;fill-rule:nonzero;stroke:none"
         id="path770" />
      <path
         d="m 1094.79,292.473 h 13.8 v -53.77 h -13.8 z m 0,18.386 h 13.8 v -11.793 h -13.8 z m -27.18,-27.781 h -6.99 v 9.395 h 6.99 v 6.097 c 0,9.692 5.5,12.891 14.39,12.891 2.5,0 4.9,-0.098 7.4,-0.297 v -9.797 c -0.9,0.098 -1.8,0.098 -2.7,0.098 -3.9,0 -5.3,-1.195 -5.3,-4.297 v -4.695 h 8 v -9.395 h -8 v -44.375 h -13.79 v 44.375"
         style="fill:#231f20;fill-opacity:1;fill-rule:nonzero;stroke:none"
         id="path772" />
      <path
         d="m 1144.19,271.684 c -0.3,8.195 -1.29,12.793 -7,12.793 -5.5,0 -7.09,-5.696 -7.09,-10.692 v -2.101 z m -14.09,-8.196 v -4.297 c 0,-6.296 1.7,-12.492 6.8,-12.492 4.59,0 6.49,3.496 7.29,10.094 h 12.4 c -0.5,-12.496 -6.5,-19.492 -19.49,-19.492 -20,0 -20.8,15.394 -20.8,28.785 0,14.394 2.81,27.785 21.39,27.785 16.09,0 19.7,-10.793 19.7,-27.285 v -3.098 h -27.29"
         style="fill:#231f20;fill-opacity:1;fill-rule:nonzero;stroke:none"
         id="path774" />
      <path
         d="m 1184.29,247.895 c 6.1,0 7.3,5.996 7.3,17.691 0,11.695 -1.2,17.691 -7.3,17.691 -5.99,0 -7.19,-5.996 -7.19,-17.691 0,-11.695 1.2,-17.691 7.19,-17.691 z m 7.9,-3.497 h -0.2 c -3,-5 -6.8,-7.097 -12.19,-7.097 -11.3,0 -16.49,8.297 -16.49,28.285 0,19.992 5.19,28.285 16.49,28.285 5.2,0 8.69,-2.098 11.59,-6.394 h 0.2 v 22.586 h 13.8 v -71.36 h -13.2 v 5.695"
         style="fill:#231f20;fill-opacity:1;fill-rule:nonzero;stroke:none"
         id="path776" />
      <path
         d="m 1250.6,260.992 v -2.101 c 0,-6.7 1.9,-10.996 9.49,-10.996 4.4,0 8.6,2.8 8.6,8.796 0,6.497 -3.3,8.895 -12.8,12.196 -12.79,4.394 -18.69,9.691 -18.69,21.586 0,13.894 8.5,20.988 22.09,20.988 12.8,0 22.09,-5.5 22.09,-19.191 v -1.997 h -13.8 c 0,6.696 -2.29,10.598 -7.79,10.598 -6.49,0 -8.19,-4.101 -8.19,-8.297 0,-4.398 1.3,-7.101 7.39,-9.699 l 11.09,-4.793 c 10.8,-4.699 13.6,-10.195 13.6,-18.891 0,-15.093 -9.19,-21.89 -24.79,-21.89 -16.29,0 -22.68,7.597 -22.68,20.789 v 2.902 h 14.39"
         style="fill:#231f20;fill-opacity:1;fill-rule:nonzero;stroke:none"
         id="path778" />
      <path
         d="m 1311.59,247.895 c 6,0 7.19,5.996 7.19,17.691 0,11.695 -1.19,17.691 -7.19,17.691 -6.1,0 -7.3,-5.996 -7.3,-17.691 0,-11.695 1.2,-17.691 7.3,-17.691 z m -21.09,44.578 h 13.2 v -5.7 h 0.19 c 3,5 6.8,7.098 12.2,7.098 11.3,0 16.49,-8.293 16.49,-28.285 0,-19.988 -5.19,-28.285 -16.49,-28.285 -5.2,0 -8.69,2.097 -11.59,6.394 h -0.21 v -22.582 h -13.79 v 71.36"
         style="fill:#231f20;fill-opacity:1;fill-rule:nonzero;stroke:none"
         id="path780" />
      <path
         d="m 1366.39,271.684 c -0.3,8.195 -1.3,12.793 -7,12.793 -5.5,0 -7.09,-5.696 -7.09,-10.692 v -2.101 z m -14.09,-8.196 v -4.297 c 0,-6.296 1.7,-12.492 6.8,-12.492 4.59,0 6.49,3.496 7.29,10.094 h 12.39 c -0.49,-12.496 -6.49,-19.492 -19.49,-19.492 -19.99,0 -20.79,15.394 -20.79,28.785 0,14.394 2.8,27.785 21.39,27.785 16.09,0 19.7,-10.793 19.7,-27.285 v -3.098 h -27.29"
         style="fill:#231f20;fill-opacity:1;fill-rule:nonzero;stroke:none"
         id="path782" />
      <path
         d="m 1412.69,273.082 c 0,5.199 -1.01,10.797 -6.2,10.797 -6.8,0 -7.89,-5.996 -7.89,-18.391 0,-13.297 1.19,-18.789 7.39,-18.789 4.6,0 6.7,3.899 6.7,12.594 h 13.19 c 0,-14.098 -5.89,-21.992 -20.48,-21.992 -13.8,0 -20.6,6.699 -20.6,28.285 0,22.09 9.1,28.285 21.79,28.285 12.69,0 19.29,-8.094 19.29,-20.789 h -13.19"
         style="fill:#231f20;fill-opacity:1;fill-rule:nonzero;stroke:none"
         id="path784" />
      <path
         d="m 1433.6,292.473 h 13.8 v -53.77 h -13.8 z m 0,18.386 h 13.8 v -11.793 h -13.8 v 11.793"
         style="fill:#231f20;fill-opacity:1;fill-rule:nonzero;stroke:none"
         id="path786" />
      <path
         d="m 1482.18,265.586 c -1.89,-1.395 -4.19,-2.301 -5.89,-2.699 -5.6,-1.196 -7.8,-3.899 -7.8,-8.692 0,-4.101 1.51,-7.496 5.2,-7.496 3.7,0 8.49,2.399 8.49,8.293 z M 1457,275.98 v 1.301 c 0,12.391 8.49,16.59 18.89,16.59 16.39,0 19.49,-6.797 19.49,-16.492 v -28.281 c 0,-5 0.3,-7.297 1.7,-10.395 h -13.2 c -0.9,1.699 -1.3,3.797 -1.7,5.594 h -0.19 c -3.21,-5.594 -7.1,-6.996 -13.69,-6.996 -9.6,0 -13,8.195 -13,15.394 0,10.094 4.1,14.192 13.59,16.789 l 7.79,2.098 c 4.11,1.098 5.5,2.699 5.5,6.301 0,4.094 -1.79,6.594 -6.39,6.594 -4.19,0 -6.4,-2.797 -6.4,-6.997 v -1.5 H 1457"
         style="fill:#231f20;fill-opacity:1;fill-rule:nonzero;stroke:none"
         id="path788" />
      <path
         d="m 1505.7,310.063 h 13.8 v -71.36 h -13.8 v 71.36"
         style="fill:#231f20;fill-opacity:1;fill-rule:nonzero;stroke:none"
         id="path790" />
      <path
         d="m 1529.7,292.473 h 13.79 v -53.77 h -13.79 z m 0,18.386 h 13.79 v -11.793 h -13.79 v 11.793"
         style="fill:#231f20;fill-opacity:1;fill-rule:nonzero;stroke:none"
         id="path792" />
      <path
         d="m 1563.3,256.289 v -1.797 c 0,-4.695 2.5,-7.793 7.19,-7.793 4.19,0 7,2.094 7,6.399 0,3.496 -2.3,5.09 -5,6.093 l -9.69,3.497 c -7.6,2.699 -11.5,7.394 -11.5,14.992 0,8.898 5.6,16.191 19.79,16.191 12.49,0 18.39,-5.598 18.39,-15.293 v -2.195 h -12.39 c 0,5.394 -1.61,8.094 -6.1,8.094 -3.49,0 -6.49,-2 -6.49,-5.793 0,-2.606 1.39,-4.801 5.99,-6.301 l 8.29,-2.797 c 8.7,-2.902 11.9,-7.297 11.9,-15.391 0,-11.293 -8.4,-16.894 -19.99,-16.894 -15.49,0 -19.79,6.797 -19.79,17.094 v 1.894 h 12.4"
         style="fill:#231f20;fill-opacity:1;fill-rule:nonzero;stroke:none"
         id="path794" />
      <path
         d="m 1600.6,307.863 h 13.79 v -15.39 h 8 v -9.395 h -8 v -29.082 c 0,-4.199 0.9,-5.898 4.89,-5.898 1.11,0 2.21,0.101 3.11,0.199 v -9.594 c -3,-0.301 -5.8,-0.601 -9,-0.601 -10.8,0 -12.79,3.3 -12.79,14.195 v 30.781 h -7 v 9.395 h 7 v 15.39"
         style="fill:#231f20;fill-opacity:1;fill-rule:nonzero;stroke:none"
         id="path796" />
      <path
         d="m 1627.99,254.293 h 13.2 v -15.59 h -13.2 z m 0,36.48 h 13.2 V 275.18 h -13.2 v 15.593"
         style="fill:#231f20;fill-opacity:1;fill-rule:nonzero;stroke:none"
         id="path798" />
      <path
         d="m 689.156,149.297 h 5.594 c 6.902,0 11.598,2.496 11.598,10.793 0,8.293 -4.696,10.691 -10.996,10.691 h -6.196 z m 0,31.48 h 4.098 c 7.894,0 11.492,2.7 11.492,9.395 0,6.797 -3.297,9.297 -10.394,9.297 h -5.196 z m -14.394,29.286 h 24.086 c 11.797,0 20.293,-4.399 20.293,-18.09 0,-7.696 -3.7,-13.594 -10.797,-15.59 v -0.199 c 7.898,-1.102 12.996,-7.102 12.996,-16.594 0,-11.195 -5.5,-20.887 -22.293,-20.887 h -24.285 v 71.36"
         style="fill:#231f20;fill-opacity:1;fill-rule:nonzero;stroke:none"
         id="path800" />
      <path
         d="m 755.051,165.586 c -1.903,-1.395 -4.196,-2.301 -5.895,-2.699 -5.601,-1.196 -7.797,-3.899 -7.797,-8.692 0,-4.101 1.496,-7.496 5.196,-7.496 3.699,0 8.496,2.399 8.496,8.293 z m -25.188,10.394 v 1.301 c 0,12.391 8.496,16.59 18.891,16.59 16.394,0 19.488,-6.797 19.488,-16.492 v -28.281 c 0,-5 0.305,-7.297 1.699,-10.395 h -13.195 c -0.894,1.699 -1.297,3.797 -1.695,5.594 h -0.203 c -3.196,-5.594 -7.094,-6.996 -13.692,-6.996 -9.593,0 -12.992,8.195 -12.992,15.394 0,10.094 4.098,14.192 13.594,16.789 l 7.793,2.098 c 4.101,1.098 5.5,2.699 5.5,6.301 0,4.094 -1.797,6.594 -6.399,6.594 -4.195,0 -6.394,-2.797 -6.394,-6.997 v -1.5 h -12.395"
         style="fill:#231f20;fill-opacity:1;fill-rule:nonzero;stroke:none"
         id="path802" />
      <path
         d="m 788.16,156.289 v -1.797 c 0,-4.695 2.5,-7.793 7.195,-7.793 4.196,0 6.993,2.094 6.993,6.399 0,3.496 -2.293,5.09 -4.993,6.093 l -9.695,3.497 c -7.597,2.699 -11.492,7.394 -11.492,14.992 0,8.898 5.594,16.191 19.785,16.191 12.496,0 18.395,-5.598 18.395,-15.293 v -2.195 h -12.395 c 0,5.394 -1.601,8.094 -6.098,8.094 -3.496,0 -6.496,-2 -6.496,-5.793 0,-2.606 1.399,-4.801 5.996,-6.301 l 8.297,-2.797 c 8.692,-2.902 11.891,-7.297 11.891,-15.391 0,-11.293 -8.395,-16.894 -19.984,-16.894 -15.496,0 -19.793,6.797 -19.793,17.094 v 1.894 h 12.394"
         style="fill:#231f20;fill-opacity:1;fill-rule:nonzero;stroke:none"
         id="path804" />
      <path
         d="m 848.352,171.684 c -0.301,8.195 -1.301,12.793 -7,12.793 -5.497,0 -7.094,-5.696 -7.094,-10.692 v -2.101 z m -14.094,-8.196 v -4.297 c 0,-6.296 1.699,-12.492 6.797,-12.492 4.593,0 6.496,3.496 7.297,10.094 h 12.39 c -0.496,-12.496 -6.496,-19.492 -19.488,-19.492 -19.988,0 -20.789,15.394 -20.789,28.785 0,14.394 2.797,27.785 21.39,27.785 16.09,0 19.688,-10.793 19.688,-27.285 v -3.098 h -27.285"
         style="fill:#231f20;fill-opacity:1;fill-rule:nonzero;stroke:none"
         id="path806" />
      <path
         d="m 907.555,177.777 h 6.394 c 5.699,0 9.598,3.399 9.598,10.696 0,6.996 -2.801,10.996 -9.996,10.996 h -5.996 z m -14.395,32.286 h 25.192 c 14.589,0 19.582,-10.692 19.582,-21.391 0,-14.789 -9.09,-21.484 -22.684,-21.484 h -7.695 V 138.703 H 893.16 v 71.36"
         style="fill:#231f20;fill-opacity:1;fill-rule:nonzero;stroke:none"
         id="path808" />
      <path
         d="m 944.664,192.473 h 13.188 v -7.2 h 0.199 c 2.801,5.2 6.699,8.598 12.398,8.598 0.797,0 1.696,-0.101 2.496,-0.199 V 180.48 c -1.398,0.098 -2.894,0.2 -4.297,0.2 -4.796,0 -10.195,-2.5 -10.195,-9.7 v -32.277 h -13.789 v 53.77"
         style="fill:#231f20;fill-opacity:1;fill-rule:nonzero;stroke:none"
         id="path810" />
      <path
         d="m 997.355,146.699 c 5.595,0 7.395,5.492 7.395,18.887 0,13.394 -1.8,18.891 -7.395,18.891 -6.796,0 -7.398,-7.895 -7.398,-18.891 0,-10.992 0.602,-18.887 7.398,-18.887 z m 0,47.172 c 16.585,0.301 21.185,-9.594 21.185,-28.285 0,-18.387 -5.4,-28.285 -21.185,-28.285 -16.593,-0.297 -21.195,9.594 -21.195,28.285 0,18.391 5.399,28.285 21.195,28.285"
         style="fill:#231f20;fill-opacity:1;fill-rule:nonzero;stroke:none"
         id="path812" />
      <path
         d="m 1045.55,149.895 c 5.8,0 7.5,6.296 7.5,15.394 0,13.09 -1.7,17.988 -7.2,17.988 -6.1,0 -7.2,-4.898 -7.2,-19.39 0,-7.399 1.1,-13.992 6.9,-13.992 z m 20.69,42.578 v -51.071 c 0,-14.195 -6.3,-21.089 -22.39,-21.089 -11.69,0 -18.29,5.195 -18.29,14.39 h 13.2 c 0,-1.797 0.79,-3.199 2.09,-4.098 1.3,-0.898 2.9,-1.5 4.6,-1.5 5.6,0 7.6,4.2 7.6,9.696 v 7.097 h -0.2 c -2.8,-4 -7.1,-6.597 -11.5,-6.597 -10.99,0 -16.49,7.496 -16.49,27.183 0,12.594 1.9,27.387 16.89,27.387 3.8,0 8.49,-1.801 11.1,-7.394 h 0.2 v 5.996 h 13.19"
         style="fill:#231f20;fill-opacity:1;fill-rule:nonzero;stroke:none"
         id="path814" />
      <path
         d="m 1075.96,192.473 h 13.19 v -7.2 h 0.2 c 2.8,5.2 6.7,8.598 12.39,8.598 0.8,0 1.7,-0.101 2.5,-0.199 V 180.48 c -1.39,0.098 -2.9,0.2 -4.29,0.2 -4.8,0 -10.2,-2.5 -10.2,-9.7 v -32.277 h -13.79 v 53.77"
         style="fill:#231f20;fill-opacity:1;fill-rule:nonzero;stroke:none"
         id="path816" />
      <path
         d="m 1134.34,165.586 c -1.89,-1.395 -4.19,-2.301 -5.89,-2.699 -5.6,-1.196 -7.8,-3.899 -7.8,-8.692 0,-4.101 1.5,-7.496 5.2,-7.496 3.7,0 8.49,2.399 8.49,8.293 z m -25.18,10.394 v 1.301 c 0,12.391 8.49,16.59 18.89,16.59 16.39,0 19.48,-6.797 19.48,-16.492 v -28.281 c 0,-5 0.31,-7.297 1.7,-10.395 h -13.19 c -0.9,1.699 -1.3,3.797 -1.7,5.594 h -0.19 c -3.21,-5.594 -7.1,-6.996 -13.7,-6.996 -9.6,0 -12.99,8.195 -12.99,15.394 0,10.094 4.1,14.192 13.59,16.789 l 7.79,2.098 c 4.1,1.098 5.5,2.699 5.5,6.301 0,4.094 -1.8,6.594 -6.4,6.594 -4.18,0 -6.39,-2.797 -6.39,-6.997 v -1.5 h -12.39"
         style="fill:#231f20;fill-opacity:1;fill-rule:nonzero;stroke:none"
         id="path818" />
      <path
         d="m 1157.36,192.473 h 13.19 v -5.5 h 0.2 c 3.5,4.898 7.8,6.898 13.59,6.898 6.3,0 10.9,-3.098 12.39,-8.598 h 0.21 c 2.1,5.7 7.09,8.598 13.59,8.598 9.09,0 13.39,-5.695 13.39,-16.094 v -39.074 h -13.79 v 37.578 c 0,4.496 -1.5,6.996 -5.4,6.996 -4.39,0 -7.2,-3 -7.2,-9.195 v -35.379 h -13.78 v 37.578 c 0,4.496 -1.51,6.996 -5.4,6.996 -4.4,0 -7.2,-3 -7.2,-9.195 v -35.379 h -13.79 v 53.77"
         style="fill:#231f20;fill-opacity:1;fill-rule:nonzero;stroke:none"
         id="path820" />
      <path
         d="m 1233.16,192.473 h 13.19 v -5.5 h 0.2 c 3.5,4.898 7.8,6.898 13.59,6.898 6.3,0 10.9,-3.098 12.39,-8.598 h 0.21 c 2.1,5.7 7.09,8.598 13.59,8.598 9.1,0 13.39,-5.695 13.39,-16.094 v -39.074 h -13.79 v 37.578 c 0,4.496 -1.5,6.996 -5.4,6.996 -4.39,0 -7.19,-3 -7.19,-9.195 v -35.379 h -13.79 v 37.578 c 0,4.496 -1.51,6.996 -5.4,6.996 -4.4,0 -7.2,-3 -7.2,-9.195 v -35.379 h -13.79 v 53.77"
         style="fill:#231f20;fill-opacity:1;fill-rule:nonzero;stroke:none"
         id="path822" />
      <path
         d="m 1309.46,192.473 h 13.8 v -53.77 h -13.8 z m 0,18.386 h 13.8 v -11.793 h -13.8 v 11.793"
         style="fill:#231f20;fill-opacity:1;fill-rule:nonzero;stroke:none"
         id="path824" />
      <path
         d="m 1332.96,192.473 h 13.19 v -6.297 h 0.2 c 2.9,5.301 7.89,7.695 13.69,7.695 8.6,0 13.7,-4.695 13.7,-15.293 v -39.875 h -13.79 v 37.078 c 0,5.395 -1.8,7.496 -5.9,7.496 -4.7,0 -7.3,-2.902 -7.3,-8.898 v -35.676 h -13.79 v 53.77"
         style="fill:#231f20;fill-opacity:1;fill-rule:nonzero;stroke:none"
         id="path826" />
      <path
         d="m 1402.54,149.895 c 5.81,0 7.5,6.296 7.5,15.394 0,13.09 -1.69,17.988 -7.19,17.988 -6.1,0 -7.2,-4.898 -7.2,-19.39 0,-7.399 1.1,-13.992 6.89,-13.992 z m 20.7,42.578 v -51.071 c 0,-14.195 -6.3,-21.089 -22.39,-21.089 -11.69,0 -18.29,5.195 -18.29,14.39 h 13.2 c 0,-1.797 0.79,-3.199 2.09,-4.098 1.3,-0.898 2.9,-1.5 4.6,-1.5 5.59,0 7.59,4.2 7.59,9.696 v 7.097 h -0.19 c -2.8,-4 -7.1,-6.597 -11.5,-6.597 -10.99,0 -16.49,7.496 -16.49,27.183 0,12.594 1.9,27.387 16.9,27.387 3.78,0 8.48,-1.801 11.09,-7.394 h 0.19 v 5.996 h 13.2"
         style="fill:#231f20;fill-opacity:1;fill-rule:nonzero;stroke:none"
         id="path828" />
      <path
         d="m 1470.85,210.063 v -49.774 c 0,-7.094 1.7,-12.394 8.39,-12.394 6.7,0 8.4,5.3 8.4,12.394 v 49.774 h 14.4 v -49.774 c 0,-18.187 -11.1,-22.988 -22.8,-22.988 -11.69,0 -22.78,3.902 -22.78,22.988 v 49.774 h 14.39"
         style="fill:#231f20;fill-opacity:1;fill-rule:nonzero;stroke:none"
         id="path830" />
      <path
         d="m 1520.85,156.289 v -1.797 c 0,-4.695 2.5,-7.793 7.2,-7.793 4.19,0 6.99,2.094 6.99,6.399 0,3.496 -2.29,5.09 -5,6.093 l -9.68,3.497 c -7.6,2.699 -11.5,7.394 -11.5,14.992 0,8.898 5.6,16.191 19.79,16.191 12.49,0 18.39,-5.598 18.39,-15.293 v -2.195 h -12.4 c 0,5.394 -1.6,8.094 -6.09,8.094 -3.5,0 -6.49,-2 -6.49,-5.793 0,-2.606 1.39,-4.801 5.99,-6.301 l 8.29,-2.797 c 8.69,-2.902 11.9,-7.297 11.9,-15.391 0,-11.293 -8.4,-16.894 -19.99,-16.894 -15.49,0 -19.79,6.797 -19.79,17.094 v 1.894 h 12.39"
         style="fill:#231f20;fill-opacity:1;fill-rule:nonzero;stroke:none"
         id="path832" />
      <path
         d="m 1555.66,192.473 h 13.79 v -53.77 h -13.79 z m 0,18.386 h 13.79 v -11.793 h -13.79 v 11.793"
         style="fill:#231f20;fill-opacity:1;fill-rule:nonzero;stroke:none"
         id="path834" />
      <path
         d="m 1579.16,192.473 h 13.19 v -6.297 h 0.19 c 2.9,5.301 7.9,7.695 13.71,7.695 8.59,0 13.69,-4.695 13.69,-15.293 v -39.875 h -13.8 v 37.078 c 0,5.395 -1.8,7.496 -5.9,7.496 -4.7,0 -7.3,-2.902 -7.3,-8.898 v -35.676 h -13.78 v 53.77"
         style="fill:#231f20;fill-opacity:1;fill-rule:nonzero;stroke:none"
         id="path836" />
      <path
         d="m 1648.75,149.895 c 5.79,0 7.49,6.296 7.49,15.394 0,13.09 -1.7,17.988 -7.19,17.988 -6.11,0 -7.2,-4.898 -7.2,-19.39 0,-7.399 1.09,-13.992 6.9,-13.992 z m 20.68,42.578 v -51.071 c 0,-14.195 -6.3,-21.089 -22.38,-21.089 -11.69,0 -18.29,5.195 -18.29,14.39 h 13.19 c 0,-1.797 0.8,-3.199 2.1,-4.098 1.3,-0.898 2.9,-1.5 4.6,-1.5 5.59,0 7.59,4.2 7.59,9.696 v 7.097 h -0.2 c -2.79,-4 -7.1,-6.597 -11.49,-6.597 -11,0 -16.5,7.496 -16.5,27.183 0,12.594 1.91,27.387 16.9,27.387 3.8,0 8.49,-1.801 11.09,-7.394 h 0.2 v 5.996 h 13.19"
         style="fill:#231f20;fill-opacity:1;fill-rule:nonzero;stroke:none"
         id="path838" />
      <path
         d="m 686.359,60.9922 v -2.1016 c 0,-6.6992 1.899,-10.9961 9.493,-10.9961 4.398,0 8.597,2.8008 8.597,8.7969 0,6.4961 -3.301,8.8945 -12.793,12.1953 -12.793,4.3946 -18.691,9.6914 -18.691,21.586 0,13.8943 8.496,20.9883 22.09,20.9883 12.793,0 22.086,-5.5 22.086,-19.1915 v -1.9961 h -13.789 c 0,6.6954 -2.301,10.5976 -7.801,10.5976 -6.496,0 -8.196,-4.1015 -8.196,-8.2968 0,-4.3984 1.301,-7.1015 7.395,-9.6992 l 11.094,-4.793 c 10.797,-4.6992 13.594,-10.1953 13.594,-18.8906 0,-15.0937 -9.192,-21.8906 -24.786,-21.8906 -16.293,0 -22.687,7.5976 -22.687,20.789 v 2.9024 h 14.394"
         style="fill:#231f20;fill-opacity:1;fill-rule:nonzero;stroke:none"
         id="path840" />
      <path
         d="m 742.453,65.5859 h 13.992 l -6.894,32.086 h -0.199 z m -1.894,44.4771 h 17.785 l 18.894,-71.3599 h -14.996 l -3.297,15.0899 h -18.988 l -3.301,-15.0899 h -14.992 l 18.895,71.3599"
         style="fill:#231f20;fill-opacity:1;fill-rule:nonzero;stroke:none"
         id="path842" />
      <path
         d="m 793.859,60.9922 v -2.1016 c 0,-6.6992 1.899,-10.9961 9.493,-10.9961 4.398,0 8.597,2.8008 8.597,8.7969 0,6.4961 -3.301,8.8945 -12.793,12.1953 -12.793,4.3946 -18.691,9.6914 -18.691,21.586 0,13.8943 8.496,20.9883 22.09,20.9883 12.793,0 22.086,-5.5 22.086,-19.1915 v -1.9961 h -13.789 c 0,6.6954 -2.301,10.5976 -7.801,10.5976 -6.496,0 -8.196,-4.1015 -8.196,-8.2968 0,-4.3984 1.301,-7.1015 7.395,-9.6992 l 11.094,-4.793 c 10.797,-4.6992 13.594,-10.1953 13.594,-18.8906 0,-15.0937 -9.192,-21.8906 -24.786,-21.8906 -16.293,0 -22.687,7.5976 -22.687,20.789 v 2.9024 h 14.394"
         style="fill:#231f20;fill-opacity:1;fill-rule:nonzero;stroke:none"
         id="path844" />
      <path
         d="m 838.574,101.074 h 1.563 c 0.914,0 1.566,0.168 1.566,1.168 0,1.031 -1.004,1.141 -1.777,1.141 h -1.352 z m -2.054,3.946 h 3.64 c 2.43,0 3.594,-1.051 3.594,-2.895 0,-1.539 -1.024,-2.4258 -2.309,-2.5898 l 2.309,-3.8516 h -2.238 l -2.196,3.7539 h -0.746 v -3.7539 h -2.054 z m 3.382,-10.8559 c 3.481,0 6.051,2.8047 6.051,6.1879 0,3.382 -2.57,6.187 -6.051,6.187 -3.476,0 -6.043,-2.805 -6.043,-6.187 0,-3.3832 2.567,-6.1879 6.043,-6.1879 z m 0,14.8519 c 4.789,0 8.664,-3.879 8.664,-8.664 0,-4.7856 -3.875,-8.6606 -8.664,-8.6606 -4.785,0 -8.656,3.875 -8.656,8.6606 0,4.785 3.871,8.664 8.656,8.664"
         style="fill:#231f20;fill-opacity:1;fill-rule:nonzero;stroke:none"
         id="path846" />
      <path
         d="m 896.813,72.6797 c 5.691,0 7.894,3.8008 7.894,13.3945 -0.102,8.0977 -1.199,13.9958 -7.894,13.9958 -6.997,0 -7.797,-5.9958 -7.797,-13.9958 0,-9.5937 2.195,-13.3945 7.797,-13.3945 z m -6.7,-17.4883 c 0,-5.2969 1.7,-8.4922 6.5,-8.4922 7.59,0 8.793,7.5938 8.793,17.9883 v 3.3984 h -0.203 c -2.394,-3.5976 -7.094,-5.9961 -13.289,-5.9961 -12.594,0 -17.289,9.3946 -17.289,22.086 0,16.1912 7.094,25.2892 22.887,25.2892 19.789,0 22.285,-15.7931 22.285,-33.0822 0,-20.0937 -0.399,-39.082 -23.785,-39.082 -10.196,0 -19.492,4.3008 -19.688,17.8906 h 13.789"
         style="fill:#231f20;fill-opacity:1;fill-rule:nonzero;stroke:none"
         id="path848" />
      <path
         d="M 939.809,54.293 V 38.7031 H 926.617 V 54.293 h 13.192"
         style="fill:#231f20;fill-opacity:1;fill-rule:nonzero;stroke:none"
         id="path850" />
      <path
         d="m 971.809,91.4766 h -0.204 L 957.813,64.5859 h 13.996 z M 946.621,65.1875 970.109,109.465 H 985 V 64.5859 h 6.793 V 53.3945 H 985 V 38.7031 h -13.191 v 14.6914 h -25.188 v 11.793"
         style="fill:#231f20;fill-opacity:1;fill-rule:nonzero;stroke:none"
         id="path852" />
      <g
         id="g854"
         transform="scale(10)">
        <text
           transform="matrix(1,0,0,-1,158.102,13.943)"
           style="font-variant:normal;font-size:1.20373px;font-family:HelveticaNeueLTStd;-inkscape-font-specification:HelveticaNeueLTStd-Lt;writing-mode:lr-tb;fill:#231f20;fill-opacity:1;fill-rule:nonzero;stroke:none"
           id="text858"><tspan
             x="0"
             y="0"
             id="tspan856">®</tspan></text>
      </g>
    </g>
  </g>
</svg>
