<?xml version="1.0" encoding="UTF-8" standalone="no"?>
<!-- Created with Inkscape (http://www.inkscape.org/) -->

<svg
   width="60.474331mm"
   height="12.336708mm"
   viewBox="0 0 60.474331 12.336708"
   version="1.1"
   id="svg5"
   xmlns="http://www.w3.org/2000/svg"
   xmlns:svg="http://www.w3.org/2000/svg">
  <defs
     id="defs2" />
  <g
     id="layer1"
     transform="translate(-86.249621,-120.64527)">
    <g
       id="g17"
       transform="matrix(0.03527778,0,0,-0.03527778,86.249601,132.982)">
      <path
         d="M 633.117,340.043 V 9.76172"
         style="fill:none;stroke:#231f20;stroke-width:9.928;stroke-linecap:butt;stroke-linejoin:miter;stroke-miterlimit:4;stroke-dasharray:none;stroke-opacity:1"
         id="path19" />
      <path
         d="M 1709.57,4.66406 H 4.66406 V 345.039 H 1709.57 Z"
         style="fill:none;stroke:#231f20;stroke-width:9.327;stroke-linecap:butt;stroke-linejoin:miter;stroke-miterlimit:4;stroke-dasharray:none;stroke-opacity:1"
         id="path21" />
      <path
         d="m 137.785,225.648 -3.926,4.747 c -5.461,6.484 -14.347,6.457 -20.91,1.046 -6.59,-5.429 -8.515,-14.425 -3.086,-21.007 0,-0.02 0.664,-0.801 1.778,-2.168"
         style="fill:#231f20;fill-opacity:1;fill-rule:nonzero;stroke:none"
         id="path23" />
      <path
         d="M 111.535,208.414 C 124.023,193.363 140.84,173.148 140.84,173.148 161.816,147.711 152.434,116.371 124.004,98.5195 98.9766,82.8086 52.9883,88.3828 37.1484,114.203 49.4258,77.9844 90.6055,54.293 136.145,65.668 c 39.492,9.8828 83.621,60.637 35.359,119.199 l -35.848,43.293"
         style="fill:#231f20;fill-opacity:1;fill-rule:nonzero;stroke:none"
         id="path25" />
      <path
         d="m 115.41,153.98 c -12.156,14.668 -27.0311,32.52 -27.0311,32.52 -20.957,25.449 -11.5898,56.785 16.8361,74.629 25.031,15.742 71.015,10.137 86.855,-15.684 -12.273,36.258 -53.465,59.903 -99.0036,48.524 C 53.5859,284.105 9.45313,233.363 57.707,174.781 L 91.8945,133.48"
         style="fill:#231f20;fill-opacity:1;fill-rule:nonzero;stroke:none"
         id="path27" />
      <path
         d="m 86.4648,139.82 8.1446,-9.843 c 5.4686,-6.497 14.3556,-6.457 20.9176,-1.047 6.594,5.449 8.536,14.425 3.094,21.035 -0.016,0.031 -3.211,3.867 -7.84,9.426"
         style="fill:#231f20;fill-opacity:1;fill-rule:nonzero;stroke:none"
         id="path29" />
      <path
         d="m 239.59,159.645 c 0.832,-22.696 19.172,-29.856 38.613,-29.856 14.738,0 34.727,3.574 34.727,22.988 0,19.707 -23.328,23.008 -46.942,28.684 -23.332,5.652 -46.945,14.043 -46.945,43.613 0,31.074 28.613,43.926 53.621,43.926 31.672,0 56.945,-10.762 58.891,-48.418 h -23.614 c -1.671,19.727 -17.785,26.004 -33.351,26.004 -14.16,0 -30.567,-4.188 -30.567,-19.734 0,-18.204 25.032,-21.204 46.965,-26.875 23.602,-5.664 46.953,-14.036 46.953,-43.918 0,-36.758 -31.945,-48.692 -61.125,-48.692 -32.226,0 -59.453,14.035 -60.82,52.278 h 23.594"
         style="fill:#231f20;fill-opacity:1;fill-rule:nonzero;stroke:none"
         id="path31" />
      <path
         d="m 477.402,131.266 c -3.047,-1.203 -5.273,-1.477 -7.214,-1.477 -7.512,0 -7.512,5.363 -7.512,17.305 v 79.465 c 0,36.152 -28.035,42.441 -53.875,42.441 -31.965,0 -59.485,-13.449 -60.871,-51.699 h 23.625 c 1.121,22.695 15.828,29.285 35.847,29.285 15.012,0 31.946,-3.582 31.946,-25.703 0,-19.102 -22.219,-17.324 -48.34,-22.695 -24.434,-5.086 -48.606,-12.54 -48.606,-47.5 0,-30.79 21.379,-43.321 47.5,-43.321 19.993,0 37.5,7.473 50.547,23.899 0,-16.719 7.793,-23.899 20.012,-23.899 7.488,0 12.781,1.485 16.941,4.18 z m -38.339,33.457 c 0,-14.035 -12.774,-34.934 -43.895,-34.934 -14.445,0 -27.773,5.969 -27.773,22.688 0,18.828 13.328,24.793 28.886,27.781 15.84,2.988 33.633,3.281 42.782,10.449 v -25.984"
         style="fill:#231f20;fill-opacity:1;fill-rule:nonzero;stroke:none"
         id="path33" />
      <path
         d="m 499.336,159.645 c 0.82,-22.696 19.152,-29.856 38.594,-29.856 14.738,0 34.726,3.574 34.726,22.988 0,19.707 -23.32,23.008 -46.941,28.684 -23.332,5.652 -46.953,14.043 -46.953,43.613 0,31.074 28.621,43.926 53.621,43.926 31.68,0 56.972,-10.762 58.906,-48.418 h -23.594 c -1.699,19.727 -17.824,26.004 -33.367,26.004 -14.172,0 -30.558,-4.188 -30.558,-19.734 0,-18.204 25.019,-21.204 46.953,-26.875 23.613,-5.664 46.972,-14.036 46.972,-43.918 0,-36.758 -31.972,-48.692 -61.132,-48.692 -32.227,0 -59.473,14.035 -60.868,52.278 h 23.641"
         style="fill:#231f20;fill-opacity:1;fill-rule:nonzero;stroke:none"
         id="path35" />
      <path
         d="m 203.195,114.594 v 3.254 h 2.176 c 1.067,0 2.266,-0.246 2.266,-1.543 0,-1.594 -1.199,-1.711 -2.539,-1.711 z m 0,-1.328 h 1.817 l 2.773,-4.539 h 1.766 l -2.977,4.617 c 1.543,0.168 2.742,0.988 2.742,2.871 0,2.062 -1.238,2.98 -3.718,2.98 h -3.985 v -10.468 h 1.582 z m 1.934,-8.368 c 4.922,0 9.18,3.829 9.18,9.071 0,5.226 -4.258,9.054 -9.18,9.054 -4.992,0 -9.231,-3.828 -9.231,-9.054 0,-5.242 4.239,-9.071 9.231,-9.071 z m -7.414,9.071 c 0,4.308 3.234,7.539 7.414,7.539 4.082,0 7.344,-3.231 7.344,-7.539 0,-4.356 -3.262,-7.586 -7.344,-7.586 -4.18,0 -7.414,3.23 -7.414,7.586"
         style="fill:#231f20;fill-opacity:1;fill-rule:nonzero;stroke:none"
         id="path37" />
      <path
         d="m 499.629,159.691 c 0.812,-22.578 19.055,-29.707 38.379,-29.707 14.648,0 34.551,3.555 34.551,22.871 0,19.61 -23.211,22.872 -46.7,28.508 -23.203,5.653 -46.687,13.992 -46.687,43.387 0,30.891 28.457,43.684 53.328,43.684 31.504,0 56.641,-10.704 58.555,-48.145 h -23.457 c -1.68,19.617 -17.703,25.859 -33.172,25.859 -14.082,0 -30.391,-4.171 -30.391,-19.628 0,-18.106 24.883,-21.086 46.699,-26.719 23.485,-5.656 46.688,-13.965 46.688,-43.664 0,-36.563 -31.777,-48.438 -60.781,-48.438 -32.051,0 -59.141,13.965 -60.52,51.992 h 23.508"
         style="fill:#231f20;fill-opacity:1;fill-rule:nonzero;stroke:none"
         id="path39" />
      <path
         d="m 595.527,114.594 v 3.254 h 2.149 c 1.113,0 2.285,-0.235 2.285,-1.543 0,-1.594 -1.191,-1.711 -2.539,-1.711 z m 0,-1.328 h 1.817 l 2.754,-4.539 h 1.797 l -2.989,4.628 c 1.543,0.157 2.735,0.977 2.735,2.86 0,2.062 -1.25,2.98 -3.711,2.98 h -3.985 v -10.468 h 1.582 z m 1.914,-8.368 c 4.961,0 9.18,3.829 9.18,9.082 0,5.215 -4.219,9.043 -9.18,9.043 -5,0 -9.238,-3.828 -9.238,-9.043 0,-5.253 4.238,-9.082 9.238,-9.082 z m -7.382,9.082 c 0,4.297 3.222,7.528 7.382,7.528 4.102,0 7.344,-3.231 7.344,-7.528 0,-4.367 -3.242,-7.589 -7.344,-7.589 -4.16,0 -7.382,3.222 -7.382,7.589"
         style="fill:#231f20;fill-opacity:1;fill-rule:nonzero;stroke:none"
         id="path41" />
      <path
         d="m 704.766,299.098 c -2.598,3.132 -5.868,4.703 -9.801,4.703 -1.133,0 -2.235,-0.188 -3.301,-0.555 -1.062,-0.363 -2.035,-0.949 -2.898,-1.746 -0.864,-0.801 -1.547,-1.836 -2.051,-3.102 -0.5,-1.269 -0.746,-2.769 -0.746,-4.5 0,-3 0.898,-5.32 2.699,-6.949 1.797,-1.636 4.164,-3.183 7.098,-4.652 1.734,-0.867 3.504,-1.867 5.3,-3 1.801,-1.133 3.43,-2.5 4.903,-4.102 1.465,-1.597 2.664,-3.496 3.597,-5.699 0.93,-2.199 1.403,-4.797 1.403,-7.797 0,-3.472 -0.555,-6.539 -1.653,-9.203 -1.097,-2.668 -2.57,-4.918 -4.398,-6.75 -1.836,-1.836 -3.984,-3.215 -6.449,-4.148 -2.473,-0.934 -5.071,-1.403 -7.805,-1.403 -3.93,0 -7.562,0.766 -10.898,2.301 -3.336,1.531 -6,3.465 -7.996,5.801 l 6.496,8.797 c 1.535,-1.864 3.386,-3.328 5.547,-4.399 2.167,-1.062 4.386,-1.597 6.652,-1.597 2.531,0 4.633,0.867 6.305,2.597 1.664,1.735 2.5,4.168 2.5,7.301 0,3.067 -1.004,5.504 -3.004,7.301 -1.996,1.801 -4.532,3.465 -7.598,5 -1.934,0.933 -3.75,1.969 -5.449,3.101 -1.703,1.133 -3.203,2.485 -4.504,4.051 -1.297,1.563 -2.332,3.399 -3.098,5.5 -0.769,2.098 -1.148,4.614 -1.148,7.547 0,3.668 0.582,6.817 1.746,9.453 1.168,2.633 2.703,4.817 4.601,6.547 1.899,1.734 4.047,3.02 6.45,3.848 2.402,0.836 4.836,1.25 7.3,1.25 3.598,0 6.817,-0.578 9.649,-1.746 2.836,-1.168 5.219,-2.887 7.152,-5.153 l -6.601,-8.597"
         style="fill:#231f20;fill-opacity:1;fill-rule:nonzero;stroke:none"
         id="path43" />
      <path
         d="m 740.063,301.5 h -0.399 l -7.699,-35.102 h 15.598 z m 12.5,-59.504 -3.5,15 h -18.598 l -3.598,-15 h -12.004 l 17.598,70.801 h 15.305 l 17.297,-70.801 h -12.5"
         style="fill:#231f20;fill-opacity:1;fill-rule:nonzero;stroke:none"
         id="path45" />
      <path
         d="m 800.266,299.098 c -2.598,3.132 -5.871,4.703 -9.801,4.703 -1.133,0 -2.238,-0.188 -3.301,-0.555 -1.066,-0.363 -2.035,-0.949 -2.902,-1.746 -0.864,-0.801 -1.547,-1.836 -2.051,-3.102 -0.496,-1.269 -0.746,-2.769 -0.746,-4.5 0,-3 0.898,-5.32 2.699,-6.949 1.797,-1.636 4.164,-3.183 7.102,-4.652 1.73,-0.867 3.5,-1.867 5.297,-3 1.8,-1.133 3.433,-2.5 4.902,-4.102 1.465,-1.597 2.668,-3.496 3.598,-5.699 0.933,-2.199 1.402,-4.797 1.402,-7.797 0,-3.472 -0.551,-6.539 -1.649,-9.203 -1.101,-2.668 -2.57,-4.918 -4.402,-6.75 -1.836,-1.836 -3.984,-3.215 -6.449,-4.148 -2.469,-0.934 -5.067,-1.403 -7.805,-1.403 -3.93,0 -7.562,0.766 -10.894,2.301 -3.336,1.531 -6.004,3.465 -8,5.801 l 6.5,8.797 c 1.531,-1.864 3.382,-3.328 5.547,-4.399 2.167,-1.062 4.382,-1.597 6.648,-1.597 2.535,0 4.637,0.867 6.305,2.597 1.664,1.735 2.5,4.168 2.5,7.301 0,3.067 -1,5.504 -3.004,7.301 -1.996,1.801 -4.532,3.465 -7.598,5 -1.934,0.933 -3.75,1.969 -5.449,3.101 -1.703,1.133 -3.203,2.485 -4.5,4.051 -1.301,1.563 -2.336,3.399 -3.102,5.5 -0.765,2.098 -1.148,4.614 -1.148,7.547 0,3.668 0.582,6.817 1.75,9.453 1.168,2.633 2.699,4.817 4.598,6.547 1.902,1.734 4.05,3.02 6.453,3.848 2.402,0.836 4.832,1.25 7.297,1.25 3.597,0 6.816,-0.578 9.648,-1.746 2.84,-1.168 5.223,-2.887 7.156,-5.153 l -6.601,-8.597"
         style="fill:#231f20;fill-opacity:1;fill-rule:nonzero;stroke:none"
         id="path47" />
      <path
         d="m 830.156,307.07 c 0,0.508 -0.222,0.875 -0.668,1.11 -0.449,0.234 -0.902,0.351 -1.371,0.351 h -2.215 v -3.148 h 2.215 c 0.543,0 1.02,0.156 1.43,0.461 0.41,0.312 0.609,0.722 0.609,1.226 z m 0.352,-10.316 -2.914,5.594 h -1.692 v -5.594 h -4.14 v 15.156 h 6.531 c 0.734,0 1.477,-0.078 2.215,-0.234 0.738,-0.153 1.406,-0.414 2.012,-0.785 0.601,-0.368 1.089,-0.868 1.457,-1.485 0.371,-0.625 0.554,-1.383 0.554,-2.277 0,-1.012 -0.285,-1.875 -0.843,-2.594 -0.567,-0.722 -1.293,-1.234 -2.188,-1.547 l 3.848,-6.234 z m 8.336,7.285 c 0,1.559 -0.289,3.012 -0.875,4.375 -0.582,1.356 -1.375,2.555 -2.387,3.582 -1.012,1.031 -2.187,1.836 -3.531,2.422 -1.336,0.582 -2.789,0.875 -4.34,0.875 -1.559,0 -3.012,-0.293 -4.375,-0.875 -1.359,-0.586 -2.555,-1.391 -3.586,-2.422 -1.027,-1.027 -1.836,-2.226 -2.414,-3.582 -0.59,-1.363 -0.875,-2.816 -0.875,-4.375 0,-1.516 0.285,-2.953 0.875,-4.312 0.578,-1.364 1.387,-2.547 2.414,-3.559 1.031,-1.012 2.227,-1.809 3.586,-2.387 1.363,-0.582 2.816,-0.875 4.375,-0.875 1.551,0 3.004,0.293 4.34,0.875 1.344,0.578 2.519,1.375 3.531,2.387 1.012,1.012 1.805,2.195 2.387,3.559 0.586,1.359 0.875,2.796 0.875,4.312 z m 2.097,0 c 0,-1.828 -0.343,-3.535 -1.046,-5.129 -0.7,-1.594 -1.641,-2.972 -2.829,-4.14 -1.187,-1.165 -2.582,-2.09 -4.195,-2.766 -1.617,-0.684 -3.336,-1.024 -5.16,-1.024 -1.828,0 -3.555,0.34 -5.191,1.024 -1.629,0.676 -3.051,1.601 -4.254,2.766 -1.203,1.168 -2.157,2.546 -2.856,4.14 -0.703,1.594 -1.051,3.301 -1.051,5.129 0,1.824 0.348,3.551 1.051,5.16 0.699,1.614 1.653,3.012 2.856,4.199 1.203,1.184 2.625,2.125 4.254,2.829 1.636,0.699 3.363,1.05 5.191,1.05 1.824,0 3.543,-0.351 5.16,-1.05 1.613,-0.704 3.008,-1.645 4.195,-2.829 1.188,-1.187 2.129,-2.585 2.829,-4.199 0.703,-1.609 1.046,-3.336 1.046,-5.16"
         style="fill:#231f20;fill-opacity:1;fill-rule:nonzero;stroke:none"
         id="path49" />
      <path
         d="m 905.793,242.797 c -2.902,-1.731 -6.555,-2.602 -10.953,-2.602 -4,0 -7.617,0.938 -10.852,2.801 -3.234,1.867 -5.965,4.449 -8.195,7.75 -2.238,3.301 -3.973,7.219 -5.203,11.75 -1.235,4.535 -1.848,9.5 -1.848,14.902 0,5.399 0.613,10.379 1.848,14.95 1.23,4.566 2.98,8.496 5.25,11.797 2.265,3.3 5.015,5.871 8.246,7.703 3.234,1.836 6.816,2.746 10.754,2.746 4.066,0 7.633,-0.746 10.695,-2.246 3.07,-1.504 5.57,-3.653 7.5,-6.45 l -6.898,-8.402 c -2.735,3.934 -6.266,5.902 -10.602,5.902 -2.394,0 -4.496,-0.683 -6.297,-2.05 -1.8,-1.368 -3.3,-3.219 -4.5,-5.551 -1.199,-2.336 -2.101,-5.082 -2.695,-8.246 -0.602,-3.172 -0.906,-6.555 -0.906,-10.153 0,-3.535 0.304,-6.886 0.906,-10.05 0.594,-3.168 1.496,-5.918 2.695,-8.25 1.2,-2.336 2.719,-4.184 4.547,-5.551 1.836,-1.367 3.988,-2.047 6.453,-2.047 2.332,0 4.352,0.594 6.047,1.797 1.703,1.199 3.117,2.664 4.254,4.398 l 6.902,-8.101 c -1.871,-2.797 -4.253,-5.063 -7.148,-6.797"
         style="fill:#231f20;fill-opacity:1;fill-rule:nonzero;stroke:none"
         id="path51" />
      <path
         d="m 943.637,272.797 c 0,3.801 -0.602,6.883 -1.801,9.25 -1.199,2.367 -3.066,3.551 -5.602,3.551 -1.464,0 -2.714,-0.438 -3.75,-1.301 -1.031,-0.867 -1.863,-1.949 -2.5,-3.25 -0.632,-1.301 -1.113,-2.703 -1.449,-4.199 -0.332,-1.5 -0.5,-2.848 -0.5,-4.051 z m -15.696,-8.203 c 0,-1.996 0.196,-3.879 0.594,-5.649 0.403,-1.765 0.988,-3.297 1.754,-4.597 0.766,-1.301 1.699,-2.336 2.797,-3.102 1.105,-0.766 2.383,-1.148 3.852,-1.148 2.066,0 3.718,0.664 4.949,1.996 1.234,1.336 2.215,2.867 2.953,4.605 l 8.297,-4.801 c -1.465,-3.535 -3.551,-6.351 -6.25,-8.449 -2.696,-2.101 -6.149,-3.152 -10.348,-3.152 -5.937,0 -10.703,2.336 -14.301,7 -3.601,4.668 -5.402,11.367 -5.402,20.101 0,4.067 0.469,7.782 1.402,11.149 0.934,3.367 2.266,6.25 4,8.652 1.731,2.395 3.782,4.246 6.153,5.551 2.363,1.297 5.011,1.949 7.949,1.949 3.265,0 6.047,-0.672 8.348,-2.004 2.3,-1.332 4.164,-3.148 5.601,-5.449 1.43,-2.301 2.481,-5.016 3.149,-8.148 0.664,-3.137 1,-6.535 1,-10.2 v -4.304 h -26.497"
         style="fill:#231f20;fill-opacity:1;fill-rule:nonzero;stroke:none"
         id="path53" />
      <path
         d="m 980.238,291.797 c 1.867,1.933 4.063,2.902 6.598,2.902 0.332,0 0.617,0 0.852,0 0.234,0 0.515,-0.07 0.847,-0.203 l -0.601,-11.601 c -0.731,0.203 -1.532,0.304 -2.399,0.304 -1.469,0 -2.765,-0.449 -3.898,-1.351 -1.133,-0.899 -2.102,-2.086 -2.903,-3.551 -0.8,-1.465 -1.394,-3.137 -1.796,-5 -0.399,-1.867 -0.598,-3.766 -0.598,-5.699 v -25.602 h -11.5 V 293 h 11.098 v -9.801 h 0.199 c 0.867,3.797 2.234,6.664 4.101,8.598"
         style="fill:#231f20;fill-opacity:1;fill-rule:nonzero;stroke:none"
         id="path55" />
      <path
         d="m 1006.73,284.297 v -26.199 c 0,-2.801 0.42,-4.836 1.25,-6.102 0.84,-1.269 2.12,-1.898 3.86,-1.898 0.6,0 1.21,0.062 1.85,0.199 0.63,0.133 1.18,0.332 1.65,0.601 l 0.2,-8.804 c -0.8,-0.395 -1.87,-0.731 -3.21,-0.996 -1.33,-0.266 -2.66,-0.399 -3.99,-0.399 -4.34,0 -7.46,1.285 -9.356,3.848 -1.898,2.566 -2.851,6.25 -2.851,11.051 v 28.699 h -6.395 V 293 h 6.395 v 12.996 h 10.597 V 293 h 8.91 v -8.703 h -8.91"
         style="fill:#231f20;fill-opacity:1;fill-rule:nonzero;stroke:none"
         id="path57" />
      <path
         d="M 1023.74,241.996 V 293 h 11.29 v -51.004 z m 12.19,65.801 c 0,-2 -0.63,-3.664 -1.9,-5 -1.26,-1.332 -2.83,-2 -4.69,-2 -1.94,0 -3.52,0.668 -4.75,2 -1.24,1.336 -1.86,3 -1.86,5 0,1.933 0.62,3.601 1.86,5 1.23,1.402 2.81,2.101 4.75,2.101 1.93,0 3.51,-0.699 4.74,-2.101 1.24,-1.399 1.85,-3.067 1.85,-5"
         style="fill:#231f20;fill-opacity:1;fill-rule:nonzero;stroke:none"
         id="path59" />
      <path
         d="M 1075.64,241.996 V 293 h 11.29 v -51.004 z m 12.19,65.801 c 0,-2 -0.63,-3.664 -1.9,-5 -1.26,-1.332 -2.83,-2 -4.69,-2 -1.94,0 -3.52,0.668 -4.76,2 -1.23,1.336 -1.85,3 -1.85,5 0,1.933 0.62,3.601 1.85,5 1.24,1.402 2.82,2.101 4.76,2.101 1.92,0 3.51,-0.699 4.74,-2.101 1.24,-1.399 1.85,-3.067 1.85,-5 z m -18.3,1.902 c -0.86,0.332 -1.86,0.496 -3,0.496 -1.26,0 -2.3,-0.281 -3.1,-0.847 -0.8,-0.567 -1.43,-1.317 -1.9,-2.254 -0.47,-0.93 -0.8,-1.996 -1,-3.196 -0.2,-1.203 -0.3,-2.433 -0.3,-3.703 V 293 h 8.11 v -9 h -8.01 v -42.004 h -11.1 V 284 h -6.4 v 9 h 6.4 v 7.297 c 0,2.668 0.29,5.183 0.85,7.551 0.57,2.367 1.47,4.433 2.7,6.199 1.24,1.766 2.84,3.152 4.8,4.152 1.97,1 4.39,1.5 7.25,1.5 1.87,0 3.67,-0.269 5.4,-0.801 l -0.7,-9.199"
         style="fill:#231f20;fill-opacity:1;fill-rule:nonzero;stroke:none"
         id="path61" />
      <path
         d="m 1124.23,272.797 c 0,3.801 -0.6,6.883 -1.8,9.25 -1.2,2.367 -3.07,3.551 -5.6,3.551 -1.46,0 -2.71,-0.438 -3.75,-1.301 -1.03,-0.867 -1.86,-1.949 -2.5,-3.25 -0.63,-1.301 -1.11,-2.703 -1.45,-4.199 -0.34,-1.5 -0.5,-2.848 -0.5,-4.051 z m -15.7,-8.203 c 0,-1.996 0.2,-3.879 0.6,-5.649 0.4,-1.765 0.98,-3.297 1.75,-4.597 0.77,-1.301 1.7,-2.336 2.8,-3.102 1.1,-0.766 2.38,-1.148 3.85,-1.148 2.07,0 3.72,0.664 4.95,1.996 1.24,1.336 2.21,2.867 2.95,4.605 l 8.3,-4.801 c -1.47,-3.535 -3.55,-6.351 -6.25,-8.449 -2.7,-2.101 -6.15,-3.152 -10.35,-3.152 -5.93,0 -10.7,2.336 -14.3,7 -3.6,4.668 -5.4,11.367 -5.4,20.101 0,4.067 0.47,7.782 1.4,11.149 0.93,3.367 2.27,6.25 4,8.652 1.74,2.395 3.79,4.246 6.15,5.551 2.36,1.297 5.02,1.949 7.95,1.949 3.27,0 6.05,-0.672 8.35,-2.004 2.3,-1.332 4.17,-3.148 5.6,-5.449 1.43,-2.301 2.48,-5.016 3.15,-8.148 0.66,-3.137 1,-6.535 1,-10.2 v -4.304 h -26.5"
         style="fill:#231f20;fill-opacity:1;fill-rule:nonzero;stroke:none"
         id="path63" />
      <path
         d="m 1170.53,267.496 c 0,2.465 -0.18,4.75 -0.55,6.852 -0.37,2.097 -0.9,3.933 -1.6,5.5 -0.7,1.562 -1.6,2.8 -2.7,3.699 -1.09,0.902 -2.34,1.351 -3.75,1.351 -1.47,0 -2.74,-0.449 -3.8,-1.351 -1.06,-0.899 -1.93,-2.137 -2.6,-3.699 -0.67,-1.567 -1.17,-3.403 -1.5,-5.5 -0.33,-2.102 -0.5,-4.387 -0.5,-6.852 0,-2.398 0.17,-4.648 0.5,-6.75 0.33,-2.098 0.83,-3.933 1.5,-5.496 0.67,-1.566 1.54,-2.805 2.6,-3.703 1.06,-0.899 2.33,-1.352 3.8,-1.352 1.46,0 2.73,0.453 3.8,1.352 1.06,0.898 1.95,2.137 2.65,3.703 0.7,1.563 1.23,3.398 1.6,5.496 0.37,2.102 0.55,4.352 0.55,6.75 z m -0.2,-25.5 v 7.301 h -0.2 c -0.73,-2.535 -1.98,-4.668 -3.75,-6.402 -1.77,-1.731 -4.31,-2.598 -7.65,-2.598 -2.6,0 -4.94,0.699 -7,2.101 -2.07,1.403 -3.8,3.348 -5.2,5.848 -1.4,2.5 -2.46,5.438 -3.19,8.801 -0.75,3.367 -1.11,7.016 -1.11,10.953 0,3.859 0.35,7.43 1.05,10.695 0.7,3.27 1.75,6.086 3.15,8.453 1.4,2.364 3.12,4.215 5.15,5.547 2.03,1.332 4.41,2.004 7.15,2.004 2.8,0 5.16,-0.789 7.11,-2.351 1.92,-1.567 3.26,-3.52 3.99,-5.848 h 0.3 v 31.098 h 11.1 v -75.602 h -10.9"
         style="fill:#231f20;fill-opacity:1;fill-rule:nonzero;stroke:none"
         id="path65" />
      <path
         d="m 1242.93,291.742 c 0,3.785 -0.9,6.539 -2.7,8.27 -1.81,1.722 -4.1,2.586 -6.9,2.586 h -6.8 v -22.403 h 6.8 c 2.8,0 5.09,0.981 6.9,2.942 1.8,1.957 2.7,4.824 2.7,8.605 z m 11.29,0.156 c 0,-3.601 -0.54,-6.75 -1.64,-9.453 -1.09,-2.699 -2.54,-4.949 -4.33,-6.746 -1.8,-1.801 -3.85,-3.136 -6.17,-4 -2.34,-0.867 -4.73,-1.304 -7.18,-1.304 h -8.37 v -28.399 h -11.8 v 70.801 h 19.54 c 2.27,0 4.59,-0.336 6.99,-1 2.4,-0.668 4.54,-1.817 6.43,-3.453 1.9,-1.629 3.46,-3.781 4.69,-6.446 1.23,-2.668 1.84,-6 1.84,-10"
         style="fill:#231f20;fill-opacity:1;fill-rule:nonzero;stroke:none"
         id="path67" />
      <path
         d="m 1277.04,291.797 c 1.86,1.933 4.06,2.902 6.59,2.902 0.33,0 0.61,0 0.85,0 0.23,0 0.52,-0.07 0.85,-0.203 l -0.6,-11.601 c -0.73,0.203 -1.53,0.304 -2.4,0.304 -1.47,0 -2.76,-0.449 -3.9,-1.351 -1.13,-0.899 -2.1,-2.086 -2.9,-3.551 -0.8,-1.465 -1.39,-3.137 -1.79,-5 -0.4,-1.867 -0.61,-3.766 -0.61,-5.699 v -25.602 h -11.49 V 293 h 11.09 v -9.801 h 0.2 c 0.86,3.797 2.23,6.664 4.11,8.598"
         style="fill:#231f20;fill-opacity:1;fill-rule:nonzero;stroke:none"
         id="path69" />
      <path
         d="m 1316.53,267.496 c 0,2.465 -0.17,4.75 -0.5,6.852 -0.33,2.097 -0.85,3.933 -1.55,5.5 -0.71,1.562 -1.56,2.8 -2.6,3.699 -1.03,0.902 -2.28,1.351 -3.75,1.351 -1.46,0 -2.71,-0.449 -3.75,-1.351 -1.03,-0.899 -1.88,-2.137 -2.55,-3.699 -0.67,-1.567 -1.17,-3.403 -1.5,-5.5 -0.33,-2.102 -0.5,-4.387 -0.5,-6.852 0,-2.398 0.17,-4.664 0.5,-6.797 0.33,-2.133 0.83,-3.969 1.5,-5.504 0.67,-1.531 1.52,-2.75 2.55,-3.648 1.04,-0.899 2.29,-1.352 3.75,-1.352 1.47,0 2.73,0.453 3.8,1.352 1.06,0.898 1.93,2.117 2.6,3.648 0.66,1.535 1.17,3.371 1.5,5.504 0.33,2.133 0.5,4.399 0.5,6.797 z m 11.3,-0.098 c 0,-4 -0.45,-7.668 -1.35,-11 -0.91,-3.335 -2.21,-6.183 -3.92,-8.55 -1.7,-2.368 -3.76,-4.219 -6.16,-5.551 -2.41,-1.336 -5.14,-2 -8.22,-2 -3.08,0 -5.81,0.664 -8.22,2 -2.41,1.332 -4.47,3.183 -6.17,5.551 -1.7,2.367 -3,5.215 -3.91,8.55 -0.9,3.332 -1.35,7 -1.35,11 0,4.067 0.45,7.782 1.35,11.149 0.91,3.367 2.19,6.25 3.87,8.652 1.67,2.395 3.72,4.246 6.16,5.551 2.44,1.297 5.19,1.949 8.27,1.949 3.08,0 5.81,-0.652 8.22,-1.949 2.4,-1.305 4.46,-3.156 6.16,-5.551 1.71,-2.402 3.01,-5.285 3.92,-8.652 0.9,-3.367 1.35,-7.082 1.35,-11.149"
         style="fill:#231f20;fill-opacity:1;fill-rule:nonzero;stroke:none"
         id="path71" />
      <path
         d="m 1359.22,309.699 c -0.87,0.332 -1.86,0.496 -2.99,0.496 -1.27,0 -2.3,-0.281 -3.1,-0.847 -0.8,-0.567 -1.44,-1.317 -1.9,-2.254 -0.47,-0.93 -0.8,-1.996 -1,-3.196 -0.21,-1.203 -0.3,-2.433 -0.3,-3.703 V 293 h 8.2 v -9 h -8.11 v -42.004 h -10.99 V 284 h -6.41 v 9 h 6.41 v 7.395 c 0,2.668 0.28,5.187 0.85,7.554 0.56,2.364 1.46,4.414 2.69,6.149 1.24,1.734 2.86,3.101 4.86,4.101 2,1 4.39,1.5 7.19,1.5 0.81,0 1.7,-0.07 2.71,-0.203 1,-0.137 1.86,-0.332 2.6,-0.598 l -0.71,-9.199"
         style="fill:#231f20;fill-opacity:1;fill-rule:nonzero;stroke:none"
         id="path73" />
      <path
         d="m 1389.03,272.797 c 0,3.801 -0.61,6.883 -1.81,9.25 -1.2,2.367 -3.06,3.551 -5.59,3.551 -1.47,0 -2.72,-0.438 -3.75,-1.301 -1.04,-0.867 -1.87,-1.949 -2.5,-3.25 -0.64,-1.301 -1.12,-2.703 -1.46,-4.199 -0.33,-1.5 -0.5,-2.848 -0.5,-4.051 z m -15.7,-8.203 c 0,-1.996 0.19,-3.879 0.59,-5.649 0.4,-1.765 0.99,-3.297 1.76,-4.597 0.76,-1.301 1.7,-2.336 2.79,-3.102 1.11,-0.766 2.38,-1.148 3.86,-1.148 2.06,0 3.71,0.664 4.94,1.996 1.24,1.336 2.22,2.867 2.96,4.605 l 8.29,-4.801 c -1.46,-3.535 -3.54,-6.351 -6.25,-8.449 -2.69,-2.101 -6.14,-3.152 -10.34,-3.152 -5.94,0 -10.7,2.336 -14.31,7 -3.59,4.668 -5.4,11.367 -5.4,20.101 0,4.067 0.47,7.782 1.41,11.149 0.93,3.367 2.26,6.25 3.99,8.652 1.74,2.395 3.79,4.246 6.15,5.551 2.37,1.297 5.02,1.949 7.95,1.949 3.28,0 6.06,-0.672 8.35,-2.004 2.31,-1.332 4.17,-3.148 5.61,-5.449 1.42,-2.301 2.48,-5.016 3.14,-8.148 0.67,-3.137 1.01,-6.535 1.01,-10.2 v -4.304 h -26.5"
         style="fill:#231f20;fill-opacity:1;fill-rule:nonzero;stroke:none"
         id="path75" />
      <path
         d="m 1431.72,281.5 c -0.93,1.266 -2.1,2.301 -3.49,3.094 -1.41,0.801 -3,1.203 -4.81,1.203 -1.66,0 -3.06,-0.582 -4.2,-1.75 -1.13,-1.164 -1.7,-2.719 -1.7,-4.649 0,-2 0.61,-3.449 1.8,-4.347 1.2,-0.906 3.11,-1.824 5.7,-2.754 1.47,-0.535 2.92,-1.184 4.36,-1.949 1.43,-0.766 2.72,-1.75 3.9,-2.95 1.16,-1.203 2.1,-2.652 2.8,-4.351 0.69,-1.699 1.04,-3.715 1.04,-6.051 0,-2.797 -0.44,-5.246 -1.34,-7.348 -0.9,-2.097 -2.12,-3.851 -3.66,-5.25 -1.53,-1.402 -3.28,-2.433 -5.24,-3.097 -1.97,-0.672 -4.02,-1.004 -6.15,-1.004 -3.21,0 -6.19,0.637 -8.96,1.902 -2.76,1.262 -5.11,2.961 -7.05,5.098 l 6.11,7.199 c 1.2,-1.398 2.59,-2.598 4.19,-3.598 1.61,-1 3.47,-1.5 5.61,-1.5 1.87,0 3.33,0.633 4.39,1.903 1.07,1.262 1.61,2.929 1.61,5 0,2.394 -0.78,4.129 -2.36,5.199 -1.56,1.063 -3.64,2.066 -6.25,2.996 -1.33,0.465 -2.62,1.035 -3.89,1.699 -1.27,0.664 -2.44,1.571 -3.5,2.703 -1.07,1.133 -1.92,2.512 -2.56,4.149 -0.63,1.633 -0.95,3.617 -0.95,5.953 0,2.465 0.45,4.664 1.35,6.598 0.91,1.933 2.09,3.582 3.56,4.949 1.46,1.367 3.16,2.402 5.09,3.101 1.94,0.7 3.94,1.051 6.01,1.051 3.06,0 5.83,-0.554 8.29,-1.652 2.47,-1.098 4.57,-2.516 6.31,-4.246 l -6.01,-7.301"
         style="fill:#231f20;fill-opacity:1;fill-rule:nonzero;stroke:none"
         id="path77" />
      <path
         d="m 1468.23,281.5 c -0.94,1.266 -2.1,2.301 -3.51,3.094 -1.39,0.801 -3,1.203 -4.79,1.203 -1.67,0 -3.07,-0.582 -4.2,-1.75 -1.14,-1.164 -1.7,-2.719 -1.7,-4.649 0,-2 0.59,-3.449 1.8,-4.347 1.2,-0.906 3.09,-1.824 5.7,-2.754 1.46,-0.535 2.91,-1.184 4.34,-1.949 1.44,-0.766 2.74,-1.75 3.9,-2.95 1.17,-1.203 2.1,-2.652 2.8,-4.351 0.71,-1.699 1.06,-3.715 1.06,-6.051 0,-2.797 -0.45,-5.246 -1.36,-7.348 -0.9,-2.097 -2.11,-3.851 -3.64,-5.25 -1.54,-1.402 -3.29,-2.433 -5.26,-3.097 -1.96,-0.672 -4.01,-1.004 -6.15,-1.004 -3.19,0 -6.18,0.637 -8.94,1.902 -2.78,1.262 -5.12,2.961 -7.05,5.098 l 6.09,7.199 c 1.2,-1.398 2.61,-2.598 4.21,-3.598 1.59,-1 3.46,-1.5 5.59,-1.5 1.87,0 3.33,0.633 4.41,1.903 1.06,1.262 1.59,2.929 1.59,5 0,2.394 -0.78,4.129 -2.34,5.199 -1.58,1.063 -3.66,2.066 -6.25,2.996 -1.34,0.465 -2.64,1.035 -3.91,1.699 -1.26,0.664 -2.43,1.571 -3.5,2.703 -1.06,1.133 -1.91,2.512 -2.54,4.149 -0.64,1.633 -0.95,3.617 -0.95,5.953 0,2.465 0.45,4.664 1.35,6.598 0.89,1.933 2.08,3.582 3.54,4.949 1.47,1.367 3.17,2.402 5.11,3.101 1.93,0.7 3.92,1.051 5.99,1.051 3.07,0 5.83,-0.554 8.31,-1.652 2.46,-1.098 4.56,-2.516 6.29,-4.246 l -5.99,-7.301"
         style="fill:#231f20;fill-opacity:1;fill-rule:nonzero;stroke:none"
         id="path79" />
      <path
         d="M 1483.63,241.996 V 293 h 11.3 v -51.004 z m 12.2,65.801 c 0,-2 -0.64,-3.664 -1.91,-5 -1.26,-1.332 -2.83,-2 -4.7,-2 -1.93,0 -3.51,0.668 -4.74,2 -1.24,1.336 -1.86,3 -1.86,5 0,1.933 0.62,3.601 1.86,5 1.23,1.402 2.81,2.101 4.74,2.101 1.94,0 3.52,-0.699 4.75,-2.101 1.24,-1.399 1.86,-3.067 1.86,-5"
         style="fill:#231f20;fill-opacity:1;fill-rule:nonzero;stroke:none"
         id="path81" />
      <path
         d="m 1533.43,267.496 c 0,2.465 -0.17,4.75 -0.5,6.852 -0.34,2.097 -0.85,3.933 -1.55,5.5 -0.7,1.562 -1.57,2.8 -2.61,3.699 -1.03,0.902 -2.28,1.351 -3.75,1.351 -1.46,0 -2.71,-0.449 -3.75,-1.351 -1.03,-0.899 -1.88,-2.137 -2.54,-3.699 -0.67,-1.567 -1.17,-3.403 -1.5,-5.5 -0.34,-2.102 -0.51,-4.387 -0.51,-6.852 0,-2.398 0.17,-4.664 0.51,-6.797 0.33,-2.133 0.83,-3.969 1.5,-5.504 0.66,-1.531 1.51,-2.75 2.54,-3.648 1.04,-0.899 2.29,-1.352 3.75,-1.352 1.47,0 2.74,0.453 3.81,1.352 1.07,0.898 1.93,2.117 2.6,3.648 0.67,1.535 1.16,3.371 1.5,5.504 0.33,2.133 0.5,4.399 0.5,6.797 z m 11.3,-0.098 c 0,-4 -0.46,-7.668 -1.36,-11 -0.89,-3.335 -2.2,-6.183 -3.9,-8.55 -1.71,-2.368 -3.76,-4.219 -6.17,-5.551 -2.41,-1.336 -5.15,-2 -8.22,-2 -3.07,0 -5.82,0.664 -8.22,2 -2.41,1.332 -4.46,3.183 -6.17,5.551 -1.7,2.367 -3.01,5.215 -3.91,8.55 -0.91,3.332 -1.35,7 -1.35,11 0,4.067 0.44,7.782 1.35,11.149 0.9,3.367 2.19,6.25 3.86,8.652 1.67,2.395 3.73,4.246 6.16,5.551 2.44,1.297 5.21,1.949 8.28,1.949 3.07,0 5.81,-0.652 8.22,-1.949 2.41,-1.305 4.46,-3.156 6.17,-5.551 1.7,-2.402 3.01,-5.285 3.9,-8.652 0.9,-3.367 1.36,-7.082 1.36,-11.149"
         style="fill:#231f20;fill-opacity:1;fill-rule:nonzero;stroke:none"
         id="path83" />
      <path
         d="m 1566.53,293 v -8.102 h 0.19 c 0.94,2.735 2.48,5.047 4.65,6.95 2.17,1.898 4.86,2.851 8.06,2.851 2.79,0 5.05,-0.586 6.75,-1.75 1.7,-1.168 3.01,-2.719 3.94,-4.652 0.94,-1.934 1.57,-4.152 1.91,-6.652 0.33,-2.5 0.49,-5.047 0.49,-7.645 v -32.004 h -11.29 V 274 c 0,1.266 -0.07,2.547 -0.21,3.848 -0.13,1.297 -0.41,2.484 -0.85,3.55 -0.43,1.063 -1.06,1.915 -1.89,2.547 -0.84,0.637 -1.92,0.953 -3.26,0.953 -2.52,0 -4.55,-1.269 -6.04,-3.8 -1.5,-2.532 -2.26,-5.735 -2.26,-9.598 v -29.504 h -11.29 V 293 h 11.1"
         style="fill:#231f20;fill-opacity:1;fill-rule:nonzero;stroke:none"
         id="path85" />
      <path
         d="m 1626.42,265.898 h -3.3 c -1.4,0 -2.74,-0.117 -4.04,-0.351 -1.31,-0.234 -2.45,-0.684 -3.46,-1.348 -1,-0.668 -1.8,-1.586 -2.39,-2.754 -0.61,-1.168 -0.91,-2.644 -0.91,-4.449 0,-2.664 0.59,-4.633 1.76,-5.898 1.16,-1.27 2.51,-1.899 4.04,-1.899 1.53,0 2.83,0.43 3.91,1.301 1.06,0.863 1.91,1.961 2.55,3.301 0.63,1.332 1.09,2.812 1.39,4.445 0.3,1.633 0.45,3.219 0.45,4.754 z m 0.4,-16.304 c -0.73,-2.797 -2.06,-4.981 -3.99,-6.547 -1.94,-1.567 -4.5,-2.348 -7.71,-2.348 -1.46,0 -2.97,0.262 -4.5,0.801 -1.53,0.531 -2.91,1.414 -4.15,2.645 -1.23,1.238 -2.25,2.832 -3.05,4.8 -0.8,1.969 -1.2,4.352 -1.2,7.153 0,3.601 0.66,6.55 1.96,8.847 1.29,2.301 2.96,4.118 5,5.45 2.03,1.335 4.29,2.253 6.79,2.753 2.5,0.5 4.95,0.75 7.36,0.75 h 2.8 v 1.602 c 0,3.398 -0.7,5.848 -2.05,7.348 -1.37,1.5 -3.19,2.25 -5.45,2.25 -1.95,0 -3.69,-0.45 -5.26,-1.352 -1.57,-0.898 -2.92,-2.082 -4.05,-3.551 l -5.4,7.102 c 1.87,2.332 4.24,4.148 7.1,5.453 2.87,1.297 5.7,1.949 8.51,1.949 3.12,0 5.78,-0.5 7.95,-1.5 2.16,-1 3.91,-2.453 5.24,-4.351 1.34,-1.899 2.29,-4.254 2.85,-7.051 0.57,-2.797 0.85,-5.965 0.85,-9.5 v -30.301 h -9.39 v 7.598 h -0.21"
         style="fill:#231f20;fill-opacity:1;fill-rule:nonzero;stroke:none"
         id="path87" />
      <path
         d="m 1649.22,241.996 v 75.602 h 11.3 v -75.602 h -11.3"
         style="fill:#231f20;fill-opacity:1;fill-rule:nonzero;stroke:none"
         id="path89" />
      <path
         d="m 1687.83,248.695 c 0,-1.933 -0.62,-3.562 -1.85,-4.894 -1.24,-1.34 -2.75,-2.004 -4.55,-2.004 -1.93,0 -3.49,0.664 -4.66,2.004 -1.16,1.332 -1.75,2.961 -1.75,4.894 0,1.868 0.59,3.485 1.75,4.852 1.17,1.367 2.73,2.051 4.66,2.051 1.87,0 3.4,-0.684 4.6,-2.051 1.2,-1.367 1.8,-2.984 1.8,-4.852 z m 0,37.5 c 0,-1.996 -0.62,-3.644 -1.85,-4.949 -1.24,-1.301 -2.75,-1.949 -4.55,-1.949 -1.93,0 -3.49,0.648 -4.66,1.949 -1.16,1.305 -1.75,2.953 -1.75,4.949 0,1.868 0.59,3.469 1.75,4.801 1.17,1.332 2.73,2.004 4.66,2.004 1.87,0 3.4,-0.672 4.6,-2.004 1.2,-1.332 1.8,-2.933 1.8,-4.801"
         style="fill:#231f20;fill-opacity:1;fill-rule:nonzero;stroke:none"
         id="path91" />
      <path
         d="m 695.168,201.5 h -0.402 l -7.7,-35.102 h 15.602 z m 12.5,-59.504 -3.504,15 h -18.598 l -3.597,-15 h -12.004 l 17.598,70.801 h 15.304 l 17.301,-70.801 h -12.5"
         style="fill:#231f20;fill-opacity:1;fill-rule:nonzero;stroke:none"
         id="path93" />
      <path
         d="m 752.465,167.496 c 0,2.465 -0.184,4.75 -0.551,6.852 -0.367,2.097 -0.898,3.933 -1.598,5.5 -0.703,1.562 -1.601,2.8 -2.699,3.699 -1.097,0.902 -2.347,1.351 -3.75,1.351 -1.469,0 -2.734,-0.449 -3.797,-1.351 -1.07,-0.899 -1.941,-2.137 -2.605,-3.699 -0.668,-1.567 -1.164,-3.403 -1.496,-5.5 -0.34,-2.102 -0.504,-4.387 -0.504,-6.852 0,-2.398 0.164,-4.648 0.504,-6.75 0.332,-2.098 0.828,-3.933 1.496,-5.496 0.664,-1.566 1.535,-2.805 2.605,-3.703 1.063,-0.899 2.328,-1.352 3.797,-1.352 1.465,0 2.731,0.453 3.801,1.352 1.062,0.898 1.945,2.137 2.648,3.703 0.7,1.563 1.231,3.398 1.598,5.496 0.367,2.102 0.551,4.352 0.551,6.75 z m -0.199,-25.5 v 7.301 h -0.2 c -0.734,-2.535 -1.984,-4.668 -3.75,-6.402 -1.769,-1.731 -4.316,-2.598 -7.652,-2.598 -2.598,0 -4.93,0.699 -6.996,2.101 -2.07,1.403 -3.801,3.348 -5.199,5.848 -1.403,2.5 -2.469,5.438 -3.199,8.801 -0.739,3.367 -1.106,7.016 -1.106,10.949 0,3.863 0.352,7.434 1.051,10.699 0.703,3.27 1.754,6.086 3.148,8.453 1.403,2.364 3.117,4.215 5.153,5.547 2.031,1.332 4.414,2.004 7.148,2.004 2.805,0 5.164,-0.789 7.106,-2.351 1.929,-1.567 3.261,-3.52 4,-5.848 h 0.296 v 31.098 h 11.098 v -75.602 h -10.898"
         style="fill:#231f20;fill-opacity:1;fill-rule:nonzero;stroke:none"
         id="path95" />
      <path
         d="m 797.965,141.996 h -13.496 l -13.5,51 h 11.898 l 8.598,-39.098 h 0.199 l 8.301,39.098 h 11.5 l -13.5,-51"
         style="fill:#231f20;fill-opacity:1;fill-rule:nonzero;stroke:none"
         id="path97" />
      <path
         d="m 839.965,165.898 h -3.301 c -1.398,0 -2.746,-0.117 -4.047,-0.351 -1.304,-0.234 -2.449,-0.684 -3.453,-1.348 -1,-0.668 -1.797,-1.586 -2.394,-2.754 -0.602,-1.168 -0.907,-2.644 -0.907,-4.449 0,-2.664 0.586,-4.633 1.754,-5.898 1.164,-1.27 2.516,-1.899 4.047,-1.899 1.535,0 2.832,0.43 3.902,1.297 1.067,0.867 1.914,1.965 2.551,3.305 0.633,1.332 1.098,2.812 1.399,4.445 0.3,1.633 0.449,3.219 0.449,4.75 z m 0.402,-16.304 c -0.734,-2.797 -2.066,-4.981 -4,-6.547 -1.933,-1.567 -4.5,-2.348 -7.699,-2.348 -1.469,0 -2.969,0.262 -4.504,0.801 -1.531,0.531 -2.914,1.414 -4.148,2.645 -1.235,1.238 -2.25,2.832 -3.047,4.8 -0.801,1.969 -1.203,4.352 -1.203,7.153 0,3.601 0.652,6.55 1.949,8.847 1.301,2.301 2.969,4.118 5,5.45 2.035,1.335 4.301,2.253 6.801,2.753 2.5,0.5 4.953,0.75 7.351,0.75 h 2.801 v 1.598 c 0,3.402 -0.688,5.852 -2.051,7.352 -1.367,1.5 -3.183,2.25 -5.449,2.25 -1.938,0 -3.688,-0.45 -5.254,-1.352 -1.566,-0.898 -2.914,-2.082 -4.047,-3.551 l -5.402,7.102 c 1.867,2.332 4.234,4.148 7.101,5.453 2.868,1.297 5.7,1.949 8.5,1.949 3.129,0 5.782,-0.5 7.95,-1.5 2.168,-1 3.918,-2.453 5.25,-4.351 1.332,-1.899 2.285,-4.254 2.851,-7.051 0.567,-2.797 0.848,-5.965 0.848,-9.5 v -30.301 h -9.399 v 7.598 h -0.199"
         style="fill:#231f20;fill-opacity:1;fill-rule:nonzero;stroke:none"
         id="path99" />
      <path
         d="m 874.066,192.996 v -8.098 h 0.204 c 0.929,2.735 2.476,5.047 4.648,6.95 2.168,1.898 4.848,2.851 8.051,2.851 2.797,0 5.047,-0.586 6.746,-1.75 1.699,-1.168 3.019,-2.719 3.953,-4.652 0.93,-1.934 1.566,-4.152 1.898,-6.652 0.332,-2.5 0.504,-5.047 0.504,-7.645 V 141.996 H 888.766 V 174 c 0,1.266 -0.063,2.547 -0.2,3.848 -0.132,1.297 -0.418,2.484 -0.851,3.55 -0.434,1.063 -1.063,1.915 -1.899,2.547 -0.836,0.637 -1.914,0.953 -3.246,0.953 -2.535,0 -4.55,-1.269 -6.05,-3.8 -1.504,-2.532 -2.25,-5.735 -2.25,-9.598 v -29.504 h -11.301 v 51 h 11.097"
         style="fill:#231f20;fill-opacity:1;fill-rule:nonzero;stroke:none"
         id="path101" />
      <path
         d="m 936.266,141.547 c -2.004,-0.832 -4.27,-1.25 -6.801,-1.25 -3.137,0 -5.906,0.664 -8.317,2 -2.414,1.332 -4.429,3.215 -6.039,5.652 -1.617,2.434 -2.828,5.313 -3.632,8.649 -0.809,3.336 -1.211,7 -1.211,11 0,4 0.418,7.668 1.257,11 0.844,3.332 2.086,6.199 3.735,8.601 1.648,2.395 3.664,4.246 6.043,5.551 2.375,1.297 5.129,1.949 8.265,1.949 2.735,0 5.082,-0.469 7.051,-1.402 1.961,-0.934 3.516,-1.969 4.649,-3.102 l -5.098,-8.496 c -0.738,0.797 -1.59,1.465 -2.555,1.996 -0.965,0.535 -2.148,0.801 -3.55,0.801 -2.797,0 -4.915,-1.547 -6.348,-4.648 -1.434,-3.102 -2.152,-7.188 -2.152,-12.25 0,-5.067 0.738,-9.137 2.203,-12.203 1.464,-3.067 3.699,-4.598 6.699,-4.598 1.402,0 2.601,0.269 3.598,0.801 1,0.531 1.871,1.265 2.601,2.203 l 4.703,-8.805 c -1.402,-1.465 -3.101,-2.617 -5.101,-3.449"
         style="fill:#231f20;fill-opacity:1;fill-rule:nonzero;stroke:none"
         id="path103" />
      <path
         d="m 972.164,172.797 c 0,3.801 -0.601,6.883 -1.801,9.25 -1.203,2.367 -3.066,3.551 -5.601,3.551 -1.465,0 -2.715,-0.438 -3.75,-1.301 -1.032,-0.867 -1.867,-1.949 -2.5,-3.25 -0.637,-1.301 -1.114,-2.703 -1.449,-4.199 -0.333,-1.5 -0.5,-2.848 -0.5,-4.051 z m -15.699,-8.203 c 0,-1.996 0.195,-3.879 0.598,-5.649 0.398,-1.765 0.984,-3.297 1.75,-4.597 0.765,-1.301 1.699,-2.336 2.8,-3.102 1.102,-0.766 2.383,-1.148 3.852,-1.148 2.066,0 3.715,0.664 4.945,1.996 1.235,1.336 2.219,2.867 2.953,4.605 l 8.297,-4.801 c -1.465,-3.535 -3.551,-6.351 -6.25,-8.449 -2.695,-2.101 -6.148,-3.152 -10.347,-3.152 -5.938,0 -10.704,2.336 -14.301,7 -3.598,4.668 -5.399,11.367 -5.399,20.101 0,4.067 0.465,7.782 1.399,11.149 0.933,3.367 2.265,6.25 4,8.652 1.734,2.395 3.785,4.246 6.152,5.551 2.363,1.297 5.016,1.949 7.949,1.949 3.266,0 6.051,-0.672 8.352,-2.004 2.297,-1.332 4.164,-3.148 5.598,-5.449 1.433,-2.301 2.48,-5.016 3.152,-8.148 0.664,-3.137 1,-6.535 1,-10.2 v -4.304 h -26.5"
         style="fill:#231f20;fill-opacity:1;fill-rule:nonzero;stroke:none"
         id="path105" />
      <path
         d="m 1018.46,167.496 c 0,2.465 -0.18,4.75 -0.55,6.852 -0.37,2.097 -0.9,3.933 -1.6,5.5 -0.7,1.562 -1.6,2.8 -2.7,3.699 -1.09,0.902 -2.34,1.351 -3.75,1.351 -1.47,0 -2.73,-0.449 -3.8,-1.351 -1.06,-0.899 -1.93,-2.137 -2.6,-3.699 -0.67,-1.567 -1.16,-3.403 -1.5,-5.5 -0.33,-2.102 -0.5,-4.387 -0.5,-6.852 0,-2.398 0.17,-4.648 0.5,-6.75 0.34,-2.098 0.83,-3.933 1.5,-5.496 0.67,-1.566 1.54,-2.805 2.6,-3.703 1.07,-0.899 2.33,-1.352 3.8,-1.352 1.47,0 2.73,0.453 3.8,1.352 1.07,0.898 1.95,2.137 2.65,3.703 0.7,1.563 1.23,3.398 1.6,5.496 0.37,2.102 0.55,4.352 0.55,6.75 z m -0.2,-25.5 v 7.301 h -0.2 c -0.73,-2.535 -1.98,-4.668 -3.75,-6.402 -1.77,-1.731 -4.31,-2.598 -7.65,-2.598 -2.6,0 -4.93,0.699 -6.996,2.101 -2.07,1.403 -3.801,3.348 -5.199,5.848 -1.402,2.5 -2.469,5.438 -3.199,8.801 -0.739,3.367 -1.106,7.016 -1.106,10.949 0,3.863 0.352,7.434 1.051,10.699 0.703,3.27 1.754,6.086 3.148,8.453 1.403,2.364 3.118,4.215 5.153,5.547 2.028,1.332 4.418,2.004 7.148,2.004 2.8,0 5.17,-0.789 7.11,-2.351 1.92,-1.567 3.26,-3.52 3.99,-5.848 h 0.3 v 31.098 h 11.1 v -75.602 h -10.9"
         style="fill:#231f20;fill-opacity:1;fill-rule:nonzero;stroke:none"
         id="path107" />
      <path
         d="m 1090.86,191.742 c 0,3.785 -0.9,6.539 -2.7,8.27 -1.8,1.722 -4.1,2.586 -6.9,2.586 h -6.8 v -22.403 h 6.8 c 2.8,0 5.1,0.981 6.9,2.942 1.8,1.957 2.7,4.824 2.7,8.605 z m 11.29,0.156 c 0,-3.601 -0.54,-6.75 -1.64,-9.453 -1.09,-2.699 -2.54,-4.949 -4.33,-6.746 -1.79,-1.801 -3.85,-3.136 -6.17,-4 -2.33,-0.867 -4.73,-1.304 -7.18,-1.304 h -8.37 v -28.399 h -11.8 v 70.801 h 19.55 c 2.26,0 4.59,-0.336 6.98,-1 2.4,-0.668 4.54,-1.817 6.43,-3.453 1.9,-1.629 3.46,-3.781 4.69,-6.446 1.23,-2.668 1.84,-6 1.84,-10"
         style="fill:#231f20;fill-opacity:1;fill-rule:nonzero;stroke:none"
         id="path109" />
      <path
         d="m 1124.97,191.797 c 1.86,1.933 4.06,2.902 6.59,2.902 0.33,0 0.61,0 0.85,0 0.23,0 0.52,-0.07 0.85,-0.203 l -0.6,-11.601 c -0.73,0.203 -1.53,0.304 -2.4,0.304 -1.47,0 -2.76,-0.449 -3.9,-1.351 -1.13,-0.899 -2.1,-2.086 -2.9,-3.551 -0.8,-1.465 -1.39,-3.137 -1.79,-5 -0.4,-1.867 -0.61,-3.766 -0.61,-5.699 v -25.602 h -11.49 v 51 h 11.09 v -9.797 h 0.2 c 0.86,3.797 2.23,6.664 4.11,8.598"
         style="fill:#231f20;fill-opacity:1;fill-rule:nonzero;stroke:none"
         id="path111" />
      <path
         d="m 1164.46,167.496 c 0,2.465 -0.17,4.75 -0.5,6.852 -0.33,2.097 -0.85,3.933 -1.55,5.5 -0.71,1.562 -1.56,2.8 -2.6,3.699 -1.04,0.902 -2.29,1.351 -3.75,1.351 -1.46,0 -2.71,-0.449 -3.75,-1.351 -1.04,-0.899 -1.88,-2.137 -2.55,-3.699 -0.67,-1.567 -1.17,-3.403 -1.5,-5.5 -0.33,-2.102 -0.5,-4.387 -0.5,-6.852 0,-2.398 0.17,-4.664 0.5,-6.797 0.33,-2.133 0.83,-3.969 1.5,-5.504 0.67,-1.531 1.51,-2.75 2.55,-3.648 1.04,-0.899 2.29,-1.352 3.75,-1.352 1.46,0 2.73,0.453 3.8,1.352 1.06,0.898 1.93,2.117 2.6,3.648 0.66,1.535 1.17,3.371 1.5,5.504 0.33,2.133 0.5,4.399 0.5,6.797 z m 11.3,-0.098 c 0,-4 -0.45,-7.668 -1.35,-11 -0.91,-3.335 -2.21,-6.183 -3.92,-8.55 -1.7,-2.368 -3.76,-4.219 -6.16,-5.551 -2.41,-1.336 -5.15,-2 -8.22,-2 -3.08,0 -5.81,0.664 -8.22,2 -2.41,1.332 -4.47,3.183 -6.17,5.551 -1.7,2.367 -3,5.215 -3.91,8.55 -0.9,3.332 -1.35,7 -1.35,11 0,4.067 0.45,7.782 1.35,11.149 0.91,3.367 2.19,6.25 3.87,8.652 1.67,2.395 3.72,4.246 6.16,5.551 2.44,1.297 5.19,1.949 8.27,1.949 3.07,0 5.81,-0.652 8.22,-1.949 2.4,-1.305 4.46,-3.156 6.16,-5.551 1.71,-2.402 3.01,-5.285 3.92,-8.652 0.9,-3.367 1.35,-7.082 1.35,-11.149"
         style="fill:#231f20;fill-opacity:1;fill-rule:nonzero;stroke:none"
         id="path113" />
      <path
         d="m 1211.35,167.598 c 0,2.398 -0.18,4.664 -0.54,6.8 -0.38,2.129 -0.9,3.965 -1.61,5.5 -0.7,1.532 -1.58,2.75 -2.64,3.649 -1.07,0.902 -2.31,1.351 -3.7,1.351 -1.47,0 -2.74,-0.449 -3.8,-1.351 -1.07,-0.899 -1.94,-2.117 -2.6,-3.649 -0.67,-1.535 -1.17,-3.371 -1.5,-5.5 -0.34,-2.136 -0.5,-4.402 -0.5,-6.8 0,-2.403 0.16,-4.668 0.5,-6.801 0.33,-2.133 0.83,-3.984 1.5,-5.547 0.66,-1.566 1.53,-2.805 2.6,-3.703 1.06,-0.899 2.33,-1.352 3.8,-1.352 1.39,0 2.63,0.453 3.7,1.352 1.06,0.898 1.94,2.137 2.64,3.703 0.71,1.563 1.23,3.414 1.61,5.547 0.36,2.133 0.54,4.398 0.54,6.801 z m 10.71,-24.2 c 0,-3.804 -0.38,-7.25 -1.11,-10.351 -0.73,-3.102 -1.93,-5.766 -3.59,-7.996 -1.67,-2.238 -3.8,-3.973 -6.41,-5.203 -2.6,-1.235 -5.76,-1.852 -9.49,-1.852 -3.53,0 -6.9,0.688 -10.11,2.055 -3.19,1.367 -5.83,3.183 -7.9,5.445 l 6.11,8.102 c 1.46,-1.602 3.18,-2.934 5.14,-4.004 1.98,-1.063 4.12,-1.598 6.46,-1.598 1.86,0 3.43,0.387 4.69,1.149 1.27,0.769 2.29,1.804 3.05,3.101 0.77,1.301 1.32,2.836 1.65,4.602 0.33,1.765 0.51,3.683 0.51,5.75 v 6.203 h -0.21 c -0.73,-2.274 -2.08,-4.188 -4.05,-5.754 -1.96,-1.567 -4.34,-2.348 -7.15,-2.348 -2.73,0 -5.13,0.664 -7.19,1.996 -2.07,1.332 -3.79,3.203 -5.15,5.602 -1.37,2.402 -2.4,5.234 -3.11,8.5 -0.7,3.266 -1.04,6.832 -1.04,10.699 0,3.934 0.36,7.567 1.09,10.902 0.74,3.332 1.81,6.196 3.21,8.598 1.39,2.402 3.11,4.285 5.14,5.652 2.03,1.368 4.39,2.051 7.05,2.051 3.28,0 5.78,-0.851 7.5,-2.551 1.74,-1.699 3,-3.816 3.8,-6.351 h 0.31 v 7.199 h 10.8 v -49.598"
         style="fill:#231f20;fill-opacity:1;fill-rule:nonzero;stroke:none"
         id="path115" />
      <path
         d="m 1251.16,191.797 c 1.86,1.933 4.06,2.902 6.6,2.902 0.33,0 0.61,0 0.85,0 0.23,0 0.52,-0.07 0.85,-0.203 l -0.61,-11.601 c -0.73,0.203 -1.53,0.304 -2.39,0.304 -1.47,0 -2.77,-0.449 -3.91,-1.351 -1.13,-0.899 -2.1,-2.086 -2.9,-3.551 -0.8,-1.465 -1.39,-3.137 -1.79,-5 -0.4,-1.867 -0.6,-3.766 -0.6,-5.699 v -25.602 h -11.5 v 51 h 11.1 v -9.797 h 0.2 c 0.87,3.797 2.23,6.664 4.1,8.598"
         style="fill:#231f20;fill-opacity:1;fill-rule:nonzero;stroke:none"
         id="path117" />
      <path
         d="m 1286.35,165.898 h -3.3 c -1.39,0 -2.74,-0.117 -4.04,-0.351 -1.31,-0.234 -2.45,-0.684 -3.46,-1.348 -0.99,-0.668 -1.79,-1.586 -2.39,-2.754 -0.61,-1.168 -0.91,-2.644 -0.91,-4.449 0,-2.664 0.59,-4.633 1.76,-5.898 1.16,-1.27 2.51,-1.899 4.04,-1.899 1.54,0 2.83,0.43 3.91,1.297 1.06,0.867 1.91,1.965 2.55,3.305 0.63,1.332 1.09,2.812 1.39,4.445 0.31,1.633 0.45,3.219 0.45,4.75 z m 0.4,-16.304 c -0.73,-2.797 -2.06,-4.981 -3.99,-6.547 -1.93,-1.567 -4.5,-2.348 -7.71,-2.348 -1.46,0 -2.96,0.262 -4.5,0.801 -1.53,0.531 -2.91,1.414 -4.15,2.645 -1.23,1.238 -2.24,2.832 -3.05,4.8 -0.8,1.969 -1.2,4.352 -1.2,7.153 0,3.601 0.66,6.55 1.96,8.847 1.3,2.301 2.97,4.118 5,5.45 2.03,1.335 4.29,2.253 6.79,2.753 2.5,0.5 4.95,0.75 7.36,0.75 h 2.8 v 1.598 c 0,3.402 -0.69,5.852 -2.05,7.352 -1.37,1.5 -3.18,2.25 -5.45,2.25 -1.94,0 -3.69,-0.45 -5.25,-1.352 -1.58,-0.898 -2.92,-2.082 -4.06,-3.551 l -5.4,7.102 c 1.87,2.332 4.24,4.148 7.1,5.453 2.87,1.297 5.71,1.949 8.51,1.949 3.12,0 5.78,-0.5 7.95,-1.5 2.17,-1 3.91,-2.453 5.24,-4.351 1.34,-1.899 2.29,-4.254 2.85,-7.051 0.57,-2.797 0.85,-5.965 0.85,-9.5 v -30.301 h -9.39 v 7.598 h -0.21"
         style="fill:#231f20;fill-opacity:1;fill-rule:nonzero;stroke:none"
         id="path119" />
      <path
         d="m 1324.99,191.848 c 2.09,1.898 4.79,2.851 8.11,2.851 1.8,0 3.36,-0.269 4.69,-0.801 1.33,-0.535 2.45,-1.25 3.38,-2.152 0.93,-0.902 1.72,-1.949 2.34,-3.148 0.64,-1.2 1.11,-2.434 1.45,-3.7 h 0.19 c 0.4,1.2 0.99,2.383 1.76,3.551 0.76,1.164 1.7,2.215 2.79,3.149 1.11,0.933 2.39,1.683 3.86,2.25 1.46,0.566 3.12,0.851 5,0.851 2.79,0 5.05,-0.586 6.75,-1.75 1.7,-1.168 3.02,-2.719 3.94,-4.652 0.94,-1.934 1.58,-4.152 1.91,-6.652 0.33,-2.5 0.5,-5.047 0.5,-7.645 v -32.004 h -11.3 V 174 c 0,1.266 -0.07,2.547 -0.21,3.848 -0.13,1.297 -0.41,2.484 -0.85,3.55 -0.43,1.063 -1.06,1.915 -1.89,2.547 -0.84,0.637 -1.92,0.953 -3.25,0.953 -2.53,0 -4.56,-1.269 -6.05,-3.8 -1.5,-2.532 -2.26,-5.735 -2.26,-9.598 v -29.504 h -11.09 V 174 c 0,1.266 -0.07,2.547 -0.2,3.848 -0.13,1.297 -0.41,2.484 -0.84,3.55 -0.43,1.063 -1.05,1.915 -1.84,2.547 -0.8,0.637 -1.86,0.953 -3.18,0.953 -2.51,0 -4.49,-1.269 -5.91,-3.8 -1.43,-2.532 -2.13,-5.703 -2.13,-9.5 v -29.602 h -11.3 v 51 h 11.19 v -8.098 h 0.21 c 0.73,2.735 2.14,5.047 4.23,6.95"
         style="fill:#231f20;fill-opacity:1;fill-rule:nonzero;stroke:none"
         id="path121" />
      <path
         d="m 1400.69,191.848 c 2.09,1.898 4.79,2.851 8.11,2.851 1.79,0 3.35,-0.269 4.68,-0.801 1.33,-0.535 2.46,-1.25 3.39,-2.152 0.93,-0.902 1.71,-1.949 2.34,-3.148 0.63,-1.2 1.12,-2.434 1.45,-3.7 h 0.19 c 0.41,1.2 0.99,2.383 1.75,3.551 0.77,1.164 1.7,2.215 2.81,3.149 1.1,0.933 2.38,1.683 3.84,2.25 1.47,0.566 3.14,0.851 5,0.851 2.81,0 5.05,-0.586 6.75,-1.75 1.7,-1.168 3.02,-2.719 3.96,-4.652 0.92,-1.934 1.56,-4.152 1.89,-6.652 0.33,-2.5 0.51,-5.047 0.51,-7.645 v -32.004 h -11.31 V 174 c 0,1.266 -0.06,2.547 -0.2,3.848 -0.13,1.297 -0.42,2.484 -0.84,3.55 -0.44,1.063 -1.07,1.915 -1.91,2.547 -0.83,0.637 -1.91,0.953 -3.24,0.953 -2.54,0 -4.55,-1.269 -6.06,-3.8 -1.5,-2.532 -2.24,-5.735 -2.24,-9.598 v -29.504 h -11.11 V 174 c 0,1.266 -0.06,2.547 -0.19,3.848 -0.14,1.297 -0.42,2.484 -0.85,3.55 -0.43,1.063 -1.05,1.915 -1.84,2.547 -0.79,0.637 -1.85,0.953 -3.17,0.953 -2.52,0 -4.49,-1.269 -5.91,-3.8 -1.42,-2.532 -2.14,-5.703 -2.14,-9.5 v -29.602 h -11.3 v 51 h 11.21 v -8.098 h 0.19 c 0.73,2.735 2.15,5.047 4.24,6.95"
         style="fill:#231f20;fill-opacity:1;fill-rule:nonzero;stroke:none"
         id="path123" />
      <path
         d="m 1460.55,141.996 v 51 h 11.3 v -51 z m 12.2,65.801 c 0,-2 -0.64,-3.664 -1.9,-5 -1.26,-1.332 -2.83,-2 -4.69,-2 -1.95,0 -3.53,0.668 -4.76,2 -1.23,1.336 -1.84,3 -1.84,5 0,1.933 0.61,3.601 1.84,5 1.23,1.402 2.81,2.101 4.76,2.101 1.92,0 3.51,-0.699 4.74,-2.101 1.23,-1.399 1.85,-3.067 1.85,-5"
         style="fill:#231f20;fill-opacity:1;fill-rule:nonzero;stroke:none"
         id="path125" />
      <path
         d="m 1496.66,192.996 v -8.098 h 0.19 c 0.94,2.735 2.48,5.047 4.65,6.95 2.17,1.898 4.85,2.851 8.06,2.851 2.79,0 5.04,-0.586 6.74,-1.75 1.7,-1.168 3.02,-2.719 3.95,-4.652 0.94,-1.934 1.57,-4.152 1.9,-6.652 0.34,-2.5 0.5,-5.047 0.5,-7.645 v -32.004 h -11.3 V 174 c 0,1.266 -0.07,2.547 -0.2,3.848 -0.13,1.297 -0.41,2.484 -0.85,3.55 -0.43,1.063 -1.07,1.915 -1.9,2.547 -0.84,0.637 -1.91,0.953 -3.25,0.953 -2.53,0 -4.55,-1.269 -6.04,-3.8 -1.51,-2.532 -2.26,-5.735 -2.26,-9.598 v -29.504 h -11.3 v 51 h 11.11"
         style="fill:#231f20;fill-opacity:1;fill-rule:nonzero;stroke:none"
         id="path127" />
      <path
         d="m 1560.95,167.598 c 0,2.398 -0.18,4.664 -0.55,6.8 -0.37,2.129 -0.9,3.965 -1.6,5.5 -0.7,1.532 -1.59,2.75 -2.65,3.649 -1.07,0.902 -2.3,1.351 -3.7,1.351 -1.47,0 -2.74,-0.449 -3.8,-1.351 -1.07,-0.899 -1.94,-2.117 -2.6,-3.649 -0.66,-1.535 -1.16,-3.371 -1.5,-5.5 -0.34,-2.136 -0.5,-4.402 -0.5,-6.8 0,-2.403 0.16,-4.668 0.5,-6.801 0.34,-2.133 0.84,-3.984 1.5,-5.547 0.66,-1.566 1.53,-2.805 2.6,-3.703 1.06,-0.899 2.33,-1.352 3.8,-1.352 1.4,0 2.63,0.453 3.7,1.352 1.06,0.898 1.95,2.137 2.65,3.703 0.7,1.563 1.23,3.414 1.6,5.547 0.37,2.133 0.55,4.398 0.55,6.801 z m 10.7,-24.2 c 0,-3.804 -0.37,-7.25 -1.1,-10.351 -0.73,-3.102 -1.93,-5.766 -3.6,-7.996 -1.67,-2.238 -3.8,-3.973 -6.4,-5.203 -2.6,-1.235 -5.77,-1.852 -9.5,-1.852 -3.54,0 -6.9,0.688 -10.1,2.055 -3.2,1.367 -5.84,3.183 -7.9,5.445 l 6.1,8.102 c 1.47,-1.602 3.18,-2.934 5.15,-4.004 1.96,-1.063 4.11,-1.598 6.45,-1.598 1.86,0 3.43,0.387 4.7,1.149 1.26,0.769 2.28,1.804 3.05,3.101 0.76,1.301 1.32,2.836 1.65,4.602 0.33,1.765 0.5,3.683 0.5,5.75 v 6.203 h -0.2 c -0.74,-2.274 -2.09,-4.188 -4.05,-5.754 -1.97,-1.567 -4.35,-2.348 -7.15,-2.348 -2.73,0 -5.13,0.664 -7.2,1.996 -2.06,1.332 -3.78,3.203 -5.15,5.602 -1.37,2.402 -2.4,5.234 -3.1,8.5 -0.7,3.266 -1.05,6.832 -1.05,10.699 0,3.934 0.37,7.567 1.1,10.902 0.74,3.332 1.8,6.196 3.2,8.598 1.4,2.402 3.11,4.285 5.15,5.652 2.03,1.368 4.39,2.051 7.05,2.051 3.26,0 5.76,-0.851 7.5,-2.551 1.73,-1.699 3,-3.816 3.8,-6.351 h 0.3 v 7.199 h 10.8 v -49.598"
         style="fill:#231f20;fill-opacity:1;fill-rule:nonzero;stroke:none"
         id="path129" />
      <path
         d="m 719.164,56.5977 c -0.801,-3.2657 -2.098,-6.1172 -3.898,-8.5508 -1.797,-2.4375 -4.118,-4.3516 -6.95,-5.75 -2.832,-1.3985 -6.285,-2.1016 -10.351,-2.1016 -4.067,0 -7.5,0.7031 -10.297,2.1016 -2.805,1.3984 -5.086,3.3125 -6.852,5.75 -1.769,2.4336 -3.031,5.2851 -3.8,8.5508 -0.766,3.2656 -1.153,6.7656 -1.153,10.4961 v 45.7032 h 12.004 V 68.1992 c 0,-2.2031 0.153,-4.3164 0.449,-6.3515 0.297,-2.0313 0.836,-3.8164 1.602,-5.3477 0.766,-1.5391 1.816,-2.7539 3.148,-3.6523 1.332,-0.8985 3.032,-1.3477 5.098,-1.3477 2.066,0 3.77,0.4492 5.102,1.3477 1.336,0.8984 2.382,2.1132 3.152,3.6523 0.766,1.5313 1.297,3.3164 1.602,5.3477 0.296,2.0351 0.449,4.1484 0.449,6.3515 v 44.5978 h 11.898 V 67.0938 c 0,-3.7305 -0.402,-7.2305 -1.203,-10.4961"
         style="fill:#231f20;fill-opacity:1;fill-rule:nonzero;stroke:none"
         id="path131" />
      <path
         d="m 754.965,81.5 c -0.938,1.2656 -2.098,2.3008 -3.5,3.0938 -1.402,0.8007 -2.996,1.2031 -4.801,1.2031 -1.664,0 -3.066,-0.5821 -4.199,-1.75 -1.137,-1.1641 -1.699,-2.7188 -1.699,-4.6485 0,-2 0.601,-3.4492 1.797,-4.3476 1.203,-0.9063 3.101,-1.8242 5.703,-2.7539 1.464,-0.5352 2.918,-1.1836 4.351,-1.9492 1.43,-0.7657 2.731,-1.75 3.899,-2.9493 1.164,-1.2031 2.097,-2.6523 2.8,-4.3515 0.7,-1.6992 1.051,-3.7149 1.051,-6.0508 0,-2.7969 -0.449,-5.25 -1.351,-7.3477 -0.899,-2.0976 -2.118,-3.8515 -3.649,-5.25 -1.539,-1.4023 -3.289,-2.4336 -5.25,-3.0976 -1.969,-0.6719 -4.019,-1.0039 -6.152,-1.0039 -3.199,0 -6.188,0.6367 -8.949,1.9023 -2.77,1.2617 -5.118,2.961 -7.051,5.0977 l 6.098,7.1992 c 1.203,-1.3984 2.601,-2.5977 4.203,-3.5977 1.597,-1 3.464,-1.5 5.601,-1.5 1.867,0 3.332,0.6329 4.399,1.9024 1.066,1.2617 1.597,2.9297 1.597,5 0,2.3945 -0.781,4.1289 -2.347,5.1992 -1.567,1.0625 -3.649,2.0664 -6.25,2.9961 -1.332,0.4648 -2.633,1.0352 -3.903,1.6992 -1.265,0.6641 -2.429,1.5703 -3.496,2.7031 -1.07,1.1329 -1.918,2.5118 -2.554,4.1485 -0.633,1.6328 -0.946,3.6172 -0.946,5.9531 0,2.4648 0.449,4.6641 1.348,6.5977 0.902,1.9336 2.086,3.582 3.551,4.9492 1.464,1.3672 3.168,2.4023 5.101,3.1015 1.934,0.6993 3.93,1.0508 6,1.0508 3.063,0 5.832,-0.5547 8.297,-1.6523 2.465,-1.0977 4.566,-2.5156 6.305,-4.2461 L 754.965,81.5"
         style="fill:#231f20;fill-opacity:1;fill-rule:nonzero;stroke:none"
         id="path133" />
      <path
         d="m 770.367,41.9961 v 51 h 11.297 v -51 z m 12.196,65.8009 c 0,-2 -0.633,-3.664 -1.899,-5 -1.266,-1.332 -2.832,-2 -4.695,-2 -1.942,0 -3.524,0.668 -4.754,2 -1.235,1.336 -1.848,3 -1.848,5 0,1.933 0.613,3.601 1.848,5 1.23,1.402 2.812,2.101 4.754,2.101 1.926,0 3.515,-0.699 4.746,-2.101 1.234,-1.399 1.848,-3.067 1.848,-5"
         style="fill:#231f20;fill-opacity:1;fill-rule:nonzero;stroke:none"
         id="path135" />
      <path
         d="m 806.465,92.9961 v -8.0977 h 0.199 c 0.934,2.7344 2.481,5.0469 4.649,6.9493 2.167,1.8984 4.847,2.8515 8.054,2.8515 2.797,0 5.047,-0.5859 6.746,-1.75 1.7,-1.1679 3.02,-2.7187 3.95,-4.6523 0.933,-1.9336 1.57,-4.1524 1.902,-6.6524 0.332,-2.5 0.5,-5.0468 0.5,-7.6445 V 41.9961 H 821.16 V 74 c 0,1.2656 -0.062,2.5469 -0.199,3.8477 -0.133,1.2968 -0.414,2.4843 -0.848,3.5507 -0.433,1.0625 -1.066,1.9141 -1.898,2.5469 -0.836,0.6367 -1.914,0.9531 -3.25,0.9531 -2.531,0 -4.551,-1.2695 -6.047,-3.8007 -1.508,-2.5313 -2.254,-5.7344 -2.254,-9.5977 V 41.9961 h -11.297 v 51 h 11.098"
         style="fill:#231f20;fill-opacity:1;fill-rule:nonzero;stroke:none"
         id="path137" />
      <path
         d="m 870.762,67.5977 c 0,2.3984 -0.184,4.664 -0.551,6.8007 -0.367,2.1289 -0.898,3.9649 -1.598,5.5 -0.703,1.5313 -1.586,2.75 -2.652,3.6485 -1.063,0.9023 -2.301,1.3515 -3.699,1.3515 -1.465,0 -2.735,-0.4492 -3.801,-1.3515 -1.063,-0.8985 -1.934,-2.1172 -2.598,-3.6485 -0.668,-1.5351 -1.164,-3.3711 -1.504,-5.5 -0.332,-2.1367 -0.496,-4.4023 -0.496,-6.8007 0,-2.4024 0.164,-4.668 0.496,-6.8008 0.34,-2.1328 0.836,-3.9844 1.504,-5.5469 0.664,-1.5664 1.535,-2.8047 2.598,-3.7031 1.066,-0.8985 2.336,-1.3516 3.801,-1.3516 1.398,0 2.636,0.4531 3.699,1.3516 1.066,0.8984 1.949,2.1367 2.652,3.7031 0.7,1.5625 1.231,3.4141 1.598,5.5469 0.367,2.1328 0.551,4.3984 0.551,6.8008 z m 10.699,-24.1993 c 0,-3.8046 -0.367,-7.25 -1.098,-10.3515 -0.734,-3.1016 -1.933,-5.7656 -3.601,-7.9961 -1.668,-2.2383 -3.797,-3.9727 -6.399,-5.2031 C 867.766,18.6133 864.594,18 860.863,18 c -3.535,0 -6.902,0.6836 -10.101,2.0508 -3.199,1.3633 -5.836,3.1836 -7.899,5.4492 l 6.098,8.0977 c 1.469,-1.6016 3.184,-2.9336 5.152,-4.0039 1.965,-1.0625 4.114,-1.5938 6.45,-1.5938 1.863,0 3.433,0.3828 4.703,1.1445 1.261,0.7696 2.277,1.8047 3.047,3.1016 0.765,1.3008 1.316,2.8359 1.648,4.6016 0.332,1.7656 0.504,3.6836 0.504,5.75 v 6.2031 h -0.199 c -0.739,-2.2735 -2.086,-4.1875 -4.055,-5.7539 -1.969,-1.5664 -4.352,-2.3477 -7.148,-2.3477 -2.735,0 -5.137,0.6641 -7.204,1.9961 -2.062,1.332 -3.781,3.2031 -5.144,5.6016 -1.367,2.4023 -2.402,5.2344 -3.102,8.5 -0.703,3.2656 -1.05,6.832 -1.05,10.6992 0,3.9336 0.367,7.5664 1.097,10.9023 0.735,3.3321 1.805,6.1954 3.199,8.5977 1.403,2.4023 3.118,4.2852 5.153,5.6523 2.031,1.3672 4.386,2.0508 7.051,2.0508 3.265,0 5.765,-0.8515 7.5,-2.5508 1.734,-1.6992 3,-3.8164 3.8,-6.3515 h 0.301 v 7.1992 h 10.797 V 43.3984"
         style="fill:#231f20;fill-opacity:1;fill-rule:nonzero;stroke:none"
         id="path139" />
      <path
         d="m 942.66,99.0977 c -2.597,3.1323 -5.867,4.7033 -9.797,4.7033 -1.133,0 -2.238,-0.188 -3.3,-0.555 -1.067,-0.363 -2.04,-0.949 -2.903,-1.746 -0.863,-0.801 -1.547,-1.8359 -2.051,-3.1016 -0.496,-1.2695 -0.746,-2.7695 -0.746,-4.5 0,-3 0.899,-5.3203 2.7,-6.9492 1.796,-1.6367 4.164,-3.1836 7.097,-4.6523 1.735,-0.8672 3.504,-1.8672 5.301,-3 1.801,-1.1328 3.434,-2.5 4.902,-4.1016 1.465,-1.5976 2.664,-3.4961 3.598,-5.6992 0.934,-2.1992 1.402,-4.7969 1.402,-7.7969 0,-3.4726 -0.55,-6.539 -1.652,-9.2031 -1.098,-2.668 -2.566,-4.918 -4.398,-6.75 -1.836,-1.8359 -3.985,-3.2148 -6.45,-4.1484 -2.472,-0.9336 -5.07,-1.4024 -7.804,-1.4024 -3.93,0 -7.563,0.7656 -10.899,2.3008 -3.332,1.5312 -6,3.4648 -7.996,5.8008 l 6.496,8.7969 c 1.535,-1.8633 3.387,-3.3282 5.551,-4.3985 2.168,-1.0625 4.383,-1.5976 6.648,-1.5976 2.536,0 4.633,0.8671 6.305,2.5976 1.664,1.7344 2.5,4.168 2.5,7.3008 0,3.0664 -1.004,5.5039 -3.004,7.3008 -1.996,1.8008 -4.531,3.4648 -7.597,5 -1.934,0.9336 -3.75,1.9687 -5.45,3.1015 -1.703,1.1329 -3.203,2.4844 -4.5,4.0508 -1.3,1.5625 -2.336,3.3985 -3.101,5.5 -0.766,2.0977 -1.149,4.6133 -1.149,7.5469 0,3.668 0.582,6.8169 1.75,9.4529 1.164,2.633 2.7,4.817 4.598,6.547 1.898,1.734 4.047,3.02 6.449,3.848 2.403,0.836 4.836,1.25 7.301,1.25 3.598,0 6.816,-0.578 9.648,-1.746 2.836,-1.168 5.219,-2.887 7.153,-5.153 l -6.602,-8.5973"
         style="fill:#231f20;fill-opacity:1;fill-rule:nonzero;stroke:none"
         id="path141" />
      <path
         d="m 977.961,101.5 h -0.402 l -7.7,-35.1016 h 15.602 z m 12.5,-59.5039 -3.504,15 h -18.598 l -3.597,-15 h -12.004 l 17.597,70.8009 h 15.305 l 17.3,-70.8009 h -12.499"
         style="fill:#231f20;fill-opacity:1;fill-rule:nonzero;stroke:none"
         id="path143" />
      <path
         d="m 1038.16,99.0977 c -2.6,3.1323 -5.87,4.7033 -9.8,4.7033 -1.13,0 -2.24,-0.188 -3.3,-0.555 -1.07,-0.363 -2.04,-0.949 -2.9,-1.746 -0.87,-0.801 -1.55,-1.8359 -2.05,-3.1016 -0.5,-1.2695 -0.75,-2.7695 -0.75,-4.5 0,-3 0.9,-5.3203 2.7,-6.9492 1.8,-1.6367 4.17,-3.1836 7.1,-4.6523 1.73,-0.8672 3.5,-1.8672 5.3,-3 1.8,-1.1328 3.43,-2.5 4.9,-4.1016 1.47,-1.5976 2.67,-3.4961 3.6,-5.6992 0.93,-2.1992 1.4,-4.7969 1.4,-7.7969 0,-3.4726 -0.55,-6.539 -1.65,-9.2031 -1.1,-2.668 -2.57,-4.918 -4.4,-6.75 -1.84,-1.8359 -3.98,-3.2148 -6.45,-4.1484 -2.47,-0.9336 -5.07,-1.4024 -7.8,-1.4024 -3.93,0 -7.57,0.7656 -10.9,2.3008 -3.34,1.5312 -6,3.4648 -8,5.8008 l 6.5,8.7969 c 1.53,-1.8633 3.38,-3.3282 5.55,-4.3985 2.17,-1.0625 4.38,-1.5976 6.65,-1.5976 2.53,0 4.63,0.8671 6.3,2.5976 1.67,1.7344 2.5,4.168 2.5,7.3008 0,3.0664 -1,5.5039 -3,7.3008 -2,1.8008 -4.53,3.4648 -7.6,5 -1.93,0.9336 -3.75,1.9687 -5.45,3.1015 -1.7,1.1329 -3.2,2.4844 -4.5,4.0508 -1.3,1.5625 -2.33,3.3985 -3.1,5.5 -0.77,2.0977 -1.15,4.6133 -1.15,7.5469 0,3.668 0.58,6.8169 1.75,9.4529 1.17,2.633 2.7,4.817 4.6,6.547 1.9,1.734 4.05,3.02 6.45,3.848 2.4,0.836 4.83,1.25 7.3,1.25 3.6,0 6.82,-0.578 9.65,-1.746 2.83,-1.168 5.22,-2.887 7.15,-5.153 l -6.6,-8.5973"
         style="fill:#231f20;fill-opacity:1;fill-rule:nonzero;stroke:none"
         id="path145" />
      <path
         d="m 1068.05,107.07 c 0,0.508 -0.22,0.875 -0.67,1.11 -0.45,0.234 -0.9,0.351 -1.37,0.351 h -2.21 v -3.148 h 2.21 c 0.55,0 1.02,0.156 1.43,0.461 0.41,0.312 0.61,0.722 0.61,1.226 z m 0.35,-10.3161 -2.91,5.5941 h -1.69 v -5.5941 h -4.14 V 111.91 h 6.53 c 0.73,0 1.48,-0.078 2.21,-0.234 0.74,-0.153 1.41,-0.414 2.02,-0.785 0.6,-0.368 1.08,-0.868 1.45,-1.485 0.37,-0.625 0.56,-1.383 0.56,-2.277 0,-1.012 -0.29,-1.875 -0.85,-2.594 -0.56,-0.722 -1.29,-1.234 -2.19,-1.547 l 3.85,-6.2341 z m 8.34,7.2851 c 0,1.559 -0.29,3.012 -0.88,4.375 -0.58,1.356 -1.37,2.555 -2.38,3.582 -1.01,1.031 -2.19,1.836 -3.53,2.422 -1.34,0.582 -2.79,0.875 -4.34,0.875 -1.56,0 -3.02,-0.293 -4.38,-0.875 -1.36,-0.586 -2.55,-1.391 -3.58,-2.422 -1.03,-1.027 -1.84,-2.226 -2.42,-3.582 -0.59,-1.363 -0.87,-2.816 -0.87,-4.375 0,-1.516 0.28,-2.953 0.87,-4.3124 0.58,-1.3633 1.39,-2.5469 2.42,-3.5586 1.03,-1.0117 2.22,-1.8086 3.58,-2.3867 1.36,-0.5821 2.82,-0.875 4.38,-0.875 1.55,0 3,0.2929 4.34,0.875 1.34,0.5781 2.52,1.375 3.53,2.3867 1.01,1.0117 1.8,2.1953 2.38,3.5586 0.59,1.3594 0.88,2.7964 0.88,4.3124 z m 2.1,0 c 0,-1.828 -0.35,-3.535 -1.05,-5.1288 -0.7,-1.5938 -1.64,-2.9727 -2.83,-4.1407 -1.19,-1.164 -2.58,-2.0898 -4.19,-2.7656 -1.62,-0.6836 -3.34,-1.0234 -5.16,-1.0234 -1.83,0 -3.56,0.3398 -5.19,1.0234 -1.64,0.6758 -3.06,1.6016 -4.26,2.7656 -1.2,1.168 -2.16,2.5469 -2.85,4.1407 -0.71,1.5938 -1.05,3.3008 -1.05,5.1288 0,1.824 0.34,3.551 1.05,5.16 0.69,1.614 1.65,3.012 2.85,4.199 1.2,1.184 2.62,2.125 4.26,2.829 1.63,0.699 3.36,1.05 5.19,1.05 1.82,0 3.54,-0.351 5.16,-1.05 1.61,-0.704 3,-1.645 4.19,-2.829 1.19,-1.187 2.13,-2.585 2.83,-4.199 0.7,-1.609 1.05,-3.336 1.05,-5.16"
         style="fill:#231f20;fill-opacity:1;fill-rule:nonzero;stroke:none"
         id="path147" />
      <path
         d="m 1117.73,90.4961 c 0,-4.0664 0.8,-7.3984 2.41,-10 1.61,-2.6016 4.03,-3.8984 7.24,-3.8984 3.02,0 5.43,1.332 7.23,4 1.82,2.664 2.72,6 2.72,10 0,4.1992 -0.87,7.5664 -2.61,10.1013 -1.75,2.528 -4.16,3.797 -7.23,3.797 -3.09,0 -5.48,-1.297 -7.19,-3.898 -1.71,-2.6019 -2.57,-5.9691 -2.57,-10.1019 z m -11.3,-0.1992 c 0,3.7304 0.54,7.082 1.6,10.0511 1.07,2.965 2.53,5.465 4.41,7.5 1.86,2.031 4.09,3.597 6.7,4.703 2.59,1.097 5.43,1.648 8.49,1.648 3.14,0 6,-0.535 8.61,-1.601 2.59,-1.071 4.83,-2.618 6.69,-4.649 1.87,-2.035 3.32,-4.535 4.35,-7.5 1.04,-2.9685 1.55,-6.3162 1.55,-10.0545 0,-3.8672 -0.51,-7.5 -1.55,-10.8984 -1.03,-3.3984 -2.39,-6.6992 -4.06,-9.9023 l -14.04,-27.5977 h -13.13 l 15.08,27.9023 -0.1,0.0977 c -0.94,-0.7344 -1.96,-1.25 -3.1,-1.5469 -1.13,-0.3008 -2.33,-0.4531 -3.6,-0.4531 -2.33,0 -4.58,0.4531 -6.75,1.3516 -2.16,0.9023 -4.08,2.2656 -5.75,4.1015 -1.67,1.8281 -2.99,4.1485 -3.94,6.9453 -0.97,2.8047 -1.46,6.1055 -1.46,9.9024"
         style="fill:#231f20;fill-opacity:1;fill-rule:nonzero;stroke:none"
         id="path149" />
      <path
         d="m 1171.64,48.4961 c 0,-2.0664 -0.66,-3.7969 -1.96,-5.1992 -1.3,-1.3985 -2.95,-2.1016 -4.95,-2.1016 -2,0 -3.63,0.7031 -4.9,2.1016 -1.26,1.4023 -1.9,3.1328 -1.9,5.1992 0,2 0.64,3.7344 1.9,5.1992 1.27,1.4649 2.9,2.2031 4.9,2.2031 2,0 3.65,-0.7382 4.95,-2.2031 1.3,-1.4648 1.96,-3.1992 1.96,-5.1992"
         style="fill:#231f20;fill-opacity:1;fill-rule:nonzero;stroke:none"
         id="path151" />
      <path
         d="m 1205.63,101.098 h -0.2 l -15.1,-33.6996 h 15.3 z m 10.5,-43.6996 V 41.9961 h -10.8 v 15.4023 h -25.6 v 10.4961 l 21.4,44.9025 h 15 V 67.3984 h 7.8 v -10 h -7.8"
         style="fill:#231f20;fill-opacity:1;fill-rule:nonzero;stroke:none"
         id="path153" />
    </g>
  </g>
</svg>
