<?xml version="1.0" standalone="no"?>
<!DOCTYPE svg PUBLIC "-//W3C//DTD SVG 20010904//EN"
 "http://www.w3.org/TR/2001/REC-SVG-20010904/DTD/svg10.dtd">
<svg version="1.0" xmlns="http://www.w3.org/2000/svg"
 width="1152.000000pt" height="1152.000000pt" viewBox="0 0 1152.000000 1152.000000"
 preserveAspectRatio="xMidYMid meet">
<metadata>
Created by potrace 1.11, written by Peter Selinger 2001-2013
</metadata>
<g transform="translate(0.000000,1152.000000) scale(0.100000,-0.100000)"
fill="#000000" stroke="none">
<path d="M5645 11377 c-150 -87 -556 -321 -1000 -577 -203 -118 -480 -277
-615 -355 -135 -78 -380 -219 -545 -315 -424 -245 -844 -487 -1170 -675 -154
-89 -442 -255 -640 -369 -198 -115 -454 -262 -570 -328 -116 -66 -225 -131
-243 -145 l-32 -24 0 -2837 c0 -1560 4 -2842 8 -2848 4 -6 124 -79 267 -161
143 -82 411 -237 595 -343 184 -107 445 -257 580 -335 135 -78 380 -219 545
-315 292 -169 588 -339 1180 -681 160 -92 432 -249 605 -349 277 -160 695
-401 1034 -597 61 -35 113 -63 116 -63 3 0 55 28 116 63 60 35 260 150 444
257 184 106 445 257 580 335 999 576 977 564 1745 1007 149 86 412 238 585
338 350 202 796 460 1175 678 138 79 258 151 268 159 16 15 17 164 17 2854 l0
2838 -32 24 c-18 13 -159 96 -313 184 -154 89 -392 226 -530 305 -1211 699
-1446 835 -1685 972 -181 105 -299 173 -980 566 -140 81 -383 222 -540 312
-157 91 -406 235 -555 321 -148 86 -277 158 -285 161 -8 4 -64 -22 -125 -57z
m377 -199 c912 -526 1492 -860 2333 -1346 138 -79 365 -210 505 -291 140 -81
422 -243 625 -361 204 -117 485 -280 625 -360 140 -81 305 -176 365 -212 l110
-64 0 -2794 0 -2795 -110 -64 c-60 -35 -229 -132 -375 -216 -146 -84 -422
-244 -615 -355 -338 -195 -617 -356 -1135 -655 -135 -78 -411 -237 -615 -355
-203 -117 -498 -288 -655 -378 -157 -90 -388 -224 -515 -297 -126 -73 -359
-207 -518 -299 l-287 -165 -258 148 c-141 81 -374 215 -517 298 -772 445 -954
551 -1210 698 -263 152 -600 346 -1210 699 -143 82 -386 222 -540 311 -477
275 -937 540 -1015 587 l-75 44 0 2794 0 2793 75 45 c76 45 507 294 1015 587
154 89 415 239 580 335 165 95 433 250 595 343 740 427 897 517 1225 707 193
111 472 272 620 358 149 86 369 213 490 283 121 70 221 128 222 128 1 1 120
-67 265 -151z"/>
<path d="M7647 7830 c-46 -37 -81 -98 -196 -343 -61 -131 -111 -239 -111 -241
0 -2 -50 -109 -111 -237 -61 -129 -163 -346 -226 -484 -62 -137 -118 -254
-122 -258 -5 -5 -19 -4 -30 3 -17 9 -32 8 -71 -5 -116 -38 -261 -163 -417
-358 -113 -140 -149 -178 -317 -337 -132 -125 -206 -174 -228 -152 -19 19 2
68 135 333 68 134 126 257 129 273 5 22 0 34 -20 52 -68 64 -131 18 -524 -379
-175 -176 -321 -317 -325 -313 -4 4 61 142 145 306 83 164 152 310 152 323 0
29 -29 57 -59 57 -67 0 -190 -111 -468 -425 -174 -197 -373 -393 -468 -461
-82 -58 -130 -65 -154 -22 -15 25 -14 32 3 80 10 29 39 88 64 132 38 66 44 82
36 105 -11 31 -50 39 -87 19 -14 -7 -70 -69 -125 -138 -160 -201 -241 -270
-277 -234 -42 43 11 182 148 387 82 124 185 229 260 267 63 32 133 40 155 18
30 -30 3 -120 -60 -199 -17 -21 -28 -45 -26 -56 5 -26 52 -20 95 13 64 49 173
215 173 264 0 30 -27 78 -51 91 -81 43 -295 -36 -461 -171 -112 -90 -141 -118
-224 -215 -115 -136 -424 -446 -479 -483 -59 -39 -98 -40 -103 -3 -7 47 22
115 96 224 41 61 81 127 89 146 15 35 14 37 -36 133 -50 95 -51 99 -36 128 8
16 15 37 15 47 0 10 11 35 26 56 25 38 54 108 54 133 0 21 -42 54 -69 54 -28
0 -103 -72 -147 -141 -25 -40 -26 -48 -21 -125 4 -77 3 -86 -21 -121 -84 -125
-440 -496 -582 -605 -123 -95 -211 -151 -220 -141 -5 4 56 141 135 303 471
973 717 1513 732 1605 8 48 -18 85 -57 85 -63 0 -123 -87 -360 -530 -129 -241
-160 -292 -278 -468 -162 -244 -283 -402 -464 -609 l-157 -180 -63 -12 c-174
-34 -279 -134 -264 -251 l6 -48 -54 -36 c-67 -45 -106 -54 -129 -31 -36 35
-16 111 64 246 40 67 41 70 25 94 -19 29 -60 33 -93 10 -12 -8 -57 -61 -101
-118 -102 -132 -210 -244 -245 -252 -50 -13 -60 -1 -55 64 5 73 47 161 148
314 129 195 265 307 372 307 42 0 50 -3 60 -25 15 -34 -2 -89 -47 -152 -53
-73 -62 -93 -45 -103 61 -38 260 188 260 295 0 53 -44 95 -100 95 -103 0 -257
-62 -375 -151 -270 -203 -502 -570 -465 -735 11 -49 50 -84 93 -84 64 0 135
45 237 150 53 55 100 100 104 100 5 0 6 -17 2 -38 -7 -49 9 -108 41 -139 21
-22 31 -25 78 -21 58 5 121 40 217 121 l47 40 48 -31 c91 -57 215 -76 343 -52
29 6 55 8 57 6 2 -2 -75 -176 -170 -387 -252 -556 -420 -981 -434 -1101 -8
-70 2 -97 43 -114 29 -12 46 -13 87 -4 193 41 437 305 613 665 178 366 266
821 199 1040 -8 28 -15 50 -15 51 0 1 31 22 69 47 102 67 230 178 376 323 127
125 326 345 360 398 10 14 23 26 29 26 17 0 76 -57 76 -74 0 -8 -30 -52 -67
-98 -170 -213 -219 -331 -182 -437 11 -32 52 -61 86 -61 30 0 135 55 193 101
30 23 105 92 167 152 l111 109 -19 -62 c-23 -73 -24 -119 -5 -165 18 -42 48
-59 96 -52 66 9 113 39 221 144 58 57 109 103 112 103 4 0 4 -20 1 -44 -12
-88 34 -156 105 -156 87 0 222 101 487 365 99 99 250 254 336 345 86 91 159
162 163 158 10 -9 -38 -122 -141 -332 -142 -287 -159 -345 -109 -368 19 -9 34
-7 70 6 38 15 74 51 248 249 190 216 487 513 487 488 0 -7 -36 -80 -80 -164
-121 -232 -153 -333 -130 -416 11 -43 48 -71 92 -71 61 0 176 78 317 214 41
39 70 62 66 51 -4 -11 -10 -47 -13 -81 -4 -57 -2 -62 23 -82 35 -28 68 -28
130 2 87 41 211 151 361 322 l71 81 -5 -117 c-4 -95 -2 -122 12 -148 55 -107
240 36 703 542 40 44 76 76 80 72 14 -14 9 -317 -6 -373 -28 -113 -82 -133
-167 -63 -27 22 -54 40 -61 40 -31 0 -57 -53 -51 -106 6 -53 110 -96 191 -78
87 18 206 114 475 379 101 100 180 172 177 161 -4 -12 -9 -65 -12 -118 -7
-122 6 -177 54 -218 29 -26 42 -30 92 -30 101 0 224 48 348 137 85 60 252 218
414 393 195 211 311 330 322 330 18 0 -5 -57 -118 -292 -140 -291 -164 -355
-147 -393 12 -25 16 -27 54 -22 23 3 53 14 67 24 14 11 103 107 198 214 186
211 488 517 499 506 4 -3 -4 -28 -18 -54 -122 -241 -158 -315 -172 -362 -21
-70 -21 -169 -1 -198 20 -28 76 -39 126 -24 99 30 341 256 636 592 87 100 159
190 161 200 4 24 -20 34 -47 20 -11 -6 -66 -64 -122 -129 -137 -156 -420 -438
-499 -496 -66 -49 -102 -56 -109 -21 -2 11 54 133 129 281 93 184 134 275 137
307 5 45 4 47 -30 63 -20 10 -45 14 -58 11 -54 -15 -180 -127 -466 -416 -166
-168 -305 -303 -309 -299 -7 8 24 73 186 388 114 222 124 254 89 283 -31 25
-69 17 -137 -30 -56 -38 -242 -233 -340 -356 -82 -104 -334 -352 -429 -424
-92 -69 -175 -105 -247 -106 -41 -1 -52 3 -72 26 -13 15 -26 42 -29 61 -7 32
-2 38 153 192 216 216 301 343 302 449 0 50 -30 100 -64 109 -91 23 -219 -72
-371 -274 -145 -193 -556 -623 -577 -602 -14 14 -5 480 12 555 15 66 7 83 -33
73 -17 -4 -30 -19 -42 -48 -22 -56 -72 -123 -221 -293 -170 -195 -362 -387
-408 -409 -34 -16 -40 -16 -53 -3 -39 39 -22 217 39 407 67 211 242 582 448
955 136 245 303 574 344 678 15 38 26 82 24 100 -3 29 -7 32 -39 35 -24 2 -43
-4 -62 -18z m859 -1324 c13 -52 -84 -203 -220 -345 -100 -102 -108 -102 -81 1
46 180 182 368 267 368 21 0 29 -6 34 -24z m-1656 -310 c0 -10 -93 -213 -112
-245 -119 -198 -356 -429 -415 -407 -39 15 20 153 137 316 122 171 226 276
315 320 35 18 75 26 75 16z m-3944 -298 c-68 -139 -201 -411 -296 -605 l-173
-352 -28 20 c-39 28 -91 48 -160 62 l-59 12 71 75 c109 117 145 160 306 380
137 188 417 592 443 640 6 11 13 20 15 20 2 0 -52 -114 -119 -252z m-642 -982
c28 -14 66 -41 85 -60 l33 -34 -28 -53 c-25 -46 -35 -55 -74 -67 -25 -8 -88
-15 -140 -16 -88 -1 -100 1 -164 32 l-70 33 100 100 99 101 54 -6 c29 -2 76
-16 105 -30z m-324 -41 c-54 -55 -66 -62 -68 -46 -5 33 15 58 70 85 28 14 54
26 57 26 3 0 -24 -29 -59 -65z m547 -400 c6 -152 -6 -259 -48 -433 -58 -239
-153 -468 -264 -639 -99 -151 -230 -259 -307 -251 -32 3 -33 5 -30 42 8 102
249 672 583 1381 41 88 42 89 51 60 5 -16 12 -89 15 -160z"/>
</g>
</svg>
